<?xml version="1.0" encoding="UTF-8"?>
<svg version="1.1" xmlns="http://www.w3.org/2000/svg" width="400" height="114">
<path d="M0 0 C132 0 264 0 400 0 C400 37.62 400 75.24 400 114 C268 114 136 114 0 114 C0 76.38 0 38.76 0 0 Z " fill="#031C2F" transform="translate(0,0)"/>
<path d="M0 0 C1.98 0 3.96 0 6 0 C6.20625 0.639375 6.4125 1.27875 6.625 1.9375 C7.305625 2.9584375 7.305625 2.9584375 8 4 C9.9914056 4.38133299 11.99279077 4.71325582 14 5 C14.474375 5.495 14.94875 5.99 15.4375 6.5 C17.906266 8.87001536 20.70123249 8.68879552 24 9 C24.66 8.01 25.32 7.02 26 6 C28.475 6.99 28.475 6.99 31 8 C31.495 11.465 31.495 11.465 32 15 C32.99 15.33 33.98 15.66 35 16 C35 15.01 35 14.02 35 13 C36.32 13 37.64 13 39 13 C38.67 13.99 38.34 14.98 38 16 C35.9375 16.6875 35.9375 16.6875 34 17 C34 17.99 34 18.98 34 20 C35.98 20 37.96 20 40 20 C41.4783226 22.95664519 41.06032783 25.74229737 41 29 C37.86650268 30.04449911 37.01031744 29.93423645 34 29 C33.79375 29.804375 33.5875 30.60875 33.375 31.4375 C32.694375 32.7059375 32.694375 32.7059375 32 34 C28.875 34.8125 28.875 34.8125 26 35 C26 34.34 26 33.68 26 33 C25.34 33 24.68 33 24 33 C23.814375 33.928125 23.814375 33.928125 23.625 34.875 C23 37 23 37 21 39 C17.875 38.625 17.875 38.625 15 38 C15 38.66 15 39.32 15 40 C15.99 40.33 16.98 40.66 18 41 C18.33 41.99 18.66 42.98 19 44 C17.5625 46.1875 17.5625 46.1875 16 48 C16.969375 48.391875 17.93875 48.78375 18.9375 49.1875 C22 51 22 51 23 53.4375 C23 56.23155496 22.4746622 57.65788944 21 60 C21.66 60.99 22.32 61.98 23 63 C23 63.99 23 64.98 23 66 C23.99 66 24.98 66 26 66 C25.67 65.34 25.34 64.68 25 64 C24.95977609 61.6670134 24.95679753 59.33293334 25 57 C27.375 56.375 27.375 56.375 30 56 C30.66 56.66 31.32 57.32 32 58 C31.67028521 61.29714793 31.3773161 62.6226839 29 65 C29.515625 65.391875 30.03125 65.78375 30.5625 66.1875 C31.036875 66.785625 31.51125 67.38375 32 68 C31.6875 70.6875 31.6875 70.6875 31 73 C29.5459375 73.4021875 29.5459375 73.4021875 28.0625 73.8125 C26.5465625 74.4003125 26.5465625 74.4003125 25 75 C24.505 76.485 24.505 76.485 24 78 C22.15234375 78.73046875 22.15234375 78.73046875 19.9375 79.1875 C19.20402344 79.34605469 18.47054687 79.50460938 17.71484375 79.66796875 C17.14894531 79.77753906 16.58304688 79.88710937 16 80 C15.9278125 80.62519531 15.855625 81.25039062 15.78125 81.89453125 C15 84 15 84 12.96875 85.01171875 C12.1540625 85.23472656 11.339375 85.45773438 10.5 85.6875 C7.48160243 86.36829043 7.48160243 86.36829043 5 88 C3.31391034 88.07205511 1.62499341 88.08386068 -0.0625 88.0625 C-1.44115234 88.04896484 -1.44115234 88.04896484 -2.84765625 88.03515625 C-3.91306641 88.01775391 -3.91306641 88.01775391 -5 88 C-5.33 89.32 -5.66 90.64 -6 92 C-6.99 92 -7.98 92 -9 92 C-8.835 91.21625 -8.67 90.4325 -8.5 89.625 C-7.87584139 86.3481673 -7.92593 85.22221 -9 82 C-9.66 82 -10.32 82 -11 82 C-11.66 83.32 -12.32 84.64 -13 86 C-13.99 86 -14.98 86 -16 86 C-16.375 83.75 -16.375 83.75 -16 81 C-13.03363549 78.44754682 -11.05599941 77.09182604 -7.125 76.75 C-6.42375 76.8325 -5.7225 76.915 -5 77 C-5 76.01 -5 75.02 -5 74 C-7.31 74 -9.62 74 -12 74 C-12.495 74.99 -12.495 74.99 -13 76 C-14.32 76 -15.64 76 -17 76 C-16.67 74.35 -16.34 72.7 -16 71 C-14.34385343 70.61781233 -12.67542976 70.28604898 -11 70 C-10.67 70.33 -10.34 70.66 -10 71 C-9.67 70.01 -9.34 69.02 -9 68 C-7.35 68.33 -5.7 68.66 -4 69 C-4 68.34 -4 67.68 -4 67 C-3.34 67 -2.68 67 -2 67 C-2 62.05 -2 57.1 -2 52 C0.97 51.505 0.97 51.505 4 51 C4.66 51.66 5.32 52.32 6 53 C5.60467975 55.45098556 4.78698574 57.63904279 4 60 C4.66 60.99 5.32 61.98 6 63 C6.19470238 65.53113099 6.12549305 67.55380248 5.4375 70 C4.83383268 72.08432464 4.83383268 72.08432464 5.5625 74.5 C6.07633714 77.43621224 5.5578838 78.52571396 4 81 C5.485 81.99 5.485 81.99 7 83 C6.95875 82.21625 6.9175 81.4325 6.875 80.625 C7 78 7 78 9 76 C12.625 75.875 12.625 75.875 16 76 C16.33 74.35 16.66 72.7 17 71 C14.36 71.33 11.72 71.66 9 72 C8.87625 71.484375 8.7525 70.96875 8.625 70.4375 C7.99481867 67.84108093 7.99481867 67.84108093 6.875 64.75 C5.83564634 60.29562719 6.24120878 57.47686818 7 53 C7 52.34 7 51.68 7 51 C7 49.68 7 48.36 7 47 C5.865625 47.185625 4.73125 47.37125 3.5625 47.5625 C2.386875 47.706875 1.21125 47.85125 0 48 C-1.99616554 46.00383446 -1.40983427 42.18298037 -1.5625 39.4375 C-1.60568359 38.72658203 -1.64886719 38.01566406 -1.69335938 37.28320312 C-1.79971777 35.52238088 -1.90038846 33.7612168 -2 32 C4.75 30.875 4.75 30.875 7 32 C7 32.99 7 33.98 7 35 C9.64 35 12.28 35 15 35 C15 34.01 15 33.02 15 32 C15.66 31.67 16.32 31.34 17 31 C17 28.36 17 25.72 17 23 C18.32 22.67 19.64 22.34 21 22 C21.66 23.32 22.32 24.64 23 26 C24.32 25.67 25.64 25.34 27 25 C26.360625 24.38125 25.72125 23.7625 25.0625 23.125 C23 21 23 21 22 19 C20.67203709 18.64587656 19.33783393 18.31478446 18 18 C17.01 17.34 16.02 16.68 15 16 C15 14.68 15 13.36 15 12 C14.071875 12.226875 13.14375 12.45375 12.1875 12.6875 C9 13 9 13 7.125 11.6875 C6 10 6 10 6 8 C5.01 8 4.02 8 3 8 C3.7734375 8.99 3.7734375 8.99 4.5625 10 C6.28228985 13.58912665 5.93320865 15.28052016 5.25390625 19.0703125 C4.93095269 21.52475956 5.50499592 23.59569445 6 26 C5.34 26.66 4.68 27.32 4 28 C1.73725212 27.64644564 0.04911148 27.02455574 -2 26 C-2 24.68 -2 23.36 -2 22 C-2.969375 22.020625 -3.93875 22.04125 -4.9375 22.0625 C-8 22 -8 22 -9 21 C-9.04063832 19.33382885 -9.042721 17.66611905 -9 16 C-6.69 16 -4.38 16 -2 16 C-2 14.68 -2 13.36 -2 12 C-1.34 12 -0.68 12 0 12 C-0.34786708 10.02463255 -0.34786708 10.02463255 -1 8 C-1.66 7.67 -2.32 7.34 -3 7 C-3 8.65 -3 10.3 -3 12 C-4.65 12 -6.3 12 -8 12 C-8.625 10.1875 -8.625 10.1875 -9 8 C-7 5 -7 5 -4 4 C-3.67 3.34 -3.34 2.68 -3 2 C-2.01 2 -1.02 2 0 2 C0 1.34 0 0.68 0 0 Z " fill="#2D1311" transform="translate(60,10)"/>
<path d="M0 0 C1.26457031 -0.04350586 1.26457031 -0.04350586 2.5546875 -0.08789062 C8.52490398 -0.14814902 11.99512952 0.82410453 16.875 4.3125 C18.59605424 7.75460849 18.38974617 11.54883647 17.875 15.3125 C15.875 17.875 15.875 17.875 13.875 19.3125 C14.865 19.93125 15.855 20.55 16.875 21.1875 C19.04703801 22.98469457 19.78908362 23.90622873 20.37890625 26.6953125 C20.48749713 31.54570512 20.32458068 35.64036573 16.875 39.3125 C11.14114434 42.39193094 6.43662466 42.71997094 0 42.5625 C-1.299375 42.55476563 -1.299375 42.55476563 -2.625 42.546875 C-8.97018849 42.46731151 -8.97018849 42.46731151 -10.125 41.3125 C-10.22610353 38.3671443 -10.26469279 35.4457244 -10.2578125 32.5 C-10.25876923 31.61594482 -10.25972595 30.73188965 -10.26071167 29.82104492 C-10.26139351 27.94807871 -10.25953893 26.07511014 -10.25537109 24.20214844 C-10.25002289 21.32481612 -10.25531593 18.44763992 -10.26171875 15.5703125 C-10.26105797 13.75520799 -10.25977681 11.94010357 -10.2578125 10.125 C-10.25983673 9.25834717 -10.26186096 8.39169434 -10.26394653 7.4987793 C-10.22956388 -1.20036203 -7.77136307 0.08673396 0 0 Z " fill="#EBEEF1" transform="translate(135.125,33.6875)"/>
<path d="M0 0 C0.99 0.33 1.98 0.66 3 1 C3 2.32 3 3.64 3 5 C2.34 5 1.68 5 1 5 C1 6.32 1 7.64 1 9 C-1.31 9 -3.62 9 -6 9 C-5.67 10.65 -5.34 12.3 -5 14 C-2.03 14.495 -2.03 14.495 1 15 C1 16.32 1 17.64 1 19 C2.98 19.33 4.96 19.66 7 20 C7.96600942 16.24329669 7.77076968 13.75750219 7 10 C7.185625 9.34 7.37125 8.68 7.5625 8 C8.17487127 5.20058846 7.19606286 3.532839 6 1 C6.99 1 7.98 1 9 1 C9.433125 1.66 9.86625 2.32 10.3125 3 C10.869375 3.66 11.42625 4.32 12 5 C15.12586875 5.33397787 15.12586875 5.33397787 18 5 C18 6.32 18 7.64 18 9 C21.08809695 10.76462683 22.23312136 11 26 11 C26.495 13.475 26.495 13.475 27 16 C28.65 16.33 30.3 16.66 32 17 C31.34 17.66 30.68 18.32 30 19 C28.68 19 27.36 19 26 19 C25.34 18.01 24.68 17.02 24 16 C23.01 16 22.02 16 21 16 C21 18.64 21 21.28 21 24 C20.01 24.33 19.02 24.66 18 25 C18 25.99 18 26.98 18 28 C15.36 28 12.72 28 10 28 C10 27.01 10 26.02 10 25 C7.03 25 4.06 25 1 25 C1.66 29.95 2.32 34.9 3 40 C5.31 40 7.62 40 10 40 C10.66 41.98 11.32 43.96 12 46 C11.34 46 10.68 46 10 46 C9.7804691 51.4882724 10.01782888 55.79680082 12 61 C12 61.99 12 62.98 12 64 C14.64 64 17.28 64 20 64 C19.67 65.65 19.34 67.3 19 69 C15.535 69.495 15.535 69.495 12 70 C11.34 71.98 10.68 73.96 10 76 C8.68 75.34 7.36 74.68 6 74 C6.350625 73.505 6.70125 73.01 7.0625 72.5 C8.44972255 68.80073987 7.5736243 65.88789806 7 62 C7.33 61.67 7.66 61.34 8 61 C8.1613058 57.93518979 7.98150241 55.94450722 7 53 C5.515 52.505 5.515 52.505 4 52 C4.99 52 5.98 52 7 52 C7.33 50.02 7.66 48.04 8 46 C4.52852158 45.25042843 4.52852158 45.25042843 1 45 C1.09539063 45.61746094 1.19078125 46.23492187 1.2890625 46.87109375 C2.09721067 53.04496988 1.74532148 58.02840419 0 64 C-1.65 62.68 -3.3 61.36 -5 60 C-4.01 59.505 -4.01 59.505 -3 59 C-2.67 58.01 -2.34 57.02 -2 56 C-3.98 55.67 -5.96 55.34 -8 55 C-8 53.35 -8 51.7 -8 50 C-6.35 50 -4.7 50 -3 50 C-2.67 48.68 -2.34 47.36 -2 46 C-5.465 45.505 -5.465 45.505 -9 45 C-9 46.65 -9 48.3 -9 50 C-10.65 49.67 -12.3 49.34 -14 49 C-13.67 47.35 -13.34 45.7 -13 44 C-11.02 43.505 -11.02 43.505 -9 43 C-9.495 41.515 -9.495 41.515 -10 40 C-11.32 40 -12.64 40 -14 40 C-14 38.68 -14 37.36 -14 36 C-13.01 36 -12.02 36 -11 36 C-11 35.34 -11 34.68 -11 34 C-12.32 34 -13.64 34 -15 34 C-15.33 34.66 -15.66 35.32 -16 36 C-18.31 36 -20.62 36 -23 36 C-23 34.35 -23 32.7 -23 31 C-21.02 31 -19.04 31 -17 31 C-16.67 30.01 -16.34 29.02 -16 28 C-15.67 27.01 -15.34 26.02 -15 25 C-12.69 25 -10.38 25 -8 25 C-8 24.34 -8 23.68 -8 23 C-8.66 23 -9.32 23 -10 23 C-11.625 21 -11.625 21 -13 19 C-12.01 19 -11.02 19 -10 19 C-9.67 18.34 -9.34 17.68 -9 17 C-9 17.99 -9 18.98 -9 20 C-6.69 19.01 -4.38 18.02 -2 17 C-2.969375 16.7525 -3.93875 16.505 -4.9375 16.25 C-8 15 -8 15 -9 13.25 C-9 10.20572834 -8.06442485 7.83846627 -7 5 C-6.65023242 3.67088318 -6.30903983 2.33917261 -6 1 C-5.67 1.99 -5.34 2.98 -5 4 C-2.525 4.495 -2.525 4.495 0 5 C0 3.35 0 1.7 0 0 Z " fill="#0E1824" transform="translate(57,17)"/>
<path d="M0 0 C1.98 0 3.96 0 6 0 C6 2.97 6 5.94 6 9 C9.96 9 13.92 9 18 9 C18 10.65 18 12.3 18 14 C17 15 17 15 14.49609375 15.09765625 C11.6640625 15.06510417 8.83203125 15.03255208 6 15 C6.33 21.27 6.66 27.54 7 34 C7.99 34.33 8.98 34.66 10 35 C9.97679687 34.01257813 9.95359375 33.02515625 9.9296875 32.0078125 C9.91164062 30.72648437 9.89359375 29.44515625 9.875 28.125 C9.85179687 26.84882812 9.82859375 25.57265625 9.8046875 24.2578125 C10 21 10 21 12 19 C14.1640625 18.5859375 14.1640625 18.5859375 16.625 18.375 C17.44226563 18.30023438 18.25953125 18.22546875 19.1015625 18.1484375 C19.72804687 18.09945312 20.35453125 18.05046875 21 18 C21.33 16.35 21.66 14.7 22 13 C22.928125 12.71125 23.85625 12.4225 24.8125 12.125 C28.09791667 11.1125 28.09791667 11.1125 31 9 C34.13671875 8.8046875 34.13671875 8.8046875 37.6875 8.875 C38.86699219 8.89304687 40.04648438 8.91109375 41.26171875 8.9296875 C42.61716797 8.96449219 42.61716797 8.96449219 44 9 C44.5625 10.9375 44.5625 10.9375 45 13 C42.82230286 15.17769714 37.8324206 14.32272265 34.8828125 14.42578125 C31.95638597 14.75418871 31.95638597 14.75418871 30.140625 16.66796875 C28.70757044 19.59787824 28.60059009 21.74534491 28.625 25 C28.61726563 26.03125 28.60953125 27.0625 28.6015625 28.125 C29.06029426 31.43506448 29.49128952 32.78612766 32 35 C35.18596662 35.70124774 35.18596662 35.70124774 38.6875 35.75 C39.86699219 35.80671875 41.04648438 35.8634375 42.26171875 35.921875 C43.16535156 35.94765625 44.06898438 35.9734375 45 36 C45 37.65 45 39.3 45 41 C40.37802694 43.21854707 37.23175837 44.38281159 32 44 C32 43.34 32 42.68 32 42 C27.46859347 41.06619039 27.46859347 41.06619039 23 42 C22.01 41.34 21.02 40.68 20 40 C20 40.66 20 41.32 20 42 C17.59933048 41.99396058 15.21138957 41.94640881 12.8125 41.875 C11.80219727 41.87886719 11.80219727 41.87886719 10.77148438 41.8828125 C6.83302939 41.7291167 5.19076228 41.17877938 2.29492188 38.46484375 C-0.54685238 34.81019107 -0.64618322 31.25270392 -0.48828125 26.7578125 C-0.48120651 25.98944061 -0.47413177 25.22106873 -0.46684265 24.42941284 C-0.43902296 21.99358583 -0.37631602 19.56012296 -0.3125 17.125 C-0.2874007 15.46617922 -0.26459039 13.80732212 -0.24414062 12.1484375 C-0.18923818 8.09805802 -0.10305907 4.04942873 0 0 Z " fill="#0F2B3D" transform="translate(178,35)"/>
<path d="M0 0 C0.93065133 2.60582371 1.14917407 3.64198224 0.0625 6.25 C-0.4634375 7.11625 -0.4634375 7.11625 -1 8 C-0.01 9.485 -0.01 9.485 1 11 C1.19470238 13.53113099 1.12549305 15.55380248 0.4375 18 C-0.16616732 20.08432464 -0.16616732 20.08432464 0.5625 22.5 C1.07633714 25.43621224 0.5578838 26.52571396 -1 29 C-0.01 29.66 0.98 30.32 2 31 C1.95875 30.21625 1.9175 29.4325 1.875 28.625 C2 26 2 26 4 24 C7.625 23.875 7.625 23.875 11 24 C11.33 22.35 11.66 20.7 12 19 C8.04 19.495 8.04 19.495 4 20 C3.87625 19.484375 3.7525 18.96875 3.625 18.4375 C2.99481867 15.84108093 2.99481867 15.84108093 1.875 12.75 C0.84011853 8.31479372 1.21956451 5.44848228 2 1 C8.75 2.625 8.75 2.625 11 6 C11.825 6.33 12.65 6.66 13.5 7 C16 8 16 8 18 11 C18 11.99 18 12.98 18 14 C18.99 14 19.98 14 21 14 C20.505 13.01 20.505 13.01 20 12 C19.95977609 9.6670134 19.95679753 7.33293334 20 5 C22.375 4.375 22.375 4.375 25 4 C25.66 4.66 26.32 5.32 27 6 C26.67028521 9.29714793 26.3773161 10.6226839 24 13 C24.515625 13.391875 25.03125 13.78375 25.5625 14.1875 C26.036875 14.785625 26.51125 15.38375 27 16 C26.6875 18.6875 26.6875 18.6875 26 21 C25.030625 21.268125 24.06125 21.53625 23.0625 21.8125 C22.051875 22.204375 21.04125 22.59625 20 23 C19.505 24.485 19.505 24.485 19 26 C17.15234375 26.73046875 17.15234375 26.73046875 14.9375 27.1875 C14.20402344 27.34605469 13.47054687 27.50460938 12.71484375 27.66796875 C12.14894531 27.77753906 11.58304688 27.88710937 11 28 C10.9278125 28.62519531 10.855625 29.25039062 10.78125 29.89453125 C10 32 10 32 7.96875 33.01171875 C7.1540625 33.23472656 6.339375 33.45773438 5.5 33.6875 C2.48160243 34.36829043 2.48160243 34.36829043 0 36 C-1.68608966 36.07205511 -3.37500659 36.08386068 -5.0625 36.0625 C-5.98160156 36.05347656 -6.90070312 36.04445312 -7.84765625 36.03515625 C-8.55792969 36.02355469 -9.26820312 36.01195312 -10 36 C-10.33 37.32 -10.66 38.64 -11 40 C-11.99 40 -12.98 40 -14 40 C-13.835 39.21625 -13.67 38.4325 -13.5 37.625 C-12.87584139 34.3481673 -12.92593 33.22221 -14 30 C-14.66 30 -15.32 30 -16 30 C-16.66 31.32 -17.32 32.64 -18 34 C-18.99 34 -19.98 34 -21 34 C-21.375 31.75 -21.375 31.75 -21 29 C-18.03363549 26.44754682 -16.05599941 25.09182604 -12.125 24.75 C-11.42375 24.8325 -10.7225 24.915 -10 25 C-10 24.01 -10 23.02 -10 22 C-12.31 22 -14.62 22 -17 22 C-17.33 22.66 -17.66 23.32 -18 24 C-19.32 24 -20.64 24 -22 24 C-21.67 22.35 -21.34 20.7 -21 19 C-19.34385343 18.61781233 -17.67542976 18.28604898 -16 18 C-15.67 18.33 -15.34 18.66 -15 19 C-14.67 18.01 -14.34 17.02 -14 16 C-12.35 16.33 -10.7 16.66 -9 17 C-9 16.34 -9 15.68 -9 15 C-8.34 15 -7.68 15 -7 15 C-7 10.05 -7 5.1 -7 0 C-4.3333581 -1.33332095 -2.83319697 -0.67102033 0 0 Z " fill="#1F1A20" transform="translate(65,62)"/>
<path d="M0 0 C4.25338569 2.3537419 7.21944528 5.45708935 9 10 C9.71578616 16.15390182 9.69861771 21.82193521 6 27 C3.07801376 30.44644531 1.57565653 31.73525554 -2.8828125 32.484375 C-7.77721765 32.70083518 -10.93788413 32.71530252 -15.0625 29.9375 C-19.17018843 23.70971432 -20.97440825 18.402796 -20 11 C-18.56256459 6.84740882 -16.47048358 3.63357471 -12.93359375 0.92578125 C-8.76024051 -1.07236969 -4.4545736 -0.92319424 0 0 Z " fill="#E8EBEE" transform="translate(355,44)"/>
<path d="M0 0 C1.63001953 0.01353516 1.63001953 0.01353516 3.29296875 0.02734375 C4.12441406 0.03894531 4.95585937 0.05054688 5.8125 0.0625 C5.8125 1.7125 5.8125 3.3625 5.8125 5.0625 C-0.1275 5.5575 -0.1275 5.5575 -6.1875 6.0625 C-6.1875 7.7125 -6.1875 9.3625 -6.1875 11.0625 C-4.8675 11.3925 -3.5475 11.7225 -2.1875 12.0625 C-1.8575 11.0725 -1.5275 10.0825 -1.1875 9.0625 C-0.50042969 9.05992188 0.18664062 9.05734375 0.89453125 9.0546875 C3.6527536 8.93630886 6.13515171 8.74800463 8.8125 8.0625 C11.05136732 5.17570156 11.05136732 5.17570156 11.8125 2.0625 C12.4725 2.0625 13.1325 2.0625 13.8125 2.0625 C13.8125 1.4025 13.8125 0.7425 13.8125 0.0625 C16.1225 0.0625 18.4325 0.0625 20.8125 0.0625 C20.8125 10.6225 20.8125 21.1825 20.8125 32.0625 C18.5025 32.0625 16.1925 32.0625 13.8125 32.0625 C13.4825 29.0925 13.1525 26.1225 12.8125 23.0625 C11.8225 22.7325 10.8325 22.4025 9.8125 22.0625 C9.93625 23.42375 9.93625 23.42375 10.0625 24.8125 C9.8125 28.0625 9.8125 28.0625 8.37109375 30.24609375 C4.56476314 32.94829792 1.17172296 32.53572469 -3.375 32.375 C-4.20708984 32.36533203 -5.03917969 32.35566406 -5.89648438 32.34570312 C-12.01906406 32.23093594 -12.01906406 32.23093594 -13.1875 31.0625 C-13.22813832 29.39632885 -13.230221 27.72861905 -13.1875 26.0625 C-12.62546875 26.22621094 -12.0634375 26.38992187 -11.484375 26.55859375 C-9.05690944 27.09114997 -6.91860319 27.16148681 -4.4375 27.125 C-3.23867188 27.11146484 -3.23867188 27.11146484 -2.015625 27.09765625 C-1.41234375 27.08605469 -0.8090625 27.07445313 -0.1875 27.0625 C0.4725 25.0825 1.1325 23.1025 1.8125 21.0625 C-0.81157011 19.64112869 -3.4316895 18.63731735 -6.25 17.6875 C-8.72955004 16.75478285 -10.1701028 16.07772255 -12.1875 14.3125 C-13.64913259 11.02382668 -13.63165532 8.61574253 -13.1875 5.0625 C-9.46242022 0.18136097 -5.86092646 -0.06302071 0 0 Z M10.8125 24.0625 C11.1425 25.0525 11.4725 26.0425 11.8125 27.0625 C11.1525 27.0625 10.4925 27.0625 9.8125 27.0625 C10.1425 26.0725 10.4725 25.0825 10.8125 24.0625 Z " fill="#0A2335" transform="translate(272.1875,43.9375)"/>
<path d="M0 0 C1.32 0 2.64 0 4 0 C3.6875 2.375 3.6875 2.375 3 5 C2.01 5.66 1.02 6.32 0 7 C0 7.66 0 8.32 0 9 C0.66 9 1.32 9 2 9 C1.67 10.65 1.34 12.3 1 14 C1.66 13.01 2.32 12.02 3 11 C3.99 11.33 4.98 11.66 6 12 C6 12.66 6 13.32 6 14 C5.34 14 4.68 14 4 14 C3.63883954 15.4774746 3.28624952 16.95704675 2.9375 18.4375 C2.74027344 19.26121094 2.54304688 20.08492187 2.33984375 20.93359375 C2.22769531 21.61550781 2.11554688 22.29742187 2 23 C2.33 23.33 2.66 23.66 3 24 C3.33 23.01 3.66 22.02 4 21 C3.95875 21.763125 3.9175 22.52625 3.875 23.3125 C3.77919176 26.22718416 3.77919176 26.22718416 6 29 C5.125 31.6875 5.125 31.6875 4 34 C2.35 33.67 0.7 33.34 -1 33 C-1 34.98 -1 36.96 -1 39 C0.32 39 1.64 39 3 39 C2.67 41.31 2.34 43.62 2 46 C1.1028125 46.1546875 1.1028125 46.1546875 0.1875 46.3125 C-2.09240718 46.82969347 -2.09240718 46.82969347 -3.5 48.625 C-3.995 49.07875 -4.49 49.5325 -5 50 C-7.1875 49.6875 -7.1875 49.6875 -9 49 C-9 47.35 -9 45.7 -9 44 C-9.99 43.67 -10.98 43.34 -12 43 C-12 42.34 -12 41.68 -12 41 C-10.35 41 -8.7 41 -7 41 C-7 41.99 -7 42.98 -7 44 C-5.35 44 -3.7 44 -2 44 C-2.33 42.68 -2.66 41.36 -3 40 C-5.64 40 -8.28 40 -11 40 C-12 35.25 -12 35.25 -12 33 C-12.31478446 31.66216607 -12.64587656 30.32796291 -13 29 C-14.11375 28.773125 -15.2275 28.54625 -16.375 28.3125 C-20 27 -20 27 -21.4375 24.375 C-21.623125 23.59125 -21.80875 22.8075 -22 22 C-20.865625 21.855625 -19.73125 21.71125 -18.5625 21.5625 C-15.19222799 21.38828522 -15.19222799 21.38828522 -14 20 C-14.928125 20.103125 -15.85625 20.20625 -16.8125 20.3125 C-17.864375 20.209375 -18.91625 20.10625 -20 20 C-21.875 17.5 -21.875 17.5 -23 15 C-21.35 14.67 -19.7 14.34 -18 14 C-18 13.01 -18 12.02 -18 11 C-14.535 10.505 -14.535 10.505 -11 10 C-11 9.34 -11 8.68 -11 8 C-10.34 8 -9.68 8 -9 8 C-9 7.01 -9 6.02 -9 5 C-6.03 4.34 -3.06 3.68 0 3 C0 2.01 0 1.02 0 0 Z " fill="#092537" transform="translate(105,38)"/>
<path d="M0 0 C2.39774745 -0.13572155 4.78775245 -0.23436868 7.1875 -0.3125 C8.19780273 -0.3753418 8.19780273 -0.3753418 9.22851562 -0.43945312 C13.17384042 -0.53568056 14.80509461 -0.15535183 17.92578125 2.33203125 C20.82828743 6.06538666 21.12731169 8.69745717 21.1328125 13.2890625 C21.13474609 14.82433594 21.13474609 14.82433594 21.13671875 16.390625 C21.13285156 17.45796875 21.12898438 18.5253125 21.125 19.625 C21.13080078 21.23761719 21.13080078 21.23761719 21.13671875 22.8828125 C21.13542969 23.90375 21.13414062 24.9246875 21.1328125 25.9765625 C21.13168457 26.91580566 21.13055664 27.85504883 21.12939453 28.82275391 C21 31 21 31 20 32 C17.06682756 32.20781586 14.18640685 32.32468773 11.25 32.375 C10.43789062 32.41238281 9.62578125 32.44976562 8.7890625 32.48828125 C4.46682236 32.55163656 2.55626902 32.40397429 -1.0390625 29.79296875 C-3.11335134 26.83855336 -3.68000312 25.49620201 -3.625 21.9375 C-3.63789063 21.10089844 -3.65078125 20.26429687 -3.6640625 19.40234375 C-2.68866142 15.8736869 -1.11366664 14.84123453 2 13 C5.33203125 12.609375 5.33203125 12.609375 8.8125 12.75 C9.97394531 12.78609375 11.13539063 12.8221875 12.33203125 12.859375 C13.21246094 12.90578125 14.09289062 12.9521875 15 13 C14.39816251 10.97954558 13.72693904 8.97888961 13 7 C10.35541621 5.67770811 8.32238699 5.90322806 5.375 5.9375 C3.87066406 5.95103516 3.87066406 5.95103516 2.3359375 5.96484375 C1.17964844 5.98224609 1.17964844 5.98224609 0 6 C0 4.02 0 2.04 0 0 Z " fill="#E7EAED" transform="translate(231,44)"/>
<path d="M0 0 C1.65 0 3.3 0 5 0 C5 1.98 5 3.96 5 6 C4.01 6.33 3.02 6.66 2 7 C2.66 7.33 3.32 7.66 4 8 C5.26229508 12.47540984 5.26229508 12.47540984 4 15 C4.66 15 5.32 15 6 15 C10.08345688 23.62063118 8.46070908 34.07992958 6 43 C4.35 41.68 2.7 40.36 1 39 C1.99 38.505 1.99 38.505 3 38 C3.33 37.01 3.66 36.02 4 35 C2.02 34.67 0.04 34.34 -2 34 C-2 32.35 -2 30.7 -2 29 C-0.35 29 1.3 29 3 29 C3.33 27.68 3.66 26.36 4 25 C1.69 24.67 -0.62 24.34 -3 24 C-3 25.65 -3 27.3 -3 29 C-4.65 28.67 -6.3 28.34 -8 28 C-7.67 26.35 -7.34 24.7 -7 23 C-5.68 22.67 -4.36 22.34 -3 22 C-3.33 21.01 -3.66 20.02 -4 19 C-5.32 19 -6.64 19 -8 19 C-8 17.68 -8 16.36 -8 15 C-7.01 15 -6.02 15 -5 15 C-5 14.34 -5 13.68 -5 13 C-6.32 13 -7.64 13 -9 13 C-9.33 13.66 -9.66 14.32 -10 15 C-12.31 15 -14.62 15 -17 15 C-17 13.35 -17 11.7 -17 10 C-15.02 10 -13.04 10 -11 10 C-10.67 9.01 -10.34 8.02 -10 7 C-9.67 6.01 -9.34 5.02 -9 4 C-6.69 4 -4.38 4 -2 4 C-1.34 2.68 -0.68 1.36 0 0 Z " fill="#0A1C2C" transform="translate(51,38)"/>
<path d="M0 0 C0 0.99 0 1.98 0 3 C2.64 3 5.28 3 8 3 C8 2.01 8 1.02 8 0 C10.3260857 -0.38063221 12.66055264 -0.71269945 15 -1 C16 0 16 0 16.1875 2.4375 C16 5 16 5 14 7 C10.875 6.625 10.875 6.625 8 6 C8 6.66 8 7.32 8 8 C8.99 8.33 9.98 8.66 11 9 C11.33 9.99 11.66 10.98 12 12 C10.5625 14.1875 10.5625 14.1875 9 16 C9.969375 16.391875 10.93875 16.78375 11.9375 17.1875 C15 19 15 19 16 21.5 C16 24 16 24 14 27 C11.5 27.375 11.5 27.375 9 27 C8.34 26.01 7.68 25.02 7 24 C6.175 23.67 5.35 23.34 4.5 23 C2 22 2 22 0 19 C0 17.68 0 16.36 0 15 C-1.134375 15.185625 -2.26875 15.37125 -3.4375 15.5625 C-5.2009375 15.7790625 -5.2009375 15.7790625 -7 16 C-8.99616554 14.00383446 -8.40983427 10.18298037 -8.5625 7.4375 C-8.60568359 6.72658203 -8.64886719 6.01566406 -8.69335938 5.28320312 C-8.79971777 3.52238088 -8.90038846 1.7612168 -9 0 C-5.93109813 -1.53445094 -3.29905734 -0.54984289 0 0 Z " fill="#291516" transform="translate(67,42)"/>
<path d="M0 0 C1.05058594 0.00902344 2.10117187 0.01804688 3.18359375 0.02734375 C3.96863281 0.03894531 4.75367188 0.05054688 5.5625 0.0625 C5.5625 0.7225 5.5625 1.3825 5.5625 2.0625 C6.18125 2.26875 6.8 2.475 7.4375 2.6875 C10.57236138 4.71593971 10.68431935 6.42432303 11.5625 10.0625 C11.79561957 13.85849996 11.75126297 17.63624595 11.6875 21.4375 C11.67847656 22.45972656 11.66945313 23.48195313 11.66015625 24.53515625 C11.6367043 27.04451522 11.60388355 29.55338336 11.5625 32.0625 C9.9125 32.0625 8.2625 32.0625 6.5625 32.0625 C6.0675 19.6875 6.0675 19.6875 5.5625 7.0625 C1.2725 6.4025 -3.0175 5.7425 -7.4375 5.0625 C-7.4375 13.9725 -7.4375 22.8825 -7.4375 32.0625 C-9.4175 32.0625 -11.3975 32.0625 -13.4375 32.0625 C-13.4375 21.8325 -13.4375 11.6025 -13.4375 1.0625 C-8.67702117 0.3824316 -4.71046095 -0.05292653 0 0 Z " fill="#E7EBED" transform="translate(315.4375,43.9375)"/>
<path d="M0 0 C1.98 0 3.96 0 6 0 C6 2.97 6 5.94 6 9 C9.96 9 13.92 9 18 9 C18 10.65 18 12.3 18 14 C17 15 17 15 14.49609375 15.09765625 C11.6640625 15.06510417 8.83203125 15.03255208 6 15 C6.33 21.93 6.66 28.86 7 36 C10.63 36 14.26 36 18 36 C18 37.32 18 38.64 18 40 C15.4712083 41.26439585 13.51141971 41.31139804 10.6875 41.4375 C9.27017578 41.52837891 9.27017578 41.52837891 7.82421875 41.62109375 C4.46152867 40.88158099 3.15288902 39.48646977 1.04710388 36.82380676 C-0.78427293 33.63398245 -0.6133333 30.31758695 -0.48828125 26.7578125 C-0.48120651 25.98944061 -0.47413177 25.22106873 -0.46684265 24.42941284 C-0.43902296 21.99358583 -0.37631602 19.56012296 -0.3125 17.125 C-0.2874007 15.46617922 -0.26459039 13.80732212 -0.24414062 12.1484375 C-0.18923818 8.09805802 -0.10305907 4.04942873 0 0 Z " fill="#E0E4E7" transform="translate(178,35)"/>
<path d="M0 0 C6.75 1.625 6.75 1.625 9 5 C9.825 5.33 10.65 5.66 11.5 6 C14 7 14 7 16 10 C16 10.99 16 11.98 16 13 C16.99 13 17.98 13 19 13 C18.67 12.34 18.34 11.68 18 11 C17.95977609 8.6670134 17.95679753 6.33293334 18 4 C20.375 3.375 20.375 3.375 23 3 C23.66 3.66 24.32 4.32 25 5 C24.67028521 8.29714793 24.3773161 9.6226839 22 12 C22.515625 12.391875 23.03125 12.78375 23.5625 13.1875 C24.036875 13.785625 24.51125 14.38375 25 15 C24.6875 17.6875 24.6875 17.6875 24 20 C23.030625 20.268125 22.06125 20.53625 21.0625 20.8125 C20.051875 21.204375 19.04125 21.59625 18 22 C17.67 22.99 17.34 23.98 17 25 C16.34 24.67 15.68 24.34 15 24 C15 22.35 15 20.7 15 19 C10.71 19 6.42 19 2 19 C1.67 17.68 1.34 16.36 1 15 C0.62875 13.9275 0.2575 12.855 -0.125 11.75 C-1.15988147 7.31479372 -0.78043549 4.44848228 0 0 Z " fill="#0F2332" transform="translate(67,63)"/>
<path d="M0 0 C1.98 0.66 3.96 1.32 6 2 C6.33 4.31 6.66 6.62 7 9 C7.99 9.33 8.98 9.66 10 10 C10 9.01 10 8.02 10 7 C11.32 7 12.64 7 14 7 C13.67 7.99 13.34 8.98 13 10 C10.9375 10.6875 10.9375 10.6875 9 11 C9 11.99 9 12.98 9 14 C10.98 14 12.96 14 15 14 C16.4783226 16.95664519 16.06032783 19.74229737 16 23 C12.86650268 24.04449911 12.01031744 23.93423645 9 23 C8.690625 24.2065625 8.690625 24.2065625 8.375 25.4375 C7.694375 26.7059375 7.694375 26.7059375 7 28 C3.875 28.8125 3.875 28.8125 1 29 C1 28.34 1 27.68 1 27 C0.34 27 -0.32 27 -1 27 C-1.33 27.99 -1.66 28.98 -2 30 C-2.33 28.68 -2.66 27.36 -3 26 C-4.32 25.67 -5.64 25.34 -7 25 C-7.33 22.36 -7.66 19.72 -8 17 C-6.68 16.67 -5.36 16.34 -4 16 C-3.34 17.32 -2.68 18.64 -2 20 C-0.68 19.67 0.64 19.34 2 19 C1.34 18.01 0.68 17.02 0 16 C0 13.66666667 0 11.33333333 0 9 C-0.37125 8.113125 -0.7425 7.22625 -1.125 6.3125 C-2 4 -2 4 -1.125 1.6875 C-0.75375 1.130625 -0.3825 0.57375 0 0 Z " fill="#381A17" transform="translate(85,16)"/>
<path d="M0 0 C1.63001953 0.01353516 1.63001953 0.01353516 3.29296875 0.02734375 C4.12441406 0.03894531 4.95585937 0.05054688 5.8125 0.0625 C5.8125 1.7125 5.8125 3.3625 5.8125 5.0625 C-0.1275 5.5575 -0.1275 5.5575 -6.1875 6.0625 C-6.1875 7.7125 -6.1875 9.3625 -6.1875 11.0625 C-5.34445312 11.47242188 -4.50140625 11.88234375 -3.6328125 12.3046875 C-1.98925781 13.11292969 -1.98925781 13.11292969 -0.3125 13.9375 C1.32332031 14.73800781 1.32332031 14.73800781 2.9921875 15.5546875 C5.8125 17.0625 5.8125 17.0625 7.8125 19.0625 C8.50017908 26.16851719 8.50017908 26.16851719 5.9375 29.5 C2.0828098 32.33433103 -0.47511163 32.19721493 -5.25 32.1875 C-6.51972656 32.19007812 -7.78945313 32.19265625 -9.09765625 32.1953125 C-12.1875 32.0625 -12.1875 32.0625 -13.1875 31.0625 C-13.22813832 29.39632885 -13.230221 27.72861905 -13.1875 26.0625 C-12.62546875 26.22621094 -12.0634375 26.38992187 -11.484375 26.55859375 C-9.05690944 27.09114997 -6.91860319 27.16148681 -4.4375 27.125 C-3.23867188 27.11146484 -3.23867188 27.11146484 -2.015625 27.09765625 C-1.41234375 27.08605469 -0.8090625 27.07445313 -0.1875 27.0625 C0.4725 25.0825 1.1325 23.1025 1.8125 21.0625 C-0.81157011 19.64112869 -3.4316895 18.63731735 -6.25 17.6875 C-8.72955004 16.75478285 -10.1701028 16.07772255 -12.1875 14.3125 C-13.64913259 11.02382668 -13.63165532 8.61574253 -13.1875 5.0625 C-9.46242022 0.18136097 -5.86092646 -0.06302071 0 0 Z " fill="#E7ECEF" transform="translate(272.1875,43.9375)"/>
<path d="M0 0 C1.97265625 0.4609375 1.97265625 0.4609375 4.97265625 2.2109375 C8.02254234 7.1670024 7.78641336 11.79593606 6.97265625 17.4609375 C5.53515625 20.7109375 5.53515625 20.7109375 2.97265625 22.4609375 C-0.11741484 23.01871206 -2.95405792 23.14011669 -6.02734375 22.4609375 C-8.48528808 20.53489456 -9.01402727 19.50088694 -10.02734375 16.4609375 C-10.50732543 11.37785286 -10.72579176 6.94513951 -8.52734375 2.2734375 C-5.6634455 0.19711127 -3.53992215 -0.27790043 0 0 Z " fill="#0D1E2E" transform="translate(351.02734375,48.5390625)"/>
<path d="M0 0 C0.5625 1.9375 0.5625 1.9375 1 4 C-1.17769714 6.17769714 -6.1675794 5.32272265 -9.1171875 5.42578125 C-12.04361403 5.75418871 -12.04361403 5.75418871 -13.859375 7.66796875 C-15.29242956 10.59787824 -15.39940991 12.74534491 -15.375 16 C-15.38273438 17.03125 -15.39046875 18.0625 -15.3984375 19.125 C-14.93970574 22.43506448 -14.50871048 23.78612766 -12 26 C-8.81403338 26.70124774 -8.81403338 26.70124774 -5.3125 26.75 C-4.13300781 26.80671875 -2.95351562 26.8634375 -1.73828125 26.921875 C-0.38283203 26.96054688 -0.38283203 26.96054688 1 27 C1 28.65 1 30.3 1 32 C-1.22855574 32.0814222 -3.45797655 32.13938079 -5.6875 32.1875 C-7.54955078 32.23970703 -7.54955078 32.23970703 -9.44921875 32.29296875 C-13.25172041 31.97923099 -15.00410128 31.30042223 -18 29 C-22.17464412 23.47141725 -22.89209202 18.83937213 -22 12 C-20.66880777 7.48873746 -18.88217611 3.82447931 -15.09375 0.8671875 C-10.39054483 -1.08078181 -4.98445958 -0.33279033 0 0 Z " fill="#E6EBED" transform="translate(222,44)"/>
<path d="M0 0 C12.20760475 -0.49323656 12.20760475 -0.49323656 15.88671875 1.796875 C18 4 18 4 18.625 7.5 C18 11 18 11 15.88671875 13.203125 C10.83684177 16.3464855 5.81899824 15.23511104 0 15 C0 10.05 0 5.1 0 0 Z " fill="#1B3444" transform="translate(131,56)"/>
<path d="M0 0 C0.99 0 1.98 0 3 0 C3.433125 0.66 3.86625 1.32 4.3125 2 C5.1478125 2.99 5.1478125 2.99 6 4 C9.12586875 4.33397787 9.12586875 4.33397787 12 4 C12 5.32 12 6.64 12 8 C15.08809695 9.76462683 16.23312136 10 20 10 C20.33 11.65 20.66 13.3 21 15 C23.475 15.495 23.475 15.495 26 16 C25.34 16.66 24.68 17.32 24 18 C22.68 18 21.36 18 20 18 C19.34 17.01 18.68 16.02 18 15 C17.01 15 16.02 15 15 15 C15 17.64 15 20.28 15 23 C13.68 22.67 12.36 22.34 11 22 C11 21.01 11 20.02 11 19 C8.69 19 6.38 19 4 19 C0.49056604 10.81132075 0.49056604 10.81132075 1.5625 7 C2.17487127 4.20058846 1.19606286 2.532839 0 0 Z " fill="#071D2E" transform="translate(63,18)"/>
<path d="M0 0 C0.33 0 0.66 0 1 0 C1.226875 1.093125 1.45375 2.18625 1.6875 3.3125 C2.65076836 7.05891763 2.65076836 7.05891763 5.3125 8.8125 C7.85464365 9.93577278 10.41514392 10.97966207 13 12 C13.99 12.66 14.98 13.32 16 14 C16.3125 16.5 16.3125 16.5 16 19 C14 21 14 21 11.9765625 21.265625 C10.81253906 21.25789063 10.81253906 21.25789063 9.625 21.25 C8.85414063 21.25515625 8.08328125 21.2603125 7.2890625 21.265625 C4.8007639 20.97688045 3.15765802 20.24139229 1 19 C1 20.65 1 22.3 1 24 C0.67 24 0.34 24 0 24 C-2.4420792 17.16217825 -2.62022758 10.20568193 -3 3 C-2.01 2.67 -1.02 2.34 0 2 C0 1.34 0 0.68 0 0 Z " fill="#112A3B" transform="translate(258,51)"/>
<path d="M0 0 C10.7771261 -0.43108504 10.7771261 -0.43108504 15 3 C15.66 3.66 16.32 4.32 17 5 C16.92491178 8.52914653 16.65310265 10.34689735 14.125 12.875 C9.36520943 14.58852461 5.04203165 14.18224211 0 14 C0 9.38 0 4.76 0 0 Z " fill="#2D4453" transform="translate(131,38)"/>
<path d="M0 0 C1.98 0 3.96 0 6 0 C6 10.56 6 21.12 6 32 C4.02 32 2.04 32 0 32 C0 21.44 0 10.88 0 0 Z " fill="#E0E4E8" transform="translate(287,44)"/>
<path d="M0 0 C1.98 0 3.96 0 6 0 C6 10.56 6 21.12 6 32 C4.02 32 2.04 32 0 32 C0 21.44 0 10.88 0 0 Z " fill="#DCE2E5" transform="translate(163,44)"/>
<path d="M0 0 C0.66 0 1.32 0 2 0 C2 1.32 2 2.64 2 4 C2.66 4 3.32 4 4 4 C4.33 5.65 4.66 7.3 5 9 C7.31 9 9.62 9 12 9 C12.66 10.98 13.32 12.96 14 15 C13.34 15 12.68 15 12 15 C11.7804691 20.4882724 12.01782888 24.79680082 14 30 C14 30.99 14 31.98 14 33 C16.64 33 19.28 33 22 33 C21.67 34.65 21.34 36.3 21 38 C17.535 38.495 17.535 38.495 14 39 C13.34 40.98 12.68 42.96 12 45 C10.68 44.34 9.36 43.68 8 43 C8.350625 42.505 8.70125 42.01 9.0625 41.5 C10.44972255 37.80073987 9.5736243 34.88789806 9 31 C9.33 30.67 9.66 30.34 10 30 C10.1613058 26.93518979 9.98150241 24.94450722 9 22 C8.01 21.67 7.02 21.34 6 21 C6.99 21 7.98 21 9 21 C9.33 19.02 9.66 17.04 10 15 C9.21625 14.9175 8.4325 14.835 7.625 14.75 C5 14 5 14 3.75 12.25 C2.9495218 9.84856541 2.41595079 7.49570473 2 5 C1.34 5 0.68 5 0 5 C0 3.35 0 1.7 0 0 Z " fill="#1B141B" transform="translate(55,48)"/>
<path d="M0 0 C2.33944736 0.28730055 4.6739143 0.61936779 7 1 C7 1.99 7 2.98 7 4 C9.64 4 12.28 4 15 4 C15 3.01 15 2.02 15 1 C17.3260857 0.61936779 19.66055264 0.28730055 22 0 C23 1 23 1 23.1875 3.4375 C23 6 23 6 21 8 C17.875 7.625 17.875 7.625 15 7 C14.855625 7.639375 14.71125 8.27875 14.5625 8.9375 C14 11 14 11 13 12 C11.00041636 12.04080783 8.99954746 12.04254356 7 12 C7 10.02 7 8.04 7 6 C5.2984375 6.2784375 5.2984375 6.2784375 3.5625 6.5625 C1.7990625 6.7790625 1.7990625 6.7790625 0 7 C-1 6 -1 6 -1.125 3.5 C-1 1 -1 1 0 0 Z " fill="#3C1E1A" transform="translate(60,41)"/>
<path d="M0 0 C1.67542976 0.28604898 3.34385343 0.61781233 5 1 C5.125 3.375 5.125 3.375 5 6 C2.64046906 8.35953094 1.22104383 8.49141413 -2 9 C-2.0721875 9.62519531 -2.144375 10.25039062 -2.21875 10.89453125 C-3 13 -3 13 -5.03125 14.01171875 C-5.8459375 14.23472656 -6.660625 14.45773438 -7.5 14.6875 C-10.51839757 15.36829043 -10.51839757 15.36829043 -13 17 C-15.5 17.125 -15.5 17.125 -18 17 C-19 16 -19 16 -19.0625 13.4375 C-19.041875 12.633125 -19.02125 11.82875 -19 11 C-16.6875 10.375 -16.6875 10.375 -14 10 C-13.01 10.66 -12.02 11.32 -11 12 C-11.04125 11.21625 -11.0825 10.4325 -11.125 9.625 C-11 7 -11 7 -9 5 C-5.375 4.875 -5.375 4.875 -2 5 C-1.855625 4.360625 -1.71125 3.72125 -1.5625 3.0625 C-1 1 -1 1 0 0 Z " fill="#361E1D" transform="translate(78,81)"/>
<path d="M0 0 C2.31 0 4.62 0 7 0 C9.03812635 8.06828531 10.13003304 15.45084125 6 23 C5.67 22.34 5.34 21.68 5 21 C4.01 20.34 3.02 19.68 2 19 C2.66 18.67 3.32 18.34 4 18 C4.33 17.01 4.66 16.02 5 15 C2.03 14.505 2.03 14.505 -1 14 C-1 12.35 -1 10.7 -1 9 C0.65 9 2.3 9 4 9 C4.33 7.68 4.66 6.36 5 5 C2.69 4.67 0.38 4.34 -2 4 C-2 5.65 -2 7.3 -2 9 C-3.65 8.67 -5.3 8.34 -7 8 C-6.67 6.35 -6.34 4.7 -6 3 C-5.195625 2.87625 -4.39125 2.7525 -3.5625 2.625 C-2.716875 2.41875 -1.87125 2.2125 -1 2 C-0.67 1.34 -0.34 0.68 0 0 Z " fill="#131824" transform="translate(50,58)"/>
<path d="M0 0 C0.96839762 3.76599074 0.75321691 6.23391544 0 10 C0.185625 10.886875 0.37125 11.77375 0.5625 12.6875 C0.706875 13.450625 0.85125 14.21375 1 15 C0.34 15.66 -0.32 16.32 -1 17 C-3.26274788 16.64644564 -4.95088852 16.02455574 -7 15 C-7 13.68 -7 12.36 -7 11 C-8.4540625 11.0309375 -8.4540625 11.0309375 -9.9375 11.0625 C-13 11 -13 11 -14 10 C-14.04063832 8.33382885 -14.042721 6.66611905 -14 5 C-11.69 5 -9.38 5 -7 5 C-7 3.68 -7 2.36 -7 1 C-4.53721199 -0.231394 -2.7204945 -0.07159196 0 0 Z " fill="#482622" transform="translate(65,21)"/>
<path d="M0 0 C0.66 0 1.32 0 2 0 C3.93000886 5.6751451 4.30568097 10.71571625 4.25 16.6875 C4.25773437 17.52861328 4.26546875 18.36972656 4.2734375 19.23632812 C4.27085937 20.04908203 4.26828125 20.86183594 4.265625 21.69921875 C4.26336914 22.42971436 4.26111328 23.16020996 4.25878906 23.9128418 C3.96399851 26.29035545 3.17640609 27.92902294 2 30 C-0.22889496 30.05428973 -2.45817471 30.09292338 -4.6875 30.125 C-5.92886719 30.14820312 -7.17023438 30.17140625 -8.44921875 30.1953125 C-11.81237857 30.01032021 -13.9985587 29.45767895 -17 28 C-17 27.67 -17 27.34 -17 27 C-11.72 26.34 -6.44 25.68 -1 25 C-0.67 16.75 -0.34 8.5 0 0 Z " fill="#020F1F" transform="translate(252,50)"/>
<path d="M0 0 C1.99789249 2.99683874 2.74756206 4.4658688 3 8 C1.20018717 12.09957367 -1.29794007 14.53196005 -5 17 C-11.77588885 19.32316189 -20.06298217 18.20643788 -27 17 C-27 16.34 -27 15.68 -27 15 C-26.01 14.90203125 -25.02 14.8040625 -24 14.703125 C-16.70103669 13.90598436 -10.25821229 13.13042011 -4 9 C-3.67 8.01 -3.34 7.02 -3 6 C-2.34 6 -1.68 6 -1 6 C-0.67 4.02 -0.34 2.04 0 0 Z " fill="#071323" transform="translate(157,62)"/>
<path d="M0 0 C2.475 0.495 2.475 0.495 5 1 C5 1.66 5 2.32 5 3 C8.465 2.505 8.465 2.505 12 2 C12 2.66 12 3.32 12 4 C10.02 4.99 10.02 4.99 8 6 C9.70892499 9.31460705 9.70892499 9.31460705 13.125 9.6875 C14.07375 9.790625 15.0225 9.89375 16 10 C15.67 11.32 15.34 12.64 15 14 C15 13.01 15 12.02 15 11 C13.02 11.66 11.04 12.32 9 13 C9.33 14.32 9.66 15.64 10 17 C11.65 17 13.3 17 15 17 C13.02 17.99 13.02 17.99 11 19 C11 21.97 11 24.94 11 28 C10.01 28 9.02 28 8 28 C6.375 24.6875 6.375 24.6875 5 21 C5.66 20.01 6.32 19.02 7 18 C7.08024658 15.40110217 7.08024658 15.40110217 6 13 C3.52363988 11.62533375 3.52363988 11.62533375 1 11 C1 10.01 1 9.02 1 8 C1.66 8 2.32 8 3 8 C2.65555119 5.52733235 2.65555119 5.52733235 2 3 C1.34 2.67 0.68 2.34 0 2 C0 1.34 0 0.68 0 0 Z " fill="#102331" transform="translate(75,48)"/>
<path d="M0 0 C2.875 0.0625 2.875 0.0625 6 1 C7.38576923 2.62332967 8.72641268 4.28724465 10 6 C10.99 6 11.98 6 13 6 C12.67 8.31 12.34 10.62 12 13 C11.401875 13.103125 10.80375 13.20625 10.1875 13.3125 C7.90759282 13.82969347 7.90759282 13.82969347 6.5 15.625 C6.005 16.07875 5.51 16.5325 5 17 C2.8125 16.6875 2.8125 16.6875 1 16 C1 14.35 1 12.7 1 11 C0.01 10.67 -0.98 10.34 -2 10 C-2 9.34 -2 8.68 -2 8 C-0.35 8 1.3 8 3 8 C3 8.99 3 9.98 3 11 C4.65 11 6.3 11 8 11 C7.67 9.68 7.34 8.36 7 7 C4.36 7 1.72 7 -1 7 C-1.625 4.625 -1.625 4.625 -2 2 C-1.34 1.34 -0.68 0.68 0 0 Z " fill="#0A1F31" transform="translate(95,71)"/>
<path d="M0 0 C1.67542976 0.28604898 3.34385343 0.61781233 5 1 C5.6875 2.75 5.6875 2.75 6 5 C4.5625 7.25 4.5625 7.25 3 9 C3.515625 9.391875 4.03125 9.78375 4.5625 10.1875 C5.036875 10.785625 5.51125 11.38375 6 12 C5.6875 14.6875 5.6875 14.6875 5 17 C3.33388095 17.042721 1.66617115 17.04063832 0 17 C-1 16 -1 16 -1.0625 13.4375 C-1.041875 12.633125 -1.02125 11.82875 -1 11 C-3.31 11.33 -5.62 11.66 -8 12 C-9.125 7.25 -9.125 7.25 -8 5 C-6.68 5 -5.36 5 -4 5 C-3.67 6.65 -3.34 8.3 -3 10 C-2.01 10 -1.02 10 0 10 C-0.33 9.34 -0.66 8.68 -1 8 C-1.125 4.4375 -1.125 4.4375 -1 1 C-0.67 0.67 -0.34 0.34 0 0 Z " fill="#2F2122" transform="translate(86,66)"/>
<path d="M0 0 C2.97 0.495 2.97 0.495 6 1 C6.12375 1.639375 6.2475 2.27875 6.375 2.9375 C6.58125 3.618125 6.7875 4.29875 7 5 C7.66 5.33 8.32 5.66 9 6 C8.67 7.32 8.34 8.64 8 10 C7.38125 9.835 6.7625 9.67 6.125 9.5 C4.03936614 8.92365356 4.03936614 8.92365356 2 9 C1.67 10.65 1.34 12.3 1 14 C1.99 14 2.98 14 4 14 C4 14.66 4 15.32 4 16 C2.35 15.67 0.7 15.34 -1 15 C-1 13.35 -1 11.7 -1 10 C-3.64 10 -6.28 10 -9 10 C-8.67 8.35 -8.34 6.7 -8 5 C-6.68 5 -5.36 5 -4 5 C-3.67 4.01 -3.34 3.02 -3 2 C-2.34 2 -1.68 2 -1 2 C-0.67 1.34 -0.34 0.68 0 0 Z " fill="#0C1E2D" transform="translate(42,72)"/>
<path d="M0 0 C1 1 1 1 1.09765625 3.28515625 C1.08605469 4.20167969 1.07445312 5.11820312 1.0625 6.0625 C1.05347656 6.98160156 1.04445312 7.90070313 1.03515625 8.84765625 C1.02355469 9.55792969 1.01195312 10.26820312 1 11 C-0.60332791 11.08121924 -2.20784026 11.13929134 -3.8125 11.1875 C-4.70582031 11.22230469 -5.59914062 11.25710937 -6.51953125 11.29296875 C-9 11 -9 11 -10.796875 9.64453125 C-12 8 -12 8 -12.4375 5.5 C-12 3 -12 3 -10.5 1.1875 C-6.83894631 -0.5515005 -4.03601603 -0.26465679 0 0 Z " fill="#2A3644" transform="translate(245,61)"/>
<path d="M0 0 C1.0625 1.875 1.0625 1.875 2 4 C1.67 4.66 1.34 5.32 1 6 C-0.8125 6.37890625 -0.8125 6.37890625 -3 6.5625 C-5.78932058 6.62665408 -5.78932058 6.62665408 -8 8 C-8.07252184 10.78302557 -7.99624685 13.55280535 -7.9375 16.3359375 C-8 19 -8 19 -9 22 C-10.32 21.67 -11.64 21.34 -13 21 C-13 14.73 -13 8.46 -13 2 C-10.20052083 1.77213542 -7.40104167 1.54427083 -4.6015625 1.31640625 C-2.02072387 1.15034374 -2.02072387 1.15034374 0 0 Z " fill="#061324" transform="translate(197,48)"/>
<path d="M0 0 C1.98 0.66 3.96 1.32 6 2 C6.33 4.31 6.66 6.62 7 9 C7.99 9.33 8.98 9.66 10 10 C10 9.01 10 8.02 10 7 C11.32 7 12.64 7 14 7 C13.67 7.99 13.34 8.98 13 10 C10.9375 10.6875 10.9375 10.6875 9 11 C8.8453125 11.928125 8.8453125 11.928125 8.6875 12.875 C8 15 8 15 5 17 C2.3125 16.625 2.3125 16.625 0 16 C0.04125 14.948125 0.0825 13.89625 0.125 12.8125 C0.22957839 9.10113253 0.22957839 9.10113253 -1.125 6.3125 C-2 4 -2 4 -1.125 1.6875 C-0.75375 1.130625 -0.3825 0.57375 0 0 Z " fill="#0E1E2B" transform="translate(85,16)"/>
<path d="M0 0 C0.99 0.33 1.98 0.66 3 1 C3 2.65 3 4.3 3 6 C0.36 6.33 -2.28 6.66 -5 7 C-5 7.99 -5 8.98 -5 10 C-5.66 10 -6.32 10 -7 10 C-7 10.66 -7 11.32 -7 12 C-7.99 12 -8.98 12 -10 12 C-10.33 12.99 -10.66 13.98 -11 15 C-11 14.34 -11 13.68 -11 13 C-11.9075 13.33 -12.815 13.66 -13.75 14 C-17 15 -17 15 -21 15 C-19.66666667 12.33333333 -18.33333333 9.66666667 -17 7 C-16.34 7 -15.68 7 -15 7 C-15 7.66 -15 8.32 -15 9 C-13.02 8.34 -11.04 7.68 -9 7 C-8.67 5.35 -8.34 3.7 -8 2 C-5.69 2.33 -3.38 2.66 -1 3 C-0.67 2.01 -0.34 1.02 0 0 Z " fill="#071524" transform="translate(101,36)"/>
<path d="M0 0 C1.16595703 0.0628418 1.16595703 0.0628418 2.35546875 0.12695312 C3.54462891 0.16079102 3.54462891 0.16079102 4.7578125 0.1953125 C6.70784495 0.25404842 8.65690187 0.34372659 10.60546875 0.43945312 C10.60546875 1.75945313 10.60546875 3.07945313 10.60546875 4.43945312 C7.60546875 5.43945312 7.60546875 5.43945312 5.91796875 4.93945312 C2.36181867 4.17055581 -0.80847515 4.90154471 -4.39453125 5.43945312 C-4.68457031 6.50486328 -4.68457031 6.50486328 -4.98046875 7.59179688 C-5.24085938 8.51089844 -5.50125 9.43 -5.76953125 10.37695312 C-6.02476562 11.29347656 -6.28 12.21 -6.54296875 13.15429688 C-7.39453125 15.43945312 -7.39453125 15.43945312 -9.39453125 16.43945312 C-10.58370255 12.72329281 -10.7347966 9.31847811 -10.39453125 5.43945312 C-7.6685843 0.43585819 -5.32652269 -0.11381459 0 0 Z " fill="#0D1827" transform="translate(216.39453125,48.560546875)"/>
<path d="M0 0 C1.32 0.33 2.64 0.66 4 1 C4 10.9 4 20.8 4 31 C3.67 31 3.34 31 3 31 C2.93941406 29.72382812 2.87882813 28.44765625 2.81640625 27.1328125 C2.73200432 25.46352984 2.64735614 23.79425963 2.5625 22.125 C2.52318359 21.28324219 2.48386719 20.44148438 2.44335938 19.57421875 C2.40146484 18.76855469 2.35957031 17.96289062 2.31640625 17.1328125 C2.27974854 16.38918457 2.24309082 15.64555664 2.20532227 14.87939453 C2.10044135 12.91135688 2.10044135 12.91135688 1 11 C0.34 11.66 -0.32 12.32 -1 13 C-1.99 13.33 -2.98 13.66 -4 14 C-4 23.24 -4 32.48 -4 42 C-4.33 42 -4.66 42 -5 42 C-5 31.44 -5 20.88 -5 10 C-4.01 10.33 -3.02 10.66 -2 11 C-1.93941406 10.28972656 -1.87882813 9.57945313 -1.81640625 8.84765625 C-1.69072266 7.46900391 -1.69072266 7.46900391 -1.5625 6.0625 C-1.48128906 5.14597656 -1.40007812 4.22945312 -1.31640625 3.28515625 C-1 1 -1 1 0 0 Z " fill="#152B3A" transform="translate(174,34)"/>
<path d="M0 0 C1.65 0 3.3 0 5 0 C5 1.98 5 3.96 5 6 C4.01 6.33 3.02 6.66 2 7 C2.66 7.33 3.32 7.66 4 8 C4.6875 10.5 4.6875 10.5 5 13 C4 14 4 14 1.4375 14.0625 C0.633125 14.041875 -0.17125 14.02125 -1 14 C-1 12.35 -1 10.7 -1 9 C-1.94875 9.020625 -2.8975 9.04125 -3.875 9.0625 C-7 9 -7 9 -9 8 C-9 6.68 -9 5.36 -9 4 C-6.69 4 -4.38 4 -2 4 C-1.34 2.68 -0.68 1.36 0 0 Z " fill="#422D2C" transform="translate(51,38)"/>
<path d="M0 0 C1.9375 0.375 1.9375 0.375 4 1 C4.33 1.66 4.66 2.32 5 3 C6.423125 3.4021875 6.423125 3.4021875 7.875 3.8125 C11 5 11 5 12.875 7.125 C14.37819949 10.9665098 14.20895809 13.89049086 14 18 C13.34 18 12.68 18 12 18 C11.7525 17.360625 11.505 16.72125 11.25 16.0625 C10.20668205 13.83323057 10.20668205 13.83323057 8.0625 13.375 C7.381875 13.25125 6.70125 13.1275 6 13 C5.01 12.34 4.02 11.68 3 11 C3 9.68 3 8.36 3 7 C2.34 6.67 1.68 6.34 1 6 C0.375 2.9375 0.375 2.9375 0 0 Z " fill="#2C181A" transform="translate(72,15)"/>
<path d="M0 0 C0.66 0.99 1.32 1.98 2 3 C5.06556598 3.73343428 5.06556598 3.73343428 8 4 C8.33 4.99 8.66 5.98 9 7 C9.66 7.66 10.32 8.32 11 9 C10.34 9 9.68 9 9 9 C9 9.99 9 10.98 9 12 C6.36 12 3.72 12 1 12 C1 11.01 1 10.02 1 9 C-1.64 9 -4.28 9 -7 9 C-7 7.02 -7 5.04 -7 3 C-4.525 3.495 -4.525 3.495 -2 4 C-1.34 2.68 -0.68 1.36 0 0 Z " fill="#221215" transform="translate(66,33)"/>
<path d="M0 0 C0.99 0 1.98 0 3 0 C3.33 1.32 3.66 2.64 4 4 C6.31 4 8.62 4 11 4 C11.12375 5.175625 11.12375 5.175625 11.25 6.375 C11.72806339 9.14749104 11.72806339 9.14749104 14.0625 10.3125 C14.701875 10.539375 15.34125 10.76625 16 11 C14.35 11.33 12.7 11.66 11 12 C10.67 12.99 10.34 13.98 10 15 C9.34 14.67 8.68 14.34 8 14 C8 12.35 8 10.7 8 9 C3.71 9 -0.58 9 -5 9 C-5.33 7.68 -5.66 6.36 -6 5 C-5.195625 4.731875 -4.39125 4.46375 -3.5625 4.1875 C-2.716875 3.795625 -1.87125 3.40375 -1 3 C-0.67 2.01 -0.34 1.02 0 0 Z " fill="#171D28" transform="translate(74,73)"/>
<path d="M0 0 C0.99 0 1.98 0 3 0 C2.99214478 1.11242065 2.99214478 1.11242065 2.98413086 2.24731445 C2.96336386 5.60236771 2.9503407 8.95740744 2.9375 12.3125 C2.92912109 13.47974609 2.92074219 14.64699219 2.91210938 15.84960938 C2.90888672 16.96787109 2.90566406 18.08613281 2.90234375 19.23828125 C2.89710693 20.26993408 2.89187012 21.30158691 2.88647461 22.36450195 C2.88365 25.10946274 2.88365 25.10946274 4 28 C3.67 28.99 3.34 29.98 3 31 C1.35 31 -0.3 31 -2 31 C-2.33 30.01 -2.66 29.02 -3 28 C-2.01 28 -1.02 28 0 28 C0 18.76 0 9.52 0 0 Z " fill="#010E1E" transform="translate(294,48)"/>
<path d="M0 0 C0.08980046 3.23281653 -0.22053142 5.88212567 -1 9 C-1.03786901 10.66623639 -1.04627845 12.33397597 -1 14 C-1.99 14 -2.98 14 -4 14 C-4.66 12.35 -5.32 10.7 -6 9 C-8.64 9.33 -11.28 9.66 -14 10 C-14 8.35 -14 6.7 -14 5 C-11.03 5.495 -11.03 5.495 -8 6 C-6.7018576 3.7763932 -6.7018576 3.7763932 -7 0 C-3.86650268 -1.04449911 -3.01031744 -0.93423645 0 0 Z " fill="#28262D" transform="translate(48,22)"/>
<path d="M0 0 C4.62 0 9.24 0 14 0 C14.66 1.32 15.32 2.64 16 4 C13.75487738 5.12256131 12.48543351 5.13413762 10 5.125 C8.948125 5.12886719 8.948125 5.12886719 7.875 5.1328125 C6 5 6 5 4 4 C4 6.97 4 9.94 4 13 C2.68 13 1.36 13 0 13 C0 8.71 0 4.42 0 0 Z " fill="#010E1E" transform="translate(132,57)"/>
<path d="M0 0 C0.99 0 1.98 0 3 0 C3 9.9 3 19.8 3 30 C1.35 30.33 -0.3 30.66 -2 31 C-1.84152588 30.46987305 -1.68305176 29.93974609 -1.51977539 29.39355469 C-0.88524553 26.47155808 -0.78228868 23.69217153 -0.68359375 20.703125 C-0.64169922 19.49785156 -0.59980469 18.29257813 -0.55664062 17.05078125 C-0.51732422 15.79652344 -0.47800781 14.54226562 -0.4375 13.25 C-0.39431641 11.98027344 -0.35113281 10.71054687 -0.30664062 9.40234375 C-0.20060278 6.26833635 -0.09853942 3.13425067 0 0 Z " fill="#010E20" transform="translate(170,49)"/>
<path d="M0 0 C11.53557692 -0.37211538 11.53557692 -0.37211538 13.88671875 1.51171875 C14.25410156 2.00285156 14.62148437 2.49398437 15 3 C14.67 3.99 14.34 4.98 14 6 C10.7 5.67 7.4 5.34 4 5 C4 7.31 4 9.62 4 12 C2.68 12 1.36 12 0 12 C0 8.04 0 4.08 0 0 Z " fill="#081221" transform="translate(132,39)"/>
<path d="M0 0 C0.99 0.33 1.98 0.66 3 1 C3 2.32 3 3.64 3 5 C3.66 5.33 4.32 5.66 5 6 C4.67 7.65 4.34 9.3 4 11 C6.64 11 9.28 11 12 11 C12.33 12.65 12.66 14.3 13 16 C11.35 16 9.7 16 8 16 C8 15.01 8 14.02 8 13 C6.35 13 4.7 13 3 13 C3.515625 13.4125 4.03125 13.825 4.5625 14.25 C5.036875 14.8275 5.51125 15.405 6 16 C5.6875 18.1875 5.6875 18.1875 5 20 C3.68 20.33 2.36 20.66 1 21 C1 20.34 1 19.68 1 19 C0.34 18.67 -0.32 18.34 -1 18 C-0.34 17.34 0.32 16.68 1 16 C0.77256695 13.04337034 0.38764062 11.44966312 -1.5625 9.1875 C-2.036875 8.795625 -2.51125 8.40375 -3 8 C-1.68 7.67 -0.36 7.34 1 7 C1.15149298 3.37114676 1.15149298 3.37114676 0 0 Z " fill="#2C1415" transform="translate(90,66)"/>
<path d="M0 0 C0.625 1.875 0.625 1.875 1 4 C-1.92577938 6.92577938 -4.78336157 6.42659177 -8.78515625 6.65625 C-9.51605469 6.7696875 -10.24695313 6.883125 -11 7 C-11.33 7.66 -11.66 8.32 -12 9 C-13.65 8.67 -15.3 8.34 -17 8 C-17.042721 6.33388095 -17.04063832 4.66617115 -17 3 C-15.15119504 1.15119504 -12.11435121 1.65386718 -9.625 1.5 C-6.14907092 1.28419953 -3.3073524 1.1024508 0 0 Z " fill="#0B1727" transform="translate(282,47)"/>
<path d="M0 0 C2.32213491 2.2495682 3.86681887 3.99681745 4.30078125 7.265625 C4.33017173 13.33965655 4.33017173 13.33965655 3 16 C2.77141886 18.0374763 2.58975722 20.08040303 2.4375 22.125 C2.35371094 23.22070312 2.26992187 24.31640625 2.18359375 25.4453125 C2.12300781 26.28835937 2.06242188 27.13140625 2 28 C1.67 28 1.34 28 1 28 C0.99742187 27.32453125 0.99484375 26.6490625 0.9921875 25.953125 C0.94928295 20.79458957 0.94928295 20.79458957 -1.40234375 16.4453125 C-3.21866453 15.22165792 -3.21866453 15.22165792 -6 14 C-5.38125 13.360625 -4.7625 12.72125 -4.125 12.0625 C-1.43405212 8.18436924 -0.76093455 4.59564421 0 0 Z " fill="#182634" transform="translate(154,40)"/>
<path d="M0 0 C2.31 0.66 4.62 1.32 7 2 C7 2.99 7 3.98 7 5 C7.66 5.33 8.32 5.66 9 6 C8.34 7.98 7.68 9.96 7 12 C5.68 12 4.36 12 3 12 C3 10.68 3 9.36 3 8 C3.99 8 4.98 8 6 8 C6 7.34 6 6.68 6 6 C4.68 6 3.36 6 2 6 C1.67 6.66 1.34 7.32 1 8 C-1.31 8 -3.62 8 -6 8 C-6 6.35 -6 4.7 -6 3 C-4.02 3 -2.04 3 0 3 C0 2.01 0 1.02 0 0 Z " fill="#222732" transform="translate(40,45)"/>
<path d="M0 0 C0.99 0 1.98 0 3 0 C3.433125 0.66 3.86625 1.32 4.3125 2 C5.1478125 2.99 5.1478125 2.99 6 4 C9.12586875 4.33397787 9.12586875 4.33397787 12 4 C12.33 5.98 12.66 7.96 13 10 C11.9275 10.28875 10.855 10.5775 9.75 10.875 C6.90599636 11.72820109 4.56491017 12.5636503 2 14 C0.86764706 9.47058824 0.86764706 9.47058824 1.5625 7 C2.17487127 4.20058846 1.19606286 2.532839 0 0 Z " fill="#081423" transform="translate(63,18)"/>
<path d="M0 0 C0.66 1.32 1.32 2.64 2 4 C-2.76238625 8.92113246 -2.76238625 8.92113246 -7.1875 9.203125 C-8.445625 9.21859375 -9.70375 9.2340625 -11 9.25 C-12.258125 9.27578125 -13.51625 9.3015625 -14.8125 9.328125 C-15.864375 9.21984375 -16.91625 9.1115625 -18 9 C-18.66 8.01 -19.32 7.02 -20 6 C-18.89140625 5.90203125 -17.7828125 5.8040625 -16.640625 5.703125 C-15.17698816 5.5530084 -13.71345124 5.40191535 -12.25 5.25 C-11.52039063 5.188125 -10.79078125 5.12625 -10.0390625 5.0625 C-6.43129537 4.6689254 -4.3147059 4.25997444 -1.484375 1.921875 C-0.99453125 1.28765625 -0.5046875 0.6534375 0 0 Z " fill="#010E1F" transform="translate(282,71)"/>
<path d="M0 0 C0.99 0.66 1.98 1.32 3 2 C3.25 4.5625 3.25 4.5625 3 7 C2 8 2 8 0.15234375 8.09765625 C-1.8984375 8.06510417 -3.94921875 8.03255208 -6 8 C-6.33 9.32 -6.66 10.64 -7 12 C-8.9375 11.625 -8.9375 11.625 -11 11 C-11.33 10.34 -11.66 9.68 -12 9 C-11.01 9 -10.02 9 -9 9 C-8.67 7.35 -8.34 5.7 -8 4 C-5.36 3.67 -2.72 3.34 0 3 C0 2.01 0 1.02 0 0 Z " fill="#060E1E" transform="translate(84,85)"/>
<path d="M0 0 C1.32 0 2.64 0 4 0 C3.6875 2.375 3.6875 2.375 3 5 C2.01 5.66 1.02 6.32 0 7 C0 7.66 0 8.32 0 9 C0.66 9 1.32 9 2 9 C2 10.32 2 11.64 2 13 C-1.81240932 12.48480955 -3.3794118 11.73970585 -6 9 C-6.99 9 -7.98 9 -9 9 C-9 7.68 -9 6.36 -9 5 C-6.03 4.34 -3.06 3.68 0 3 C0 2.01 0 1.02 0 0 Z " fill="#192A38" transform="translate(105,38)"/>
<path d="M0 0 C0 0.99 0 1.98 0 3 C2.64 3 5.28 3 8 3 C8.66 4.32 9.32 5.64 10 7 C8.125 7.625 8.125 7.625 6 8 C5.34 7.34 4.68 6.68 4 6 C3.34 6.66 2.68 7.32 2 8 C-1.375 7.3125 -1.375 7.3125 -5 6 C-6.4375 3.375 -6.4375 3.375 -7 1 C-4 0 -4 0 0 0 Z " fill="#152835" transform="translate(90,59)"/>
<path d="M0 0 C2.0625 0.4375 2.0625 0.4375 4 1 C3.34 2.65 2.68 4.3 2 6 C2.7425 5.34 3.485 4.68 4.25 4 C7 2 7 2 11 2 C11 3.98 11 5.96 11 8 C7.37 8 3.74 8 0 8 C-0.38063221 5.6739143 -0.71269945 3.33944736 -1 1 C-0.67 0.67 -0.34 0.34 0 0 Z " fill="#092335" transform="translate(234,63)"/>
<path d="M0 0 C1.32 0 2.64 0 4 0 C4.66666667 3.33333333 5.33333333 6.66666667 6 10 C5.01 10 4.02 10 3 10 C2.67 11.32 2.34 12.64 2 14 C1.01 14 0.02 14 -1 14 C-0.7525 12.824375 -0.7525 12.824375 -0.5 11.625 C0.0623707 9.11791961 0.0623707 9.11791961 0 7 C-0.33 6.67 -0.66 6.34 -1 6 C-1.125 3.5 -1.125 3.5 -1 1 C-0.67 0.67 -0.34 0.34 0 0 Z " fill="#15212F" transform="translate(52,88)"/>
<path d="M0 0 C0.99 0.495 0.99 0.495 2 1 C2 4.96 2 8.92 2 13 C2.33 10.36 2.66 7.72 3 5 C3.99 5 4.98 5 6 5 C5.67 5.66 5.34 6.32 5 7 C4.76725791 9.87910588 4.58027243 12.74146495 4.4375 15.625 C4.37272461 16.82769531 4.37272461 16.82769531 4.30664062 18.0546875 C4.20048543 20.0362511 4.09973145 22.01810271 4 24 C3.34 23.67 2.68 23.34 2 23 C1.67 24.32 1.34 25.64 1 27 C0.67 27 0.34 27 0 27 C0 18.09 0 9.18 0 0 Z " fill="#0E1A29" transform="translate(308,49)"/>
<path d="M0 0 C1.91015625 0.23046875 1.91015625 0.23046875 3.91015625 2.23046875 C3.91015625 3.22046875 3.91015625 4.21046875 3.91015625 5.23046875 C3.25015625 5.23046875 2.59015625 5.23046875 1.91015625 5.23046875 C1.91015625 4.57046875 1.91015625 3.91046875 1.91015625 3.23046875 C-0.06984375 3.89046875 -2.04984375 4.55046875 -4.08984375 5.23046875 C-4.74984375 8.86046875 -5.40984375 12.49046875 -6.08984375 16.23046875 C-6.41984375 16.23046875 -6.74984375 16.23046875 -7.08984375 16.23046875 C-7.1166947 13.75123074 -7.13660922 11.27228035 -7.15234375 8.79296875 C-7.16491211 7.73239258 -7.16491211 7.73239258 -7.17773438 6.65039062 C-7.18637963 4.84353316 -7.14204386 3.03659272 -7.08984375 1.23046875 C-5.19495423 -0.66442077 -2.51845229 0.05027763 0 0 Z " fill="#020D1C" transform="translate(316.08984375,48.76953125)"/>
<path d="M0 0 C0.66 0.33 1.32 0.66 2 1 C1.360625 1.45375 0.72125 1.9075 0.0625 2.375 C-2.98225157 6.25013836 -2.81649865 10.1922647 -3 15 C-1.35 15 0.3 15 2 15 C2 15.66 2 16.32 2 17 C4.31 17 6.62 17 9 17 C9 17.33 9 17.66 9 18 C6.91846065 18.13536022 4.83438794 18.23215465 2.75 18.3125 C1.58984375 18.37050781 0.4296875 18.42851563 -0.765625 18.48828125 C-4 18 -4 18 -6.40625 15.65625 C-8.13731606 12.7711399 -8.37688144 11.29771259 -8 8 C-7.01 9.485 -7.01 9.485 -6 11 C-5.72736328 10.18595703 -5.72736328 10.18595703 -5.44921875 9.35546875 C-5.19785156 8.64003906 -4.94648438 7.92460938 -4.6875 7.1875 C-4.44386719 6.47980469 -4.20023438 5.77210937 -3.94921875 5.04296875 C-2.93275742 2.85527627 -1.79179406 1.59103282 0 0 Z " fill="#0D1D2D" transform="translate(214,53)"/>
<path d="M0 0 C2 0.25 2 0.25 4 1 C4.33 1.99 4.66 2.98 5 4 C5.99 4 6.98 4 8 4 C8 4.66 8 5.32 8 6 C7.34 6 6.68 6 6 6 C6 7.32 6 8.64 6 10 C3.03 9.505 3.03 9.505 0 9 C-0.87890625 2.84765625 -0.87890625 2.84765625 -1 1 C-0.67 0.67 -0.34 0.34 0 0 Z " fill="#15131B" transform="translate(78,32)"/>
<path d="M0 0 C1.65 0 3.3 0 5 0 C5.33 0.99 5.66 1.98 6 3 C5.67 3.66 5.34 4.32 5 5 C2.69 4.67 0.38 4.34 -2 4 C-2 5.65 -2 7.3 -2 9 C-3.65 8.67 -5.3 8.34 -7 8 C-6.67 6.35 -6.34 4.7 -6 3 C-5.195625 2.87625 -4.39125 2.7525 -3.5625 2.625 C-2.716875 2.41875 -1.87125 2.2125 -1 2 C-0.67 1.34 -0.34 0.68 0 0 Z " fill="#603630" transform="translate(50,58)"/>
<path d="M0 0 C1.65 0.33 3.3 0.66 5 1 C5 2.32 5 3.64 5 5 C2.23735711 5.59732819 -0.16032769 6 -3 6 C-3.33 6.66 -3.66 7.32 -4 8 C-5.32 8 -6.64 8 -8 8 C-7.67 6.35 -7.34 4.7 -7 3 C-5.34385343 2.61781233 -3.67542976 2.28604898 -2 2 C-1.67 2.33 -1.34 2.66 -1 3 C-0.67 2.01 -0.34 1.02 0 0 Z " fill="#372C2E" transform="translate(51,78)"/>
<path d="M0 0 C0 0.66 0 1.32 0 2 C0.66 2.33 1.32 2.66 2 3 C1.34 3 0.68 3 0 3 C0 3.66 0 4.32 0 5 C1.32 5.33 2.64 5.66 4 6 C1.53721199 7.231394 -0.2795055 7.07159196 -3 7 C-3.33 5.68 -3.66 4.36 -4 3 C-6.97 2.505 -6.97 2.505 -10 2 C-10 2.66 -10 3.32 -10 4 C-10.99 4 -11.98 4 -13 4 C-13.33 4.66 -13.66 5.32 -14 6 C-14.66 4.68 -15.32 3.36 -16 2 C-10.66898822 0.86917932 -5.45908499 0 0 0 Z " fill="#0A1A26" transform="translate(70,8)"/>
<path d="M0 0 C1.65 0 3.3 0 5 0 C5.33 0.99 5.66 1.98 6 3 C6.66 3.66 7.32 4.32 8 5 C7.34 5 6.68 5 6 5 C6 5.99 6 6.98 6 8 C3.36 8 0.72 8 -2 8 C-2 7.01 -2 6.02 -2 5 C-1.34 4.67 -0.68 4.34 0 4 C0 2.68 0 1.36 0 0 Z " fill="#0E1924" transform="translate(69,37)"/>
<path d="M0 0 C1.32 0.66 2.64 1.32 4 2 C3.34 3.32 2.68 4.64 2 6 C0.20841511 6.02696365 -1.58328473 6.04637917 -3.375 6.0625 C-4.37273437 6.07410156 -5.37046875 6.08570312 -6.3984375 6.09765625 C-9 6 -9 6 -11 5 C-11 4.34 -11 3.68 -11 3 C-9.56359829 2.80426392 -8.12580496 2.61872184 -6.6875 2.4375 C-5.88699219 2.33308594 -5.08648437 2.22867188 -4.26171875 2.12109375 C-2 2 -2 2 1 3 C0.67 2.01 0.34 1.02 0 0 Z " fill="#021022" transform="translate(197,74)"/>
<path d="M0 0 C1.4540625 0.0309375 1.4540625 0.0309375 2.9375 0.0625 C3.5625 2.4375 3.5625 2.4375 3.9375 5.0625 C1.9375 7.0625 1.9375 7.0625 -0.6875 7.1875 C-1.47125 7.14625 -2.255 7.105 -3.0625 7.0625 C-3.44383299 5.0710944 -3.77575582 3.06970923 -4.0625 1.0625 C-3.0625 0.0625 -3.0625 0.0625 0 0 Z " fill="#C9D1D7" transform="translate(166.0625,31.9375)"/>
<path d="M0 0 C1.65 0.33 3.3 0.66 5 1 C5 1.99 5 2.98 5 4 C3.02 4.99 1.04 5.98 -1 7 C-1 6.34 -1 5.68 -1 5 C-1.78375 5.66 -2.5675 6.32 -3.375 7 C-6 9 -6 9 -8 9 C-8.33 7.35 -8.66 5.7 -9 4 C-6.36 3.67 -3.72 3.34 -1 3 C-0.67 2.01 -0.34 1.02 0 0 Z " fill="#142938" transform="translate(87,89)"/>
<path d="M0 0 C1.5 1.3125 1.5 1.3125 3 3 C3 3.99 3 4.98 3 6 C3.66 6.33 4.32 6.66 5 7 C-2.34117647 8.34588235 -2.34117647 8.34588235 -5.5 6.6875 C-7 5 -7 5 -7 3 C-5.5459375 2.5359375 -5.5459375 2.5359375 -4.0625 2.0625 C-1.15934208 1.30476658 -1.15934208 1.30476658 0 0 Z " fill="#0F131F" transform="translate(67,95)"/>
<path d="M0 0 C1.485 0.99 1.485 0.99 3 2 C4.32 2 5.64 2 7 2 C7.33 3.65 7.66 5.3 8 7 C9.65 7.33 11.3 7.66 13 8 C12.34 8.66 11.68 9.32 11 10 C9.68 10 8.36 10 7 10 C6.34 9.01 5.68 8.02 5 7 C4.01 7 3.02 7 2 7 C1.34 7.99 0.68 8.98 0 10 C0.185625 8.906875 0.37125 7.81375 0.5625 6.6875 C1.2578068 3.06375867 1.2578068 3.06375867 0 0 Z " fill="#141A25" transform="translate(76,26)"/>
<path d="M0 0 C0.33 0.66 0.66 1.32 1 2 C2.98 2 4.96 2 7 2 C5.02 2.99 5.02 2.99 3 4 C3 6.97 3 9.94 3 13 C2.01 13 1.02 13 0 13 C-2.37823834 8.59585492 -2.37823834 8.59585492 -3 6 C-1.6875 2.5625 -1.6875 2.5625 0 0 Z " fill="#0B1421" transform="translate(83,63)"/>
<path d="M0 0 C2.5 0.125 2.5 0.125 3.5 1.125 C3.54063832 2.79117115 3.542721 4.45888095 3.5 6.125 C-1.25 7.25 -1.25 7.25 -3.5 6.125 C-3.542721 4.45888095 -3.54063832 2.79117115 -3.5 1.125 C-2.5 0.125 -2.5 0.125 0 0 Z " fill="#E05322" transform="translate(79.5,40.875)"/>
<path d="M0 0 C2.125 0.375 2.125 0.375 4 1 C4.625 3.375 4.625 3.375 5 6 C4.34 6.66 3.68 7.32 3 8 C0.875 7.625 0.875 7.625 -1 7 C-1.625 4.625 -1.625 4.625 -2 2 C-1.34 1.34 -0.68 0.68 0 0 Z " fill="#C95025" transform="translate(78,20)"/>
<path d="M0 0 C2.125 0.375 2.125 0.375 4 1 C4.625 3.375 4.625 3.375 5 6 C4.34 6.66 3.68 7.32 3 8 C0.875 7.625 0.875 7.625 -1 7 C-1.625 4.625 -1.625 4.625 -2 2 C-1.34 1.34 -0.68 0.68 0 0 Z " fill="#AB4D2E" transform="translate(69,15)"/>
<path d="M0 0 C1.67542976 0.28604898 3.34385343 0.61781233 5 1 C5.38218767 2.65614657 5.71395102 4.32457024 6 6 C5 7 5 7 2.5 7.125 C0 7 0 7 -1 6 C-1.125 3.5 -1.125 3.5 -1 1 C-0.67 0.67 -0.34 0.34 0 0 Z " fill="#C95126" transform="translate(60,91)"/>
<path d="M0 0 C1.67542976 0.28604898 3.34385343 0.61781233 5 1 C5.38218767 2.65614657 5.71395102 4.32457024 6 6 C5 7 5 7 2.5 7.125 C0 7 0 7 -1 6 C-1.125 3.5 -1.125 3.5 -1 1 C-0.67 0.67 -0.34 0.34 0 0 Z " fill="#CB5127" transform="translate(60,81)"/>
<path d="M0 0 C1.2065625 0.0309375 1.2065625 0.0309375 2.4375 0.0625 C3.0625 2.4375 3.0625 2.4375 3.4375 5.0625 C2.7775 5.7225 2.1175 6.3825 1.4375 7.0625 C-1.1875 6.6875 -1.1875 6.6875 -3.5625 6.0625 C-3.605221 4.39638095 -3.60313832 2.72867115 -3.5625 1.0625 C-2.5625 0.0625 -2.5625 0.0625 0 0 Z " fill="#B14E2E" transform="translate(79.5625,60.9375)"/>
<path d="M0 0 C2.625 0.375 2.625 0.375 5 1 C5.042721 2.66611905 5.04063832 4.33382885 5 6 C4 7 4 7 1.4375 7.0625 C0.2309375 7.0315625 0.2309375 7.0315625 -1 7 C-1.625 4.625 -1.625 4.625 -2 2 C-1.34 1.34 -0.68 0.68 0 0 Z " fill="#CD5228" transform="translate(78,81)"/>
<path d="M0 0 C1.32 0 2.64 0 4 0 C4.38133299 1.9914056 4.71325582 3.99279077 5 6 C4 7 4 7 1.4375 7.0625 C0.2309375 7.0315625 0.2309375 7.0315625 -1 7 C-1.625 4.625 -1.625 4.625 -2 2 C-1.34 1.34 -0.68 0.68 0 0 Z " fill="#B1502E" transform="translate(95,71)"/>
<path d="M0 0 C1.67542976 0.28604898 3.34385343 0.61781233 5 1 C6.125 4.75 6.125 4.75 5 7 C3.33388095 7.042721 1.66617115 7.04063832 0 7 C-1 6 -1 6 -1.125 3.5 C-1 1 -1 1 0 0 Z " fill="#CB5127" transform="translate(86,66)"/>
<path d="M0 0 C1.2065625 0.0309375 1.2065625 0.0309375 2.4375 0.0625 C3.0625 2.4375 3.0625 2.4375 3.4375 5.0625 C2.7775 5.7225 2.1175 6.3825 1.4375 7.0625 C-1.1875 6.6875 -1.1875 6.6875 -3.5625 6.0625 C-3.605221 4.39638095 -3.60313832 2.72867115 -3.5625 1.0625 C-2.5625 0.0625 -2.5625 0.0625 0 0 Z " fill="#B1502F" transform="translate(62.5625,40.9375)"/>
<path d="M0 0 C1.2065625 0.0309375 1.2065625 0.0309375 2.4375 0.0625 C3.0625 2.4375 3.0625 2.4375 3.4375 5.0625 C2.7775 5.7225 2.1175 6.3825 1.4375 7.0625 C-1.1875 6.6875 -1.1875 6.6875 -3.5625 6.0625 C-3.605221 4.39638095 -3.60313832 2.72867115 -3.5625 1.0625 C-2.5625 0.0625 -2.5625 0.0625 0 0 Z " fill="#CC5226" transform="translate(62.5625,20.9375)"/>
<path d="M0 0 C2.125 0.375 2.125 0.375 4 1 C4.38218767 2.65614657 4.71395102 4.32457024 5 6 C4 7 4 7 1.4375 7.0625 C0.2309375 7.0315625 0.2309375 7.0315625 -1 7 C-1.625 4.625 -1.625 4.625 -2 2 C-1.34 1.34 -0.68 0.68 0 0 Z " fill="#D15427" transform="translate(87,76)"/>
<path d="M0 0 C0.33 1.32 0.66 2.64 1 4 C-2.11037628 6.07358419 -2.99561252 6.29487123 -6.5625 6.3125 C-7.34753906 6.32925781 -8.13257813 6.34601563 -8.94140625 6.36328125 C-9.96041016 6.18345703 -9.96041016 6.18345703 -11 6 C-11.66 5.01 -12.32 4.02 -13 3 C-12.39671875 3.03480469 -11.7934375 3.06960937 -11.171875 3.10546875 C-6.07474512 3.3514449 -6.07474512 3.3514449 -1.4375 1.5 C-0.963125 1.005 -0.48875 0.51 0 0 Z " fill="#010C1C" transform="translate(359,74)"/>
<path d="M0 0 C1.67542976 0.28604898 3.34385343 0.61781233 5 1 C5.625 2.875 5.625 2.875 6 5 C5.34 5.66 4.68 6.32 4 7 C1.375 6.625 1.375 6.625 -1 6 C-1.042721 4.33388095 -1.04063832 2.66617115 -1 1 C-0.67 0.67 -0.34 0.34 0 0 Z " fill="#B95330" transform="translate(60,61)"/>
<path d="M0 0 C1.67542976 0.28604898 3.34385343 0.61781233 5 1 C5 2.65 5 4.3 5 6 C2.625 6.625 2.625 6.625 0 7 C-0.66 6.34 -1.32 5.68 -2 5 C-1.46428571 1.46428571 -1.46428571 1.46428571 0 0 Z " fill="#D25126" transform="translate(69,56)"/>
<path d="M0 0 C1.67542976 0.28604898 3.34385343 0.61781233 5 1 C5.625 2.875 5.625 2.875 6 5 C5.34 5.66 4.68 6.32 4 7 C1.375 6.625 1.375 6.625 -1 6 C-1.042721 4.33388095 -1.04063832 2.66617115 -1 1 C-0.67 0.67 -0.34 0.34 0 0 Z " fill="#D15327" transform="translate(60,51)"/>
<path d="M0 0 C2.97 0.495 2.97 0.495 6 1 C6 2.65 6 4.3 6 6 C3.625 6.625 3.625 6.625 1 7 C0.34 6.34 -0.32 5.68 -1 5 C-0.625 2.375 -0.625 2.375 0 0 Z " fill="#D35225" transform="translate(86,36)"/>
<path d="M0 0 C1.2065625 0.0309375 1.2065625 0.0309375 2.4375 0.0625 C3.0625 2.4375 3.0625 2.4375 3.4375 5.0625 C2.7775 5.7225 2.1175 6.3825 1.4375 7.0625 C-0.6875 6.6875 -0.6875 6.6875 -2.5625 6.0625 C-2.94468767 4.40635343 -3.27645102 2.73792976 -3.5625 1.0625 C-2.5625 0.0625 -2.5625 0.0625 0 0 Z " fill="#CF5226" transform="translate(62.5625,30.9375)"/>
<path d="M0 0 C1.231394 3.69418201 0.64432764 6.2056261 0 10 C-1.65 10 -3.3 10 -5 10 C-5.625 8.1875 -5.625 8.1875 -6 6 C-4 3 -4 3 -1 2 C-0.67 1.34 -0.34 0.68 0 0 Z " fill="#1D1A22" transform="translate(57,12)"/>
<path d="M0 0 C1.65 0.33 3.3 0.66 5 1 C5.625 2.875 5.625 2.875 6 5 C5.34 5.66 4.68 6.32 4 7 C1.375 6.625 1.375 6.625 -1 6 C-0.67 4.02 -0.34 2.04 0 0 Z " fill="#D25426" transform="translate(60,71)"/>
<path d="M0 0 C0.99 0.33 1.98 0.66 3 1 C3.33 1.99 3.66 2.98 4 4 C2.79296875 5.55078125 2.79296875 5.55078125 1 7 C-1.26171875 6.85546875 -1.26171875 6.85546875 -3.6875 6.1875 C-4.49574219 5.97480469 -5.30398437 5.76210938 -6.13671875 5.54296875 C-6.75160156 5.36378906 -7.36648437 5.18460938 -8 5 C-8 4.34 -8 3.68 -8 3 C-6.865625 2.690625 -5.73125 2.38125 -4.5625 2.0625 C-1.21224901 1.37075469 -1.21224901 1.37075469 0 0 Z " fill="#191118" transform="translate(75,50)"/>
<path d="M0 0 C1.67542976 0.28604898 3.34385343 0.61781233 5 1 C5.625 2.875 5.625 2.875 6 5 C5.34 5.66 4.68 6.32 4 7 C1.875 6.625 1.875 6.625 0 6 C-0.38218767 4.34385343 -0.71395102 2.67542976 -1 1 C-0.67 0.67 -0.34 0.34 0 0 Z " fill="#D45328" transform="translate(94,31)"/>
<path d="M0 0 C1.2065625 0.0309375 1.2065625 0.0309375 2.4375 0.0625 C2.4375 2.0425 2.4375 4.0225 2.4375 6.0625 C0.78135343 6.44468767 -0.88707024 6.77645102 -2.5625 7.0625 C-3.5625 6.0625 -3.5625 6.0625 -3.6875 3.5625 C-3.51717518 0.15600356 -3.41884482 0.08338646 0 0 Z " fill="#E4EAED" transform="translate(290.5625,31.9375)"/>
<path d="M0 0 C1.67542976 0.28604898 3.34385343 0.61781233 5 1 C5 2.65 5 4.3 5 6 C3.34385343 6.38218767 1.67542976 6.71395102 0 7 C-1 6 -1 6 -1.125 3.5 C-1 1 -1 1 0 0 Z " fill="#D75324" transform="translate(69,86)"/>
<path d="M0 0 C1.67542976 0.28604898 3.34385343 0.61781233 5 1 C5 2.65 5 4.3 5 6 C3.34385343 6.38218767 1.67542976 6.71395102 0 7 C-1 6 -1 6 -1.125 3.5 C-1 1 -1 1 0 0 Z " fill="#D75325" transform="translate(69,46)"/>
<path d="M0 0 C1.67542976 0.28604898 3.34385343 0.61781233 5 1 C5 2.65 5 4.3 5 6 C3.34385343 6.38218767 1.67542976 6.71395102 0 7 C-1 6 -1 6 -1.125 3.5 C-1 1 -1 1 0 0 Z " fill="#D55428" transform="translate(86,26)"/>
<path d="M0 0 C1.2065625 0.0309375 1.2065625 0.0309375 2.4375 0.0625 C2.81968767 1.71864657 3.15145102 3.38707024 3.4375 5.0625 C2.4375 6.0625 2.4375 6.0625 -0.125 6.125 C-1.3315625 6.0940625 -1.3315625 6.0940625 -2.5625 6.0625 C-2.94468767 4.40635343 -3.27645102 2.73792976 -3.5625 1.0625 C-2.5625 0.0625 -2.5625 0.0625 0 0 Z " fill="#D35426" transform="translate(62.5625,10.9375)"/>
<path d="M0 0 C-0.33 0.66 -0.66 1.32 -1 2 C-3.88211302 2.96070434 -5.69850044 3.10581883 -8.6875 3.0625 C-9.89986328 3.04896484 -9.89986328 3.04896484 -11.13671875 3.03515625 C-12.05904297 3.01775391 -12.05904297 3.01775391 -13 3 C-5.58108108 -3.38851351 -5.58108108 -3.38851351 0 0 Z " fill="#020E1F" transform="translate(227,77)"/>
<path d="M0 0 C1.98 0 3.96 0 6 0 C6.66 1.32 7.32 2.64 8 4 C5.75487738 5.12256131 4.48543351 5.13413762 2 5.125 C0.948125 5.12886719 0.948125 5.12886719 -0.125 5.1328125 C-2 5 -2 5 -4 4 C-4 6.97 -4 9.94 -4 13 C-4.33 13 -4.66 13 -5 13 C-5 9.7 -5 6.4 -5 3 C-2.03 3 0.94 3 4 3 C4 2.34 4 1.68 4 1 C2.68 0.67 1.36 0.34 0 0 Z " fill="#071C2D" transform="translate(140,57)"/>
<path d="M0 0 C0.66 0 1.32 0 2 0 C2 1.32 2 2.64 2 4 C2.66 4 3.32 4 4 4 C4.33 5.65 4.66 7.3 5 9 C6.65 9 8.3 9 10 9 C10 10.65 10 12.3 10 14 C8.02 14 6.04 14 4 14 C3.34 11.03 2.68 8.06 2 5 C1.34 5 0.68 5 0 5 C0 3.35 0 1.7 0 0 Z " fill="#2A1819" transform="translate(55,48)"/>
<path d="M0 0 C1.2065625 0.0309375 1.2065625 0.0309375 2.4375 0.0625 C1.4475 1.5475 1.4475 1.5475 0.4375 3.0625 C0.19530685 6.03699608 0.19530685 6.03699608 0.3125 9.25 C0.33957031 10.88001953 0.33957031 10.88001953 0.3671875 12.54296875 C0.39039063 13.37441406 0.41359375 14.20585938 0.4375 15.0625 C-0.2225 15.0625 -0.8825 15.0625 -1.5625 15.0625 C-1.899111 13.29228678 -2.23167293 11.52130326 -2.5625 9.75 C-2.748125 8.76386719 -2.93375 7.77773437 -3.125 6.76171875 C-3.5625 4.0625 -3.5625 4.0625 -3.5625 1.0625 C-2.5625 0.0625 -2.5625 0.0625 0 0 Z " fill="#294050" transform="translate(228.5625,57.9375)"/>
<path d="M0 0 C0 1.65 0 3.3 0 5 C-1.98 5 -3.96 5 -6 5 C-6.33 3.35 -6.66 1.7 -7 0 C-3.86650268 -1.04449911 -3.01031744 -0.93423645 0 0 Z " fill="#362729" transform="translate(48,22)"/>
<path d="M0 0 C1.98 0 3.96 0 6 0 C7.125 3.75 7.125 3.75 6 6 C3.03 5.505 3.03 5.505 0 5 C0 3.35 0 1.7 0 0 Z " fill="#65382D" transform="translate(49,67)"/>
<path d="M0 0 C6.64615385 1.47692308 6.64615385 1.47692308 8.4375 4.125 C8.7159375 5.053125 8.7159375 5.053125 9 6 C8.01 6.495 8.01 6.495 7 7 C7 6.01 7 5.02 7 4 C5.35 4 3.7 4 2 4 C1.67 5.65 1.34 7.3 1 9 C0.34 8.67 -0.32 8.34 -1 8 C-0.67 5.36 -0.34 2.72 0 0 Z " fill="#051727" transform="translate(67,63)"/>
<path d="M0 0 C-0.33 0.99 -0.66 1.98 -1 3 C-4.3 2.67 -7.6 2.34 -11 2 C-11 4.31 -11 6.62 -11 9 C-11.66 9 -12.32 9 -13 9 C-12.67 6.03 -12.34 3.06 -12 0 C-10.37585622 -0.19477739 -8.75063577 -0.38059458 -7.125 -0.5625 C-6.22007812 -0.66691406 -5.31515625 -0.77132812 -4.3828125 -0.87890625 C-2 -1 -2 -1 0 0 Z " fill="#04192B" transform="translate(147,42)"/>
<path d="M0 0 C0.66 0.33 1.32 0.66 2 1 C3.425 8.3625 3.425 8.3625 1 12 C0.01 12 -0.98 12 -2 12 C-2.33 11.01 -2.66 10.02 -3 9 C-2.01 8.67 -1.02 8.34 0 8 C0 5.36 0 2.72 0 0 Z " fill="#010D1D" transform="translate(309,68)"/>
<path d="M0 0 C0.99 0 1.98 0 3 0 C3 3 3 3 1 5.1875 C0.34 5.785625 -0.32 6.38375 -1 7 C-0.34 7 0.32 7 1 7 C1 7.66 1 8.32 1 9 C-0.875 8.75 -0.875 8.75 -3 8 C-4.25 5.9375 -4.25 5.9375 -5 4 C-3.35 3.67 -1.7 3.34 0 3 C0 2.01 0 1.02 0 0 Z " fill="#12283A" transform="translate(87,49)"/>
<path d="M0 0 C1.32 0.66 2.64 1.32 4 2 C3.67 3.32 3.34 4.64 3 6 C1.68 6.33 0.36 6.66 -1 7 C-1.625 4.625 -1.625 4.625 -2 2 C-1.34 1.34 -0.68 0.68 0 0 Z " fill="#021121" transform="translate(170,36)"/>
<path d="M0 0 C0.99 0 1.98 0 3 0 C3.474375 0.66 3.94875 1.32 4.4375 2 C5.2109375 2.99 5.2109375 2.99 6 4 C7.32 4 8.64 4 10 4 C10 4.66 10 5.32 10 6 C8.02 6 6.04 6 4 6 C3.67 7.32 3.34 8.64 3 10 C2.34 9.67 1.68 9.34 1 9 C1.20625 8.443125 1.4125 7.88625 1.625 7.3125 C2.10695211 4.340462 1.26565028 2.68020059 0 0 Z " fill="#1E0F15" transform="translate(63,18)"/>
<path d="M0 0 C-0.33 0.99 -0.66 1.98 -1 3 C-3.31 2.67 -5.62 2.34 -8 2 C-8 1.01 -8 0.02 -8 -1 C-4.59745511 -2.2151946 -3.06748874 -1.86240388 0 0 Z " fill="#172433" transform="translate(78,29)"/>
<path d="M0 0 C2.1875 0.3125 2.1875 0.3125 4 1 C3.67 2.32 3.34 3.64 3 5 C1.68 5.33 0.36 5.66 -1 6 C-1 5.34 -1 4.68 -1 4 C-1.66 3.67 -2.32 3.34 -3 3 C-1.75 1.4375 -1.75 1.4375 0 0 Z " fill="#0B0D19" transform="translate(92,81)"/>
<path d="M0 0 C0.625 1.875 0.625 1.875 1 4 C0.34 4.66 -0.32 5.32 -1 6 C-3.625 5.625 -3.625 5.625 -6 5 C-6 4.34 -6 3.68 -6 3 C-4.02 2.01 -2.04 1.02 0 0 Z " fill="#011022" transform="translate(282,47)"/>
<path d="M0 0 C1.32 0.66 2.64 1.32 4 2 C2.6875 4.5 2.6875 4.5 1 7 C0.01 7 -0.98 7 -2 7 C-2.125 4.625 -2.125 4.625 -2 2 C-1.34 1.34 -0.68 0.68 0 0 Z " fill="#192633" transform="translate(46,89)"/>
<path d="M0 0 C1.96713413 2.95070119 2.65358161 4.53581611 3 8 C2.01 9.485 2.01 9.485 1 11 C-0.625 10 -0.625 10 -2 8 C-1.65009645 5.1841095 -0.84980278 2.7283142 0 0 Z " fill="#030E1F" transform="translate(157,62)"/>
<path d="M0 0 C1.32 0 2.64 0 4 0 C3.67 0.99 3.34 1.98 3 3 C0.9375 3.6875 0.9375 3.6875 -1 4 C-1.33 5.32 -1.66 6.64 -2 8 C-2.66 8 -3.32 8 -4 8 C-4.33 6.35 -4.66 4.7 -5 3 C-3.35 3 -1.7 3 0 3 C0 2.01 0 1.02 0 0 Z " fill="#30272A" transform="translate(95,23)"/>
<path d="M0 0 C3.63 0 7.26 0 11 0 C8 3 8 3 4.8125 3.1875 C3.4203125 3.0946875 3.4203125 3.0946875 2 3 C2 2.34 2 1.68 2 1 C1.34 0.67 0.68 0.34 0 0 Z " fill="#202A39" transform="translate(208,76)"/>
<path d="M0 0 C1.32 0 2.64 0 4 0 C4.33 1.32 4.66 2.64 5 4 C3.35 4.66 1.7 5.32 0 6 C-0.38218767 4.34385343 -0.71395102 2.67542976 -1 1 C-0.67 0.67 -0.34 0.34 0 0 Z " fill="#423230" transform="translate(44,73)"/>
<path d="M0 0 C0.33 0.66 0.66 1.32 1 2 C1.66 2 2.32 2 3 2 C3 4.64 3 7.28 3 10 C2.34 10 1.68 10 1 10 C0.731875 9.360625 0.46375 8.72125 0.1875 8.0625 C-0.88667752 5.66868314 -0.88667752 5.66868314 -4 5 C-3.01 4.34 -2.02 3.68 -1 3 C-0.67 2.01 -0.34 1.02 0 0 Z " fill="#31100F" transform="translate(83,23)"/>
<path d="M0 0 C2.64 0 5.28 0 8 0 C8 0.66 8 1.32 8 2 C10.31 2 12.62 2 15 2 C15 2.33 15 2.66 15 3 C12.87561661 3.08078641 10.7503677 3.13909141 8.625 3.1875 C7.44164062 3.22230469 6.25828125 3.25710937 5.0390625 3.29296875 C3.53472656 3.14794922 3.53472656 3.14794922 2 3 C1.34 2.01 0.68 1.02 0 0 Z " fill="#293D4C" transform="translate(208,68)"/>
<path d="M0 0 C0.33 0 0.66 0 1 0 C1.75 2.75 1.75 2.75 2 6 C0.3125 8.4375 0.3125 8.4375 -2 10 C-4.25 9.75 -4.25 9.75 -6 9 C-5.38125 8.814375 -4.7625 8.62875 -4.125 8.4375 C-0.94397134 6.28562767 -0.80548053 3.62466237 0 0 Z M3 2 C3.33 2.99 3.66 3.98 4 5 C3.34 5 2.68 5 2 5 C2.33 4.01 2.66 3.02 3 2 Z " fill="#232C39" transform="translate(280,66)"/>
<path d="M0 0 C0 1.32 0 2.64 0 4 C-3 5 -3 5 -5.1875 4.0625 C-5.785625 3.711875 -6.38375 3.36125 -7 3 C-7 2.34 -7 1.68 -7 1 C-4 0 -4 0 0 0 Z " fill="#000F21" transform="translate(227,49)"/>
<path d="M0 0 C1.32 0.66 2.64 1.32 4 2 C3.67 2.99 3.34 3.98 3 5 C1.02 5 -0.96 5 -3 5 C-1.125 1.125 -1.125 1.125 0 0 Z " fill="#070D18" transform="translate(83,46)"/>
<path d="M0 0 C2 2 2 2 2.125 4.625 C2.08375 5.40875 2.0425 6.1925 2 7 C2.66 7.33 3.32 7.66 4 8 C3.02149805 9.02104551 2.02019573 10.0206121 1 11 C0.67 11 0.34 11 0 11 C0 7.37 0 3.74 0 0 Z " fill="#082335" transform="translate(256,68)"/>
<path d="M0 0 C2.475 0.495 2.475 0.495 5 1 C5 1.66 5 2.32 5 3 C8.465 2.505 8.465 2.505 12 2 C12 2.66 12 3.32 12 4 C10.56589632 4.24954005 9.12739928 4.47392642 7.6875 4.6875 C6.88699219 4.81511719 6.08648437 4.94273438 5.26171875 5.07421875 C3 5 3 5 1.20703125 3.64453125 C0 2 0 2 0 0 Z " fill="#091A2A" transform="translate(75,48)"/>
<path d="M0 0 C1.98 0 3.96 0 6 0 C6.33 0.99 6.66 1.98 7 3 C4.69 3.33 2.38 3.66 0 4 C-0.33 3.34 -0.66 2.68 -1 2 C-0.67 1.34 -0.34 0.68 0 0 Z " fill="#040D1D" transform="translate(236,49)"/>
<path d="M0 0 C0.99 0 1.98 0 3 0 C3 0.66 3 1.32 3 2 C3.99 2 4.98 2 6 2 C5.67 2.99 5.34 3.98 5 5 C3.35 5 1.7 5 0 5 C0 3.35 0 1.7 0 0 Z " fill="#172432" transform="translate(78,14)"/>
<path d="M0 0 C0.2475 0.61875 0.495 1.2375 0.75 1.875 C2.20628639 4.35068687 3.37812506 4.95125002 6 6 C6 6.99 6 7.98 6 9 C4.68 9 3.36 9 2 9 C1.67 8.01 1.34 7.02 1 6 C0.34 5.67 -0.32 5.34 -1 5 C-0.67 3.35 -0.34 1.7 0 0 Z " fill="#442119" transform="translate(58,12)"/>
<path d="M0 0 C1.32 0 2.64 0 4 0 C3.67 1.65 3.34 3.3 3 5 C1.68 4.67 0.36 4.34 -1 4 C-0.67 2.68 -0.34 1.36 0 0 Z " fill="#9C4B2E" transform="translate(52,88)"/>
<path d="M0 0 C0.2475 0.61875 0.495 1.2375 0.75 1.875 C2.20628639 4.35068687 3.37812506 4.95125002 6 6 C4.35 6.33 2.7 6.66 1 7 C0.67 7.99 0.34 8.98 0 10 C-0.66 9.67 -1.32 9.34 -2 9 C-2 7.02 -2 5.04 -2 3 C-1.34 3 -0.68 3 0 3 C0 2.01 0 1.02 0 0 Z " fill="#401E17" transform="translate(84,78)"/>
<path d="M0 0 C1.98 0.495 1.98 0.495 4 1 C4 2.32 4 3.64 4 5 C2.35 5 0.7 5 -1 5 C-0.67 3.35 -0.34 1.7 0 0 Z " fill="#312A31" transform="translate(34,77)"/>
<path d="M0 0 C2.0625 0.4375 2.0625 0.4375 4 1 C3.34 2.98 2.68 4.96 2 7 C1.01 6.67 0.02 6.34 -1 6 C-1.042721 4.33388095 -1.04063832 2.66617115 -1 1 C-0.67 0.67 -0.34 0.34 0 0 Z " fill="#0F1725" transform="translate(234,63)"/>
<path d="M0 0 C0.99 0 1.98 0 3 0 C4.75 1.8125 4.75 1.8125 6 4 C5.67 4.99 5.34 5.98 5 7 C4.01 6.67 3.02 6.34 2 6 C0.8125 2.9375 0.8125 2.9375 0 0 Z " fill="#1D2733" transform="translate(68,95)"/>
<path d="M0 0 C0.33 0 0.66 0 1 0 C1.0825 0.78375 1.165 1.5675 1.25 2.375 C1.72806339 5.14749104 1.72806339 5.14749104 4.0625 6.3125 C4.701875 6.539375 5.34125 6.76625 6 7 C5.67 7.66 5.34 8.32 5 9 C3.68 9.33 2.36 9.66 1 10 C0.67 6.7 0.34 3.4 0 0 Z " fill="#331E1D" transform="translate(58,82)"/>
<path d="M0 0 C1.2065625 0.0309375 1.2065625 0.0309375 2.4375 0.0625 C1.4475 0.7225 0.4575 1.3825 -0.5625 2.0625 C-0.5625 3.0525 -0.5625 4.0425 -0.5625 5.0625 C0.4275 5.7225 1.4175 6.3825 2.4375 7.0625 C-0.5325 6.5675 -0.5325 6.5675 -3.5625 6.0625 C-3.605221 4.39638095 -3.60313832 2.72867115 -3.5625 1.0625 C-2.5625 0.0625 -2.5625 0.0625 0 0 Z " fill="#AE4B2A" transform="translate(79.5625,40.9375)"/>
<path d="M0 0 C0.99 0.33 1.98 0.66 3 1 C2.67 2.32 2.34 3.64 2 5 C0.35 5 -1.3 5 -3 5 C-1.125 1.125 -1.125 1.125 0 0 Z " fill="#050E1F" transform="translate(294,36)"/>
<path d="M0 0 C1.98 0.495 1.98 0.495 4 1 C3.67 2.32 3.34 3.64 3 5 C1.68 4.67 0.36 4.34 -1 4 C-0.67 2.68 -0.34 1.36 0 0 Z " fill="#A34D30" transform="translate(78,32)"/>
<path d="M0 0 C3.41021743 0.78697325 6.68885166 1.87119943 10 3 C10 3.33 10 3.66 10 4 C7.03 4 4.06 4 1 4 C0.67 2.68 0.34 1.36 0 0 Z " fill="#041E2E" transform="translate(76,89)"/>
<path d="M0 0 C-0.8125 1.9375 -0.8125 1.9375 -2 4 C-2.99 4.33 -3.98 4.66 -5 5 C-5.66 4.67 -6.32 4.34 -7 4 C-7 3.01 -7 2.02 -7 1 C-2.25 0 -2.25 0 0 0 Z " fill="#1D2B3A" transform="translate(103,83)"/>
<path d="M0 0 C0.99 0.33 1.98 0.66 3 1 C3 2.32 3 3.64 3 5 C1.35 5 -0.3 5 -2 5 C-2 4.01 -2 3.02 -2 2 C-1.34 2 -0.68 2 0 2 C0 1.34 0 0.68 0 0 Z " fill="#020D1B" transform="translate(100,77)"/>
<path d="M0 0 C1.65 0 3.3 0 5 0 C5 1.32 5 2.64 5 4 C3.35 4 1.7 4 0 4 C0 2.68 0 1.36 0 0 Z " fill="#EB531A" transform="translate(95,73)"/>
<path d="M0 0 C0.33 0.66 0.66 1.32 1 2 C2.98 2 4.96 2 7 2 C6.360625 2.226875 5.72125 2.45375 5.0625 2.6875 C2.72806339 3.85250896 2.72806339 3.85250896 2.25 6.625 C2.1675 7.40875 2.085 8.1925 2 9 C1.71125 8.360625 1.4225 7.72125 1.125 7.0625 C0.17176549 4.84793921 0.17176549 4.84793921 -2 4 C-1.34 2.68 -0.68 1.36 0 0 Z " fill="#3D1B15" transform="translate(83,63)"/>
<path d="M0 0 C1.32 0 2.64 0 4 0 C4 1.65 4 3.3 4 5 C2.68 5 1.36 5 0 5 C0 3.35 0 1.7 0 0 Z " fill="#E5531D" transform="translate(60,63)"/>
<path d="M0 0 C1.32 0 2.64 0 4 0 C4 1.65 4 3.3 4 5 C2.68 5 1.36 5 0 5 C0 3.35 0 1.7 0 0 Z " fill="#E4521D" transform="translate(77,63)"/>
<path d="M0 0 C1.65 0 3.3 0 5 0 C5 0.99 5 1.98 5 3 C3.68 3 2.36 3 1 3 C0.67 2.01 0.34 1.02 0 0 Z M-2 4 C-1.34 4.33 -0.68 4.66 0 5 C-0.99 5.66 -1.98 6.32 -3 7 C-2.67 6.01 -2.34 5.02 -2 4 Z " fill="#020D1D" transform="translate(349,50)"/>
<path d="M0 0 C0.33 0 0.66 0 1 0 C1.1546875 1.175625 1.1546875 1.175625 1.3125 2.375 C1.77595022 5.33045181 1.77595022 5.33045181 5 7 C5.33 7.66 5.66 8.32 6 9 C4.35 9.33 2.7 9.66 1 10 C0.67 6.7 0.34 3.4 0 0 Z " fill="#321B1A" transform="translate(58,42)"/>
<path d="M0 0 C0.66 0.33 1.32 0.66 2 1 C2 1.99 2 2.98 2 4 C0.02 4.99 0.02 4.99 -2 6 C-2.33 4.68 -2.66 3.36 -3 2 C-2.01 1.34 -1.02 0.68 0 0 Z " fill="#080A17" transform="translate(67,26)"/>
<path d="M0 0 C1.65 0 3.3 0 5 0 C5 1.32 5 2.64 5 4 C3.35 4 1.7 4 0 4 C0 2.68 0 1.36 0 0 Z " fill="#EF531B" transform="translate(69,17)"/>
<path d="M0 0 C0.33 0 0.66 0 1 0 C1 2.31 1 4.62 1 7 C-0.32 6.34 -1.64 5.68 -3 5 C-1.125 1.125 -1.125 1.125 0 0 Z " fill="#1C090B" transform="translate(66,86)"/>
<path d="M0 0 C0.99 0.33 1.98 0.66 3 1 C3 2.65 3 4.3 3 6 C1.68 5.67 0.36 5.34 -1 5 C-0.67 3.35 -0.34 1.7 0 0 Z " fill="#232C3A" transform="translate(105,76)"/>
<path d="M0 0 C0.99 0.33 1.98 0.66 3 1 C3.94921875 3.06640625 3.94921875 3.06640625 4.6875 5.5625 C4.93886719 6.38878906 5.19023438 7.21507813 5.44921875 8.06640625 C5.63097656 8.70449219 5.81273438 9.34257813 6 10 C5.34 10 4.68 10 4 10 C3.87625 9.360625 3.7525 8.72125 3.625 8.0625 C3.315625 7.0415625 3.315625 7.0415625 3 6 C2.34 5.67 1.68 5.34 1 5 C0.375 2.4375 0.375 2.4375 0 0 Z " fill="#1F1924" transform="translate(99,72)"/>
<path d="M0 0 C0.66 0.33 1.32 0.66 2 1 C2 2.65 2 4.3 2 6 C-0.97 6 -3.94 6 -7 6 C-7 5.67 -7 5.34 -7 5 C-5.02 4.67 -3.04 4.34 -1 4 C-0.67 2.68 -0.34 1.36 0 0 Z " fill="#404F5A" transform="translate(244,51)"/>
<path d="M0 0 C0.99 0.99 1.98 1.98 3 3 C2.67 3.99 2.34 4.98 2 6 C1.01 6.33 0.02 6.66 -1 7 C-2 4 -2 4 -1.0625 1.8125 C-0.5365625 0.9153125 -0.5365625 0.9153125 0 0 Z " fill="#040D1C" transform="translate(76,50)"/>
<path d="M0 0 C0.33 0.99 0.66 1.98 1 3 C3.01508358 3.73323796 3.01508358 3.73323796 5 4 C4.34 4.66 3.68 5.32 3 6 C2.01 6 1.02 6 0 6 C-1.6875 4 -1.6875 4 -3 2 C-2.01 2 -1.02 2 0 2 C0 1.34 0 0.68 0 0 Z " fill="#0B1722" transform="translate(47,34)"/>
<path d="M0 0 C1.32 0 2.64 0 4 0 C4 0.66 4 1.32 4 2 C5.32 2.33 6.64 2.66 8 3 C7.21625 3.12375 6.4325 3.2475 5.625 3.375 C2.85942178 3.79117993 2.85942178 3.79117993 1 6 C0.67 4.02 0.34 2.04 0 0 Z " fill="#422623" transform="translate(73,86)"/>
<path d="M0 0 C2.475 0.495 2.475 0.495 5 1 C4.67 1.99 4.34 2.98 4 4 C2.68 4 1.36 4 0 4 C0 2.68 0 1.36 0 0 Z " fill="#B05030" transform="translate(51,78)"/>
<path d="M0 0 C1.65 0 3.3 0 5 0 C4.67 1.32 4.34 2.64 4 4 C2.68 3.67 1.36 3.34 0 3 C0 2.01 0 1.02 0 0 Z " fill="#AD4E2F" transform="translate(68,78)"/>
<path d="M0 0 C0.66 0.33 1.32 0.66 2 1 C1.67 2.65 1.34 4.3 1 6 C-0.32 6 -1.64 6 -3 6 C-1.125 1.125 -1.125 1.125 0 0 Z " fill="#0B0915" transform="translate(67,75)"/>
<path d="M0 0 C2.475 0.495 2.475 0.495 5 1 C4.67 1.99 4.34 2.98 4 4 C2.68 4 1.36 4 0 4 C0 2.68 0 1.36 0 0 Z " fill="#AC5438" transform="translate(77,73)"/>
<path d="M0 0 C0.99 0 1.98 0 3 0 C3 1.65 3 3.3 3 5 C1.68 4.67 0.36 4.34 -1 4 C-0.67 2.68 -0.34 1.36 0 0 Z " fill="#F3541C" transform="translate(61,42)"/>
<path d="M0 0 C1.65 0 3.3 0 5 0 C4.67 1.32 4.34 2.64 4 4 C2.68 3.67 1.36 3.34 0 3 C0 2.01 0 1.02 0 0 Z " fill="#AC4E2F" transform="translate(51,38)"/>
<path d="M0 0 C1.32 0 2.64 0 4 0 C4 1.65 4 3.3 4 5 C3.01 5 2.02 5 1 5 C0.67 3.35 0.34 1.7 0 0 Z " fill="#352E32" transform="translate(35,38)"/>
<path d="M0 0 C2.475 0.495 2.475 0.495 5 1 C4.67 1.99 4.34 2.98 4 4 C4.66 4 5.32 4 6 4 C5.67 4.66 5.34 5.32 5 6 C3.68 5.67 2.36 5.34 1 5 C0.67 3.35 0.34 1.7 0 0 Z " fill="#251D23" transform="translate(77,36)"/>
<path d="M0 0 C1.65 0 3.3 0 5 0 C4.67 1.32 4.34 2.64 4 4 C2.68 3.67 1.36 3.34 0 3 C0 2.01 0 1.02 0 0 Z " fill="#AE4D2E" transform="translate(51,18)"/>
<path d="M0 0 C2.475 0.495 2.475 0.495 5 1 C5 2.32 5 3.64 5 5 C4.01 5 3.02 5 2 5 C2 4.34 2 3.68 2 3 C1.34 3 0.68 3 0 3 C0 2.01 0 1.02 0 0 Z " fill="#232833" transform="translate(85,16)"/>
<path d="M0 0 C1.32 0 2.64 0 4 0 C3.67 1.65 3.34 3.3 3 5 C2.34 5 1.68 5 1 5 C0.67 3.35 0.34 1.7 0 0 Z " fill="#282C33" transform="translate(78,93)"/>
<path d="M0 0 C2.5 1.375 2.5 1.375 5 3 C5 3.66 5 4.32 5 5 C3.35 5 1.7 5 0 5 C-0.5625 3.0625 -0.5625 3.0625 -1 1 C-0.67 0.67 -0.34 0.34 0 0 Z " fill="#04253A" transform="translate(94,64)"/>
<path d="M0 0 C2.475 0.99 2.475 0.99 5 2 C5 2.99 5 3.98 5 5 C3.35 5.33 1.7 5.66 0 6 C0 4.02 0 2.04 0 0 Z " fill="#321F1E" transform="translate(59,36)"/>
<path d="M0 0 C1.98 0.495 1.98 0.495 4 1 C4 1.99 4 2.98 4 4 C2.35 3.67 0.7 3.34 -1 3 C-0.67 2.01 -0.34 1.02 0 0 Z " fill="#B15233" transform="translate(69,37)"/>
<path d="M0 0 C0.99 0.33 1.98 0.66 3 1 C2.01 2.32 1.02 3.64 0 5 C-2.475 4.01 -2.475 4.01 -5 3 C-4.360625 2.690625 -3.72125 2.38125 -3.0625 2.0625 C-1.06389179 1.1654837 -1.06389179 1.1654837 0 0 Z " fill="#1D0A0C" transform="translate(91,31)"/>
</svg>
