<svg xmlns="http://www.w3.org/2000/svg" width="725" height="146" fill="none"><g clip-path="url(#a)"><g clip-path="url(#b)"><path fill="#CF0" fill-rule="evenodd" d="m44.781.105.004.105 3.076 11.034 3.077 11.035-1.398 11.896-1.397 11.897-1.366 2.623-1.366 2.623-1.593.638-1.592.638-.52-.013-.52-.013-3.63-6.403-3.63-6.404-1.217-14.621-1.217-14.621h-.525l-5.662 16.304-5.662 16.304-.211 11.108-.212 11.108-2.497-4.586-2.496-4.587-2.12-3.769-2.122-3.769-.315 1.034-.315 1.034L6.52 61.43 3.684 72.158l-1.842 5.815L0 83.79v6.176l.633 3.298.633 3.298 1.546 4.936 1.546 4.936-1.229 2.848-1.228 2.848v.572l18.587 16.642 18.587 16.641 15.243.007 15.244.008 17.705-15.814 17.706-15.815 1.037-1.006 1.037-1.006-1.371-2.849-1.37-2.85 2.347-10.432L109 85.794l-4.248-17.968-4.248-17.968-.221-.628-.22-.629-.713.901-.713.901-5.244 6.776-5.244 6.776-.109-.108-.109-.108 1.09-3.154 1.087-3.154-3.67-16.598-3.67-16.598-.092-.09-.092-.091-18.741-12.028L45.103 0h-.326l.004.105Zm-1.863 74.368L53.66 78.68h1.416l10.759-4.225 10.759-4.224.329.332.328.333 3.345 7.784 3.344 7.784.28.884.282.883-6.45 2.449-6.45 2.448-.288.244-.287.245 6.307 8.407 6.306 8.406-.002.429-.002.429-.948 1.18-.948 1.18-13.652 3.936-13.653 3.936-13.568-3.958-13.568-3.96h-.164l-1.119-1.461-1.119-1.462 6.347-8.513 6.346-8.513-.314-.285-.314-.286-6.326-2.386-6.325-2.388-.107-.106-.107-.106 3.408-7.969 3.407-7.968.375-.947.374-.947h.515l10.742 4.208Zm-9.546 8.808 7.91 2.538 8.353 2.749 1.09-2.59-7.787-3.439-7.787-3.438h-.433l-1.346 4.18Zm32.172-.819-7.981 3.516.943 2.59 8.33-2.554 8.145-2.692-1.035-4.221-.328.028-.327.027-7.747 3.306ZM45.93 96.322l-.213.812 1.43 2.117 1.432 2.116v1.702l2.129 1.075 2.129 1.074-.123-3.665-.122-3.665-2.916-1.189-2.915-1.189h-.619l-.212.812Zm12.787.462-2.745 1.19-.122 3.59-.122 3.59 2.234-.979 2.234-.979.14-1.186.142-1.185 1.391-1.71 1.392-1.712-.436-.946-.435-.947-.464.043-.463.042-2.746 1.19ZM43.608 123.49l10.871 3.307 11.879-3.468 11.879-3.467.124.131.124.132-4.498 5.121-4.498 5.121-15.05.033-15.05.033-3.56-4.733-3.56-4.734-.363-.597-.363-.598.598.206.597.206 10.87 3.307Z" clip-rule="evenodd"/></g><path fill="#CF0" d="M194.912 109.728h-1.536c-31.488 0-41.376-19.68-41.376-35.712v-2.592c0-15.168 9.216-35.136 41.76-35.136h3.264c31.104 0 40.992 13.536 40.992 25.344v.192h-20.448c-.768-1.824-3.552-9.408-22.08-9.408-17.568 0-22.944 9.888-22.944 19.488v1.248c0 9.312 5.952 20.448 23.616 20.448 16.896 0 20.64-9.024 20.928-11.136h-19.392V69.696h41.184v38.976h-15.744c-.288-2.592-1.344-7.584-2.4-9.888-1.536 2.016-9.024 10.944-25.824 10.944ZM294.792 36h4.224c33.408 0 42.912 19.584 42.912 35.232v2.88c0 15.36-9.504 35.616-42.912 35.616h-4.224c-33.408 0-42.912-20.256-42.912-35.616v-2.88C251.88 55.68 261.384 36 294.792 36Zm26.592 37.344V72c0-8.832-4.32-19.68-24.48-19.68-19.968 0-24.48 10.848-24.48 19.68v1.344c0 8.64 4.8 19.968 24.48 19.968 20.064 0 24.48-11.328 24.48-19.968ZM374.704 54.048v15.168h27.552c8.064 0 10.272-3.456 10.272-7.584v-.192c0-4.128-2.208-7.392-10.272-7.392h-27.552Zm43.488 21.312c9.696 2.208 15.552 8.064 15.552 18.528v7.392c0 5.376.48 6.816 1.152 7.968v.48h-20.448c-.288-.48-.672-1.824-.672-4.992V98.88c0-9.216-3.36-13.44-13.344-13.44h-25.728v24.288h-19.776V38.304h48.096c27.168 0 30.24 11.328 30.24 19.104v.96c0 8.928-6.144 14.976-15.072 16.992ZM467.672 38.304v71.424h-19.776V38.304h19.776ZM480.672 38.304h19.776v54.624h43.68v16.8h-63.456V38.304ZM557.128 38.304h19.776v54.624h43.68v16.8h-63.456V38.304ZM691.184 81.792l-12.96-29.088-12.576 29.088h25.536Zm12.48 27.936-5.856-13.248h-38.592l-5.76 13.248h-19.872l31.68-71.424h26.496l33.12 71.424h-21.216Z"/></g><defs><clipPath id="a"><path fill="#fff" d="M0 0h724.88v146H0z"/></clipPath><clipPath id="b"><path fill="#fff" d="M0 0h109v146H0z"/></clipPath></defs></svg>