<svg width="184" height="59" viewBox="0 0 184 59" fill="none" xmlns="http://www.w3.org/2000/svg">
<path fill-rule="evenodd" clip-rule="evenodd" d="M92.1677 37.6839H173.421H184V48.342C184 54.2282 179.264 59 173.421 59L173.405 59H10.5948L10.5791 59C4.7364 59 0 54.2282 0 48.342V37.6839H10.5791H92.1677ZM47.2718 54.9362C48.0707 55.2661 48.9745 55.4311 49.983 55.4311C51.1487 55.4311 52.1769 55.1803 53.0676 54.6789C53.9582 54.1775 54.6786 53.4517 55.2287 52.5016L53.4016 51.3338C53.0348 51.9276 52.5698 52.3961 52.0066 52.7391C51.4565 53.0822 50.7885 53.2538 50.0027 53.2538C49.374 53.2538 48.8042 53.1416 48.2934 52.9173C47.7957 52.6798 47.3634 52.3631 46.9967 51.9672C46.6431 51.5581 46.368 51.0831 46.1715 50.5421C45.9751 50.001 45.8768 49.4204 45.8768 48.8002C45.8768 48.18 45.9751 47.5994 46.1715 47.0584C46.368 46.5042 46.6431 46.0291 46.9967 45.6333C47.3503 45.2242 47.7826 44.9009 48.2934 44.6634C48.8042 44.4259 49.374 44.3071 50.0027 44.3071C51.4434 44.3071 52.5633 44.9207 53.3623 46.1479L55.2091 44.9207C54.6066 43.9706 53.86 43.2712 52.9693 42.8226C52.0918 42.3607 51.0963 42.1298 49.983 42.1298C49.0269 42.1298 48.1493 42.3079 47.3503 42.6642C46.5514 43.0073 45.8637 43.4824 45.2874 44.0894C44.7242 44.6832 44.2789 45.3891 43.9514 46.2073C43.6371 47.0122 43.4799 47.8765 43.4799 48.8002C43.4799 49.7503 43.6305 50.6278 43.9318 51.4328C44.233 52.2377 44.6653 52.9371 45.2285 53.5309C45.7917 54.1247 46.4728 54.5931 47.2718 54.9362ZM65.1338 52.4225H70.3009L71.4011 55.1935H73.8766L68.238 42.1892H67.1771L61.5974 55.1935H64.0336L65.1338 52.4225ZM67.7272 45.8906L69.4954 50.4035H65.9393L67.7272 45.8906ZM80.4377 52.2245C81.0009 54.3622 82.4941 55.4311 84.9172 55.4311C85.5983 55.4311 86.2073 55.3453 86.7444 55.1738C87.2945 54.989 87.7594 54.7317 88.1393 54.4018C88.5322 54.0587 88.8335 53.6496 89.043 53.1746C89.2526 52.6996 89.3574 52.1651 89.3574 51.5713C89.3574 50.4893 89.0758 49.6316 88.5126 48.9982C87.9625 48.3648 87.0784 47.8765 85.8602 47.5334C85.3101 47.3883 84.8583 47.2497 84.5046 47.1178C84.151 46.9858 83.8694 46.8473 83.6598 46.7021C83.4633 46.5438 83.3193 46.3788 83.2276 46.2073C83.149 46.0357 83.1097 45.8312 83.1097 45.5937V45.5343C83.1097 45.1516 83.2603 44.8481 83.5616 44.6238C83.8628 44.3863 84.282 44.2675 84.819 44.2675C85.9061 44.2675 86.5741 44.7294 86.8229 45.6531L88.9055 44.7821C88.3161 43.0271 86.9867 42.1496 84.9172 42.1496C84.2754 42.1496 83.6991 42.2354 83.1883 42.4069C82.6775 42.5785 82.2452 42.8226 81.8916 43.1393C81.5379 43.456 81.2629 43.8387 81.0664 44.2873C80.8831 44.7228 80.7914 45.2044 80.7914 45.7322C80.7914 46.7879 81.0861 47.6258 81.6755 48.246C82.2649 48.853 83.1883 49.3149 84.4457 49.6316C84.9565 49.7635 85.3756 49.8955 85.7031 50.0274C86.0436 50.1594 86.3056 50.3045 86.4889 50.4629C86.6854 50.6212 86.8229 50.7994 86.9015 50.9973C86.9801 51.1953 87.0194 51.413 87.0194 51.6505C87.0194 52.1651 86.8426 52.5742 86.4889 52.8777C86.1353 53.168 85.6507 53.3132 85.0351 53.3132C84.3671 53.3132 83.8366 53.1746 83.4437 52.8975C83.0639 52.6072 82.7626 52.119 82.5399 51.4328L80.4377 52.2245ZM100.032 42.4069H97.6158V55.1935H100.032V42.4069ZM119.604 55.2925V42.4069H117.305V50.4629L110.193 42.2882H109.112V55.1935H111.431V47.098L118.543 55.2925H119.604ZM131.672 54.9164C132.471 55.2595 133.369 55.4311 134.364 55.4311C135.307 55.4311 136.178 55.2595 136.977 54.9164C137.776 54.5733 138.464 54.1049 139.04 53.5111C139.616 52.9173 140.062 52.2179 140.376 51.413C140.703 50.5948 140.867 49.7173 140.867 48.7804C140.867 47.8567 140.717 46.9924 140.415 46.1875C140.114 45.3694 139.682 44.6634 139.119 44.0696C138.555 43.4626 137.868 42.9875 137.056 42.6444C136.257 42.3014 135.36 42.1298 134.364 42.1298C133.421 42.1298 132.55 42.3014 131.751 42.6444C130.965 42.9875 130.284 43.4626 129.708 44.0696C129.131 44.6634 128.68 45.3694 128.352 46.1875C128.038 46.9924 127.881 47.8567 127.881 48.7804C127.881 49.7173 128.031 50.5948 128.333 51.413C128.634 52.2179 129.066 52.9173 129.629 53.5111C130.192 54.1049 130.874 54.5733 131.672 54.9164ZM136.034 52.8975C135.536 53.1218 134.98 53.234 134.364 53.234C133.748 53.234 133.192 53.1218 132.694 52.8975C132.196 52.66 131.771 52.3433 131.417 51.9474C131.063 51.5515 130.788 51.0831 130.592 50.5421C130.395 50.001 130.297 49.4138 130.297 48.7804C130.297 48.147 130.395 47.5598 130.592 47.0188C130.788 46.4778 131.063 46.0093 131.417 45.6135C131.771 45.2176 132.196 44.9075 132.694 44.6832C133.192 44.4457 133.748 44.3269 134.364 44.3269C134.98 44.3269 135.536 44.4457 136.034 44.6832C136.545 44.9075 136.977 45.2176 137.331 45.6135C137.684 46.0093 137.959 46.4778 138.156 47.0188C138.352 47.5598 138.451 48.147 138.451 48.7804C138.451 49.4138 138.352 50.001 138.156 50.5421C137.959 51.0831 137.684 51.5515 137.331 51.9474C136.977 52.3433 136.545 52.66 136.034 52.8975Z" fill="#00CFA6"/>
<path fill-rule="evenodd" clip-rule="evenodd" d="M24.1807 12.0374C24.1807 18.6854 18.7677 24.0747 12.0903 24.0747C11.8366 24.0747 11.5846 24.067 11.3347 24.0516V15.5216C11.5777 15.5772 11.8306 15.6065 12.0903 15.6065C13.9683 15.6065 15.4908 14.0727 15.4908 12.1807C15.4908 10.2887 13.9683 8.7549 12.0903 8.7549C10.2124 8.7549 8.68994 10.2887 8.68994 12.1807V23.5921V24.0747V31.9742H0V12.0374C0 5.38936 5.41303 6.10352e-05 12.0903 6.10352e-05C18.7677 6.10352e-05 24.1807 5.38936 24.1807 12.0374Z" fill="#FF2400"/>
<path fill-rule="evenodd" clip-rule="evenodd" d="M132.994 12.0373C132.994 18.6854 127.581 24.0747 120.903 24.0747C120.65 24.0747 120.398 24.0669 120.148 24.0516V15.5216C120.391 15.5771 120.644 15.6064 120.903 15.6064C122.781 15.6064 124.304 14.0727 124.304 12.1806C124.304 10.2886 122.781 8.75484 120.903 8.75484C119.025 8.75484 117.503 10.2886 117.503 12.1806V23.5921V24.0747V31.9742H108.813V12.0373C108.813 5.3893 114.226 0 120.903 0C127.581 0 132.994 5.3893 132.994 12.0373Z" fill="#FF2400"/>
<path d="M35.5154 4.37742C35.5154 5.52705 35.0514 6.67667 34.2499 7.47257C33.4484 8.31268 32.3516 8.75484 31.1704 8.75484C30.0314 8.75484 28.9346 8.31268 28.091 7.47257C27.2895 6.63246 26.8254 5.52705 26.8254 4.37742C26.8254 3.2278 27.2895 2.07818 28.091 1.28228C28.8925 0.442174 29.9893 0 31.1704 0C32.3094 0 33.4062 0.442174 34.2499 1.28228C35.0514 2.07818 35.5154 3.2278 35.5154 4.37742Z" fill="#FF2400"/>
<path d="M35.5154 11.0388H26.8254V31.9742H35.5154V11.0388Z" fill="#FF2400"/>
<path d="M79.3429 20.1742V11.4194H64.9856V20.1742H79.3429Z" fill="#FF2400"/>
<path fill-rule="evenodd" clip-rule="evenodd" d="M62.3409 31.9742V12.0618C62.3409 5.3995 56.909 0 50.2943 0C43.5921 0 38.1602 5.3995 38.1602 12.0618V31.9742H46.8501V23.6881V12.3666V12.323C46.8501 12.2998 46.8503 12.2765 46.8508 12.2533C46.8503 12.2291 46.8501 12.2049 46.8501 12.1806C46.8501 10.2886 48.3725 8.75484 50.2505 8.75484C52.1285 8.75484 53.6509 10.2886 53.6509 12.1806C53.6509 12.2049 53.6507 12.2291 53.6502 12.2532C53.6507 12.2765 53.6509 12.2998 53.6509 12.323V31.9742H62.3409Z" fill="#FF2400"/>
<path fill-rule="evenodd" clip-rule="evenodd" d="M106.168 0.380623V19.9124C106.168 26.5747 100.736 31.9742 94.1218 31.9742C87.4196 31.9742 81.9877 26.5747 81.9877 19.9124V0.380623H90.6776V8.28607V19.6076V19.6511C90.6776 19.6744 90.6779 19.6977 90.6784 19.7209C90.6779 19.7451 90.6776 19.7693 90.6776 19.7935C90.6776 21.6856 92.2 23.2193 94.078 23.2193C95.956 23.2193 97.4784 21.6856 97.4784 19.7935C97.4784 19.7693 97.4782 19.7451 97.4777 19.7209C97.4782 19.6977 97.4784 19.6744 97.4784 19.6511V0.380623H106.168Z" fill="#FF2400"/>
<path fill-rule="evenodd" clip-rule="evenodd" d="M184 18.851V24.3613H177.347V18.851H173.586V12.1806H177.347V9.38899C177.347 9.37126 177.347 9.35354 177.346 9.33581C177.347 9.31742 177.347 9.29897 177.347 9.28049C177.347 7.83895 176.181 6.67035 174.743 6.67035C173.306 6.67035 172.14 7.83895 172.14 9.28049C172.14 9.29897 172.14 9.31742 172.141 9.33581C172.14 9.35354 172.14 9.37126 172.14 9.38899V9.42217V18.0481V24.3613H165.487V9.18993C165.487 4.11391 169.645 0 174.777 0C179.841 0 184 4.11391 184 9.18993V12.1806V18.851Z" fill="#FF2400"/>
<path fill-rule="evenodd" clip-rule="evenodd" d="M162.842 0.380693V15.315C162.842 20.3117 158.768 24.3613 153.807 24.3613C148.78 24.3613 144.706 20.3117 144.706 15.315V0.380693H151.224V6.59524V15.0864V15.119C151.224 15.1365 151.224 15.1539 151.224 15.1714C151.224 15.1895 151.224 15.2076 151.224 15.2258C151.224 16.6449 152.366 17.7952 153.774 17.7952C155.183 17.7952 156.324 16.6449 156.324 15.2258C156.324 15.2076 156.324 15.1895 156.324 15.1714C156.324 15.1539 156.324 15.1365 156.324 15.119V0.380693H162.842Z" fill="#FF2400"/>
<path d="M138.85 24.3613C140.606 24.3613 142.062 22.9185 142.062 21.1259C142.062 19.3332 140.649 17.8904 138.85 17.8904C137.095 17.8904 135.639 19.3332 135.639 21.1259C135.639 22.9185 137.095 24.3613 138.85 24.3613Z" fill="#FF2400"/>
</svg>
