<svg width="80" height="44" viewBox="0 0 80 44" fill="none" xmlns="http://www.w3.org/2000/svg">
<g clip-path="url(#clip0_727_39266)">
<g clip-path="url(#clip1_727_39266)">
<path d="M7.28421 34.6064L9.69343 25.6328H22.8729C23.3743 25.6328 23.8191 25.7264 24.2053 25.9157C24.5916 26.1049 24.9056 26.3624 25.1456 26.694C25.3855 27.0257 25.5416 27.408 25.6157 27.8469C25.6899 28.2859 25.6586 28.756 25.5221 29.2574L24.0863 34.6084H20.7193L22.155 29.2574C22.2467 28.9511 22.2097 28.6877 22.0438 28.4712C21.878 28.2547 21.6478 28.1454 21.3513 28.1454H19.0943L17.3678 34.6064H14.0008L15.7272 28.1454H12.3777L10.6513 34.6064H7.28421Z" fill="#F0EFE7"/>
<path d="M27.153 31.0677L27.6485 29.1715H36.4524C36.5089 28.8867 36.4621 28.6448 36.308 28.4458C36.1539 28.2469 35.9295 28.1454 35.633 28.1454H27.9235L29.8899 25.6328H37.1546C37.6345 25.6328 38.0637 25.7206 38.4441 25.8981C38.8245 26.0756 39.1366 26.3175 39.3766 26.6238C39.6165 26.932 39.7784 27.2929 39.8643 27.7104C39.9501 28.1259 39.9404 28.5726 39.8389 29.0525H39.8565L38.368 34.6084H29.8216C29.332 34.6084 28.8931 34.5167 28.5049 34.3352C28.1167 34.1538 27.8045 33.9022 27.5646 33.5822C27.3246 33.2643 27.1686 32.8878 27.0944 32.4547C27.0203 32.0216 27.0398 31.5612 27.1549 31.0696L27.153 31.0677ZM31.3218 32.0938H35.6642L35.9549 31.0677H30.52C30.4634 31.3525 30.5083 31.5944 30.6566 31.7953C30.8048 31.9943 31.0272 32.0938 31.3237 32.0938H31.3218Z" fill="#F0EFE7"/>
<path d="M41.3839 27.5309L41.897 25.6328H43.5727L44.3764 22.6423H47.7435L46.9397 25.6328H51.5377L51.9806 27.5309H46.4247L45.502 31.0014C45.422 31.2979 45.4591 31.5534 45.6132 31.77C45.7654 31.9865 45.9917 32.0958 46.2882 32.0958H51.0403L51.6567 34.6084H44.7841C44.2828 34.6084 43.838 34.5147 43.4517 34.3275C43.0635 34.1382 42.7514 33.8788 42.5115 33.5491C42.2715 33.2175 42.1155 32.8371 42.0413 32.404C41.9672 31.9709 41.9984 31.4969 42.135 30.9858L43.0577 27.5329H41.382L41.3839 27.5309Z" fill="#F0EFE7"/>
<path d="M53.4183 30.9838L53.8806 29.2574C54.0172 28.756 54.2396 28.2859 54.5478 27.8469C54.856 27.408 55.2169 27.0237 55.6324 26.694C56.048 26.3624 56.5025 26.1049 56.9921 25.9157C57.4818 25.7264 57.9773 25.6328 58.4806 25.6328H67.027L65.0606 28.1454H58.6327C58.3265 28.1454 58.0417 28.2547 57.7783 28.4712C57.5149 28.6877 57.3394 28.9511 57.2477 29.2574L56.7873 30.9838C56.6956 31.292 56.7268 31.5534 56.8809 31.77C57.0331 31.9865 57.2652 32.0958 57.5735 32.0958H65.283L63.3341 34.6084H56.0694C55.5681 34.6084 55.1233 34.5147 54.7351 34.3274C54.3469 34.1382 54.0347 33.8788 53.7948 33.5491C53.5549 33.2174 53.3988 32.8331 53.3247 32.3942C53.2505 31.9553 53.2817 31.4871 53.4183 30.9838Z" fill="#F0EFE7"/>
<path d="M72.9203 22.6423L72.1166 25.6328H77.2959C77.7973 25.6328 78.242 25.7264 78.6283 25.9157C79.0145 26.1049 79.3286 26.3624 79.5686 26.694C79.8085 27.0257 79.9646 27.408 80.0387 27.847C80.1128 28.2859 80.0816 28.756 79.9451 29.2574L78.5093 34.6084H75.1422L76.578 29.2574C76.6697 28.9511 76.6326 28.6877 76.4668 28.4712C76.303 28.2547 76.0708 28.1454 75.7743 28.1454H71.4319L69.7054 34.6064H66.3384L69.5513 22.6423H72.9203Z" fill="#F0EFE7"/>
<path d="M0 13.4775L0.513056 11.5794H2.18878L2.9925 8.58881H6.35955L5.55583 11.5794H10.1538L10.5967 13.4775H5.04082L4.1181 16.9479C4.03812 17.2444 4.07519 17.5 4.2293 17.7165C4.38146 17.9331 4.60775 18.0423 4.90427 18.0423H9.65638L10.2728 20.5549H3.40217C2.90082 20.5549 2.45604 20.4613 2.06978 20.274C1.68158 20.0848 1.36945 19.8253 1.1295 19.4956C0.889557 19.164 0.733495 18.7836 0.659365 18.3505C0.585235 17.9175 0.616448 17.4434 0.753002 16.9323L1.67572 13.4794H0V13.4775Z" fill="#F0EFE7"/>
<path d="M12.0344 16.9304L12.4967 15.2039C12.6333 14.7143 12.8518 14.25 13.1541 13.8111C13.4565 13.3721 13.8115 12.9878 14.2232 12.6581C14.6348 12.3285 15.0854 12.0651 15.5828 11.872C16.0783 11.6788 16.5816 11.5813 17.0967 11.5813H22.0185C22.5198 11.5813 22.9646 11.6749 23.3528 11.8642C23.741 12.0534 24.0532 12.3109 24.2931 12.6425C24.533 12.9742 24.6891 13.3546 24.7632 13.7876C24.8374 14.2207 24.8062 14.6928 24.6696 15.2059L24.2073 16.9323C24.0707 17.422 23.8503 17.8862 23.5499 18.3252C23.2475 18.7641 22.8924 19.1484 22.4808 19.4781C22.0692 19.8078 21.6186 20.0711 21.1211 20.2642C20.6256 20.4574 20.1223 20.5549 19.6093 20.5549H14.6855C14.1724 20.5549 13.7257 20.4613 13.3434 20.274C12.961 20.0848 12.6508 19.8253 12.4109 19.4956C12.1709 19.164 12.0149 18.7836 11.9407 18.3505C11.8666 17.9175 11.8978 17.4434 12.0344 16.9323V16.9304ZM19.4356 18.0404C19.7322 18.0404 20.017 17.9331 20.2901 17.7146C20.5632 17.498 20.7446 17.2366 20.8363 16.9284L21.2967 15.202C21.3884 14.8957 21.3513 14.6323 21.1855 14.4158C21.0197 14.1993 20.7895 14.09 20.493 14.09H17.2449C16.9386 14.09 16.6538 14.1993 16.3905 14.4158C16.1271 14.6323 15.9515 14.8957 15.8599 15.202L15.3995 16.9284C15.3078 17.2366 15.339 17.498 15.4931 17.7146C15.6453 17.9311 15.8774 18.0404 16.1856 18.0404H19.4356Z" fill="#F0EFE7"/>
<path d="M27.4514 12.4006L27.6738 11.5794H36.2202C36.7216 11.5794 37.1663 11.673 37.5526 11.8622C37.9388 12.0514 38.2529 12.3089 38.4929 12.6406C38.7328 12.9722 38.8889 13.3546 38.963 13.7935C39.0371 14.2324 39.0059 14.7026 38.8694 15.2039L38.407 16.9304C38.2705 17.4317 38.0481 17.9018 37.7399 18.3408C37.4316 18.7797 37.0707 19.164 36.6533 19.4956C36.2378 19.8253 35.7852 20.0848 35.2936 20.274C34.8039 20.4613 34.3084 20.5549 33.8071 20.5549H28.6278L27.824 23.5474H24.457L27.4495 12.4026L27.4514 12.4006ZM33.6393 18.0403C33.9358 18.0403 34.2206 17.9331 34.4938 17.7146C34.7669 17.498 34.9502 17.2366 35.04 16.9284L35.5023 15.202C35.594 14.8957 35.5569 14.6323 35.3911 14.4158C35.2253 14.1993 34.9951 14.09 34.6986 14.09H30.3561L29.2969 18.0384H33.6374L33.6393 18.0403Z" fill="#F0EFE7"/>
<path d="M49.3528 20.4808L46.7485 18.0755C46.6587 17.9916 46.5222 17.9799 46.4188 18.0462L42.6733 20.4164C42.4645 20.5491 42.2012 20.3559 42.2656 20.116L44.4953 11.7822C44.5265 11.6632 44.6338 11.5813 44.7567 11.5813H51.7912C51.9707 11.5813 52.0995 11.751 52.0526 11.9227L49.7975 20.354C49.7449 20.551 49.501 20.6212 49.3508 20.4827L49.3528 20.4808Z" fill="#F04E23"/>
</g>
</g>
<defs>
<clipPath id="clip0_727_39266">
<rect width="80" height="44" fill="white"/>
</clipPath>
<clipPath id="clip1_727_39266">
<rect width="80.0777" height="26.0176" fill="white" transform="translate(0 8.58881)"/>
</clipPath>
</defs>
</svg>
