<?xml version="1.0" encoding="UTF-8"?>
<svg version="1.1" xmlns="http://www.w3.org/2000/svg" width="712" height="348">
<path d="M0 0 C234.96 0 469.92 0 712 0 C712 114.84 712 229.68 712 348 C477.04 348 242.08 348 0 348 C0 233.16 0 118.32 0 0 Z " fill="#252422" transform="translate(0,0)"/>
<path d="M0 0 C0.06940553 6.07903326 -0.1557252 12.01752659 -0.71850586 18.06811523 C-0.79492813 18.9245311 -0.8713504 19.78094696 -0.9500885 20.66331482 C-1.20095709 23.46212343 -1.45768115 26.26035698 -1.71484375 29.05859375 C-1.89204717 31.01389963 -2.06900975 32.96922735 -2.2457428 34.92457581 C-2.61553819 39.00554496 -2.98824613 43.08623474 -3.36303711 47.16674805 C-3.8438551 52.40424063 -4.31732739 57.64236716 -4.78865719 62.88072109 C-5.15203367 66.91031098 -5.51925843 70.93954293 -5.8876667 74.96867561 C-6.06389141 76.90113554 -6.23890656 78.83370616 -6.41270256 80.76638603 C-6.65525125 83.45718227 -6.90296749 86.14745292 -7.15209961 88.83764648 C-7.22331024 89.63918152 -7.29452087 90.44071655 -7.3678894 91.26654053 C-7.8857302 96.77146041 -7.8857302 96.77146041 -9 99 C-12.08087246 99.44948899 -15.08754564 99.76239353 -18.1875 100 C-19.1556665 100.08121094 -20.12383301 100.16242188 -21.12133789 100.24609375 C-30.67788492 101.02554704 -40.24716212 101.63640586 -49.81567383 102.24780273 C-57.5146394 102.74503065 -65.19357242 103.3461459 -72.875 104.0625 C-81.58531665 104.86885525 -90.273447 105.29917409 -99.0144043 105.60571289 C-106.90643249 105.90256959 -114.73746726 106.53807442 -122.59936523 107.27172852 C-128.58758253 107.81999211 -134.55439179 108.20372382 -140.5625 108.4375 C-148.98920062 108.7789501 -157.37790457 109.41716388 -165.7807312 110.12161255 C-185.92071463 111.80647655 -206.0827731 112.97914393 -226.25864029 114.12868881 C-244.49689011 115.16849834 -262.71938394 116.26016531 -280.92288208 117.80999756 C-294.96721967 119.00145398 -309.02211239 119.73359419 -323.10253906 120.35400391 C-323.91370682 120.3907019 -324.72487457 120.4273999 -325.56062317 120.46520996 C-327.06625057 120.53278645 -328.57201527 120.5974039 -330.07792664 120.6583252 C-334.44046682 120.85364013 -338.68382006 121.35218276 -343 122 C-345.85593223 122.15284474 -348.70488331 122.27511151 -351.5625 122.375 C-360.32785962 122.73895687 -369.05609244 123.38822506 -377.79684448 124.12261963 C-397.17965435 125.74705684 -416.58243996 126.89278438 -436 128 C-454.36185013 129.04764924 -472.71244305 130.0996803 -491.03817749 131.67523193 C-510.90128017 133.36897348 -530.81559437 134.39268652 -550.71748829 135.51549721 C-553.64389574 135.6808327 -556.57021214 135.84775065 -559.49652672 136.01472092 C-561.52515254 136.12959175 -563.553922 136.24160381 -565.5827179 136.35342407 C-571.41265296 136.68473093 -577.20018294 137.08095575 -582.99772644 137.77880859 C-586.38139233 138.15260258 -589.77241416 138.306654 -593.171875 138.46484375 C-594.72396013 138.54228167 -596.27604339 138.61975715 -597.828125 138.69726562 C-598.63056641 138.73634033 -599.43300781 138.77541504 -600.25976562 138.81567383 C-616.31430234 139.60108695 -632.34344994 140.58795444 -648.37597656 141.74121094 C-654.37610909 142.16967634 -660.37721895 142.58319356 -666.37890625 142.98925781 C-668.31784082 143.12111295 -670.2565804 143.25582563 -672.1953125 143.390625 C-673.96648438 143.51050781 -673.96648438 143.51050781 -675.7734375 143.6328125 C-676.80903809 143.70387207 -677.84463867 143.77493164 -678.91162109 143.84814453 C-682.2788034 144.01370875 -685.62928819 144.02486634 -689 144 C-687.70967474 124.64614207 -686.11563281 105.3334242 -684.34057617 86.01904297 C-683.99870207 82.29902088 -683.66143631 78.57859661 -683.32541561 74.85804176 C-683.06199216 71.94620575 -682.79638322 69.03457233 -682.53009224 66.12299728 C-682.40467593 64.74921813 -682.27988881 63.37538137 -682.15577507 62.00148392 C-681.98357502 60.09925869 -681.80813797 58.19732734 -681.63256836 56.29541016 C-681.53423203 55.22070465 -681.43589569 54.14599915 -681.33457947 53.03872681 C-681.00004481 50.00040702 -680.53165749 47.00953691 -680 44 C-679.07775635 43.94465088 -678.1555127 43.88930176 -677.20532227 43.83227539 C-673.74427065 43.6234694 -670.28335551 43.41262024 -666.82250977 43.20043945 C-665.33199872 43.10946627 -663.84143945 43.01927935 -662.35083008 42.92993164 C-652.89845927 42.40768189 -652.89845927 42.40768189 -643.48046875 41.484375 C-637.38744805 40.74733347 -631.24886843 40.58328644 -625.12176514 40.2991333 C-608.84746836 39.53314115 -592.61624469 38.40450133 -576.375 37.125 C-552.39934975 35.23705463 -528.40888492 33.77652932 -504.39770603 32.43099117 C-501.53802204 32.27048326 -498.67843725 32.10824362 -495.81885338 31.94596291 C-493.8528968 31.83540148 -491.88675454 31.72815726 -489.92060852 31.62101746 C-482.87642163 31.23928092 -482.87642163 31.23928092 -475.86523438 30.49072266 C-470.70736899 29.83589007 -465.55372653 29.58371732 -460.36328125 29.31640625 C-458.06965763 29.19212796 -455.77603797 29.06777655 -453.48242188 28.94335938 C-449.91796313 28.75332304 -446.35343971 28.56464726 -442.78881836 28.37768555 C-430.16260337 27.71156911 -417.57986706 26.94892632 -404.99917603 25.67471313 C-398.39858816 25.01188068 -391.81948415 24.62541386 -385.1875 24.4375 C-383.22255362 24.376941 -381.25770216 24.31320789 -379.29296875 24.24609375 C-378.4630542 24.22216553 -377.63313965 24.1982373 -376.77807617 24.17358398 C-374.65514398 24.0409357 -372.53828875 23.80740393 -370.42944336 23.52954102 C-364.91789229 22.81285487 -359.38341906 22.57055035 -353.8359375 22.28125 C-351.47395764 22.15235649 -349.11197849 22.02344984 -346.75 21.89453125 C-343.0524581 21.69616738 -339.35485827 21.49892863 -335.65722656 21.30224609 C-332.07080829 21.11050736 -328.48462368 20.91477452 -324.8984375 20.71875 C-323.79519135 20.661427 -322.69194519 20.604104 -321.55526733 20.54504395 C-320.5204422 20.48828491 -319.48561707 20.43152588 -318.41943359 20.37304688 C-317.5153476 20.32498901 -316.6112616 20.27693115 -315.67977905 20.22741699 C-313.01462652 20.0454538 -313.01462652 20.0454538 -310.47700882 19.53279781 C-305.89172355 18.83017378 -301.3151801 18.54425338 -296.68807983 18.24781799 C-295.65071359 18.17895431 -294.61334735 18.11009063 -293.54454577 18.03914016 C-290.06812863 17.80911022 -286.59144489 17.58339594 -283.11474609 17.35766602 C-280.62056331 17.19353194 -278.12639766 17.02913742 -275.63224792 16.86450195 C-269.55313464 16.46393909 -263.47384321 16.06618951 -257.39445995 15.66975278 C-250.28236869 15.2058602 -243.17048379 14.73884038 -236.0586036 14.27172493 C-223.32862068 13.43572228 -210.5984458 12.60267907 -197.86816406 11.77124023 C-185.59294628 10.96952088 -173.31787712 10.16557385 -161.04296875 9.35913086 C-145.47823854 8.33655626 -129.91337088 7.31609836 -114.34839546 6.29726322 C-109.42843743 5.97515718 -104.50852783 5.652318 -99.58863449 5.32922554 C-49.17745758 2.01970512 -49.17745758 2.01970512 -27.00244141 0.75756836 C-25.93743003 0.69548996 -25.93743003 0.69548996 -24.85090327 0.63215744 C-16.55746762 0.15201122 -8.30749146 -0.10548185 0 0 Z " fill="#02CEA5" transform="translate(697,139)"/>
<path d="M0 0 C-0.41311312 18.15632181 -2.65621015 36.01357104 -5 54 C-22.52442895 55.36133318 -40.05381579 56.52819013 -57.60047913 57.56089783 C-63.11948409 57.88640033 -68.6379094 58.22082016 -74.15617371 58.55863953 C-78.55260522 58.82774064 -82.94913613 59.09519922 -87.34567261 59.36257935 C-89.4909946 59.49336659 -91.63628028 59.62475113 -93.78152466 59.75680542 C-105.9118322 60.50263237 -118.03819162 61.18311224 -130.18374634 61.629776 C-135.41451911 61.83457142 -140.58803166 62.22260999 -145.79336548 62.77613831 C-148.41349825 63.04194914 -151.02461014 63.18719139 -153.65625 63.28125 C-155.09677734 63.33732422 -155.09677734 63.33732422 -156.56640625 63.39453125 C-159.5 63.5 -159.5 63.5 -162.43359375 63.60546875 C-167.85472518 63.81649266 -173.21016096 64.19572729 -178.60400391 64.77246094 C-182.54233073 65.14646956 -186.48491903 65.24565374 -190.4375 65.375 C-202.14446481 65.8160158 -213.81643201 66.65786441 -225.5 67.5 C-238.03858386 68.40376396 -250.56237347 69.29775081 -263.12890625 69.70898438 C-267.06610464 69.84173531 -270.9530714 70.07325514 -274.87109375 70.4921875 C-281.37856612 71.18316826 -287.8968195 71.37045822 -294.43359375 71.60546875 C-299.85472518 71.81649266 -305.21016096 72.19572729 -310.60400391 72.77246094 C-314.54233073 73.14646956 -318.48491903 73.24565374 -322.4375 73.375 C-334.14446481 73.8160158 -345.81643201 74.65786441 -357.5 75.5 C-370.03858386 76.40376396 -382.56237347 77.29775081 -395.12890625 77.70898438 C-399.07620805 77.84207597 -402.97401533 78.0744606 -406.90234375 78.4921875 C-412.26297436 79.06051097 -417.61476383 79.29774842 -423 79.5 C-433.00650827 79.90358686 -443.00268969 80.41339128 -453 81 C-451.94642011 68.20761078 -450.76236389 55.43405168 -449.42578125 42.66796875 C-449.28657225 41.3315116 -449.14745239 39.99504517 -449.00842285 38.65856934 C-448.67315236 35.4389544 -448.33699843 32.21943444 -448 29 C-446.89245865 28.92705215 -445.7849173 28.85410431 -444.64381409 28.77894592 C-434.18329671 28.08970266 -423.72292178 27.39833237 -413.26268101 26.7049036 C-407.88555799 26.34851214 -402.50838834 25.99285844 -397.13110352 25.63891602 C-391.93737663 25.29702802 -386.74378358 24.95316909 -381.5502758 24.60796928 C-379.5732985 24.47690729 -377.59627474 24.34654388 -375.61920357 24.21690559 C-372.84049027 24.0345806 -370.06195563 23.84972514 -367.28344727 23.66430664 C-366.47423828 23.61179749 -365.6650293 23.55928833 -364.83129883 23.50518799 C-360.23297098 23.19534757 -355.66769902 22.75454826 -351.0895586 22.226367 C-348.17682596 21.91082354 -345.26403063 21.72981616 -342.33911133 21.56689453 C-341.09973816 21.49646439 -339.86036499 21.42603424 -338.58343506 21.35346985 C-337.93291924 21.31761591 -337.28240341 21.28176197 -336.61217499 21.24482155 C-334.52640539 21.12974346 -332.44083379 21.01152256 -330.35528564 20.89250183 C-327.37900836 20.72279438 -324.40267898 20.55405421 -321.42630005 20.38613892 C-299.12207503 19.12581232 -276.83450604 17.80257787 -254.57128906 15.9362793 C-246.08356932 15.22638517 -237.61203362 14.67513667 -229.10131836 14.34082031 C-223.25328811 14.09912167 -217.45109938 13.61615359 -211.625 13.0625 C-199.34514079 11.90414493 -187.04044805 11.33690698 -174.72119141 10.78540039 C-166.2409197 10.39410329 -157.80144134 9.83827417 -149.34765625 9.05859375 C-139.97967877 8.20091313 -130.60597682 7.57065482 -121.21484375 7.03515625 C-120.1771412 6.97593522 -120.1771412 6.97593522 -119.11847496 6.91551781 C-115.53581364 6.71184864 -111.95301764 6.5106623 -108.37014771 6.31069946 C-100.83728501 5.88988203 -93.30518505 5.45592314 -85.7734375 5.015625 C-85.03593576 4.97251505 -84.29843403 4.9294051 -83.53858376 4.88498878 C-71.36795233 4.17005723 -59.21213054 3.32554762 -47.0625 2.3125 C-46.31519623 2.25026245 -45.56789246 2.1880249 -44.79794312 2.12390137 C-44.07144562 2.06335571 -43.34494812 2.00281006 -42.59643555 1.94042969 C-28.39667392 0.75853562 -14.25080969 -0.08328395 0 0 Z " fill="#F52603" transform="translate(576,246)"/>
<path d="M0 0 C114.84 0 229.68 0 348 0 C348 25 348 25 344 33 C338.89082665 38.00046754 334.55780995 40.24683373 327.42237282 40.25726891 C326.30553128 40.2637178 325.18868974 40.27016669 324.03800452 40.276811 C322.20519433 40.2721652 322.20519433 40.2721652 320.33535767 40.26742554 C319.0333713 40.27195665 317.73138493 40.27648776 316.38994443 40.28115618 C312.77762793 40.29339218 309.165404 40.29312502 305.5530715 40.29076743 C301.65658738 40.29035942 297.760133 40.30139687 293.86366272 40.31088257 C286.2305328 40.3274965 278.59743378 40.33299228 270.9642873 40.33410732 C264.76022814 40.33505755 258.55617919 40.33916658 252.35212326 40.34550858 C234.76444691 40.36312156 217.17679497 40.37234728 199.58910973 40.37084763 C198.16683147 40.37072776 198.16683147 40.37072776 196.71582031 40.37060547 C195.29180667 40.37048283 195.29180667 40.37048283 193.83902507 40.37035771 C178.45046362 40.36954465 163.06200002 40.38868718 147.67346688 40.4168822 C131.87456442 40.44560085 116.07570971 40.45942308 100.27678049 40.45769465 C91.40607279 40.45703043 82.53546768 40.46253695 73.66478348 40.48405075 C66.11273684 40.50224908 58.56083931 40.50662097 51.00878026 40.4930319 C47.15571691 40.48649557 43.30293973 40.4864088 39.44990349 40.5037384 C35.27258827 40.52233329 31.09593744 40.50993223 26.91860962 40.49447632 C25.09249159 40.50990701 25.09249159 40.50990701 23.22948229 40.52564943 C15.66951011 40.46367973 10.99874286 39.66017653 5.29296875 34.4375 C-3.71461397 22.72445958 0 19.81686529 0 0 Z " fill="#00CCA4" transform="translate(157,87)"/>
<path d="M0 0 C4.91427978 4.16219923 8.51753837 9.80913021 9.26325989 16.28678894 C9.34532916 18.89287299 9.33759977 21.48285518 9.29296875 24.08984375 C9.28872391 25.03436905 9.28447906 25.97889435 9.28010559 26.95204163 C9.26340933 29.94749324 9.22577406 32.9422542 9.1875 35.9375 C9.17244146 37.97720378 9.1587551 40.01691817 9.14648438 42.05664062 C9.11353547 47.03802361 9.06181604 52.01889499 9 57 C3.39 57 -2.22 57 -8 57 C-8.01458252 55.76846191 -8.02916504 54.53692383 -8.04418945 53.26806641 C-8.10205652 48.70933642 -8.17928932 44.15110643 -8.26245117 39.59277344 C-8.29575528 37.61792094 -8.32376997 35.642972 -8.34643555 33.66796875 C-8.37988122 30.83291423 -8.43219046 27.998748 -8.48828125 25.1640625 C-8.49467117 24.27756012 -8.5010611 23.39105774 -8.50764465 22.47769165 C-8.52743881 21.65699188 -8.54723297 20.83629211 -8.56762695 19.99072266 C-8.57873001 19.26680328 -8.58983307 18.54288391 -8.60127258 17.79702759 C-8.87490507 15.58351797 -8.87490507 15.58351797 -12 14 C-14.54207971 13.66656449 -14.54207971 13.66656449 -17 14 C-19.34800136 16.34800136 -19.2602854 16.80884017 -19.31884766 19.99072266 C-19.33871735 20.81142242 -19.35858704 21.63212219 -19.37905884 22.47769165 C-19.39638565 23.80744522 -19.39638565 23.80744522 -19.4140625 25.1640625 C-19.43342865 26.07127045 -19.4527948 26.97847839 -19.4727478 27.91317749 C-19.53263216 30.81702204 -19.57896416 33.72090604 -19.625 36.625 C-19.66317165 38.59116333 -19.70222289 40.5573098 -19.7421875 42.5234375 C-19.83834091 47.3488217 -19.922339 52.17428418 -20 57 C-25.61 57 -31.22 57 -37 57 C-37.12441814 51.05932083 -37.21472356 45.11941469 -37.2746582 39.17773438 C-37.2996658 37.16034722 -37.3336834 35.14304941 -37.37719727 33.12597656 C-37.8427964 10.97441288 -37.8427964 10.97441288 -32 4 C-22.46798571 -5.03264658 -11.45331389 -6.52282533 0 0 Z " fill="#F72300" transform="translate(266,21)"/>
<path d="M0 0 C5.61 0 11.22 0 17 0 C17.495 20.295 17.495 20.295 18 41 C21.3 41 24.6 41 28 41 C28.33 27.47 28.66 13.94 29 0 C34.61 0 40.22 0 46 0 C46.12431026 5.81657256 46.21467313 11.63235894 46.2746582 17.44995117 C46.29968371 19.42567427 46.3337151 21.4013059 46.37719727 23.37670898 C46.43837937 26.22923443 46.46632942 29.0805281 46.48828125 31.93359375 C46.51408768 32.80584091 46.5398941 33.67808807 46.56648254 34.57676697 C46.56977055 41.89178887 44.29073172 47.5752204 39.1855011 52.88841248 C32.96541304 58.60508678 27.40753111 59.4160496 19.08984375 59.23828125 C12.21683342 58.70825138 8.96739296 55.25277549 4.61328125 50.328125 C0.25105855 44.03300459 -0.4273736 38.81877398 -0.29296875 31.34765625 C-0.28872391 30.44752304 -0.28447906 29.54738983 -0.28010559 28.61997986 C-0.26341816 25.76717214 -0.22578497 22.91509137 -0.1875 20.0625 C-0.1724403 18.11915088 -0.15875415 16.17579061 -0.14648438 14.23242188 C-0.11354726 9.48800451 -0.0618344 4.74412517 0 0 Z " fill="#F82300" transform="translate(311,18)"/>
<path d="M0 0 C6.71818757 6.55023288 7.49171591 13.20769786 7.6875 22.375 C7.57759929 32.19279655 4.72918356 40.54759347 -0.6875 48.75 C-5.61221497 53.45583875 -10.80805519 55.62622398 -17.625 55.9375 C-22.34603133 55.70291459 -26.03520042 54.76407619 -29.5 51.4375 C-35.42286256 42.46291863 -35.72075687 31.81010251 -34.00390625 21.44140625 C-31.41736308 12.07432054 -26.37572726 5.12186381 -18.5 -0.5625 C-12.48633702 -2.56705433 -5.78622004 -2.58313395 0 0 Z " fill="#F9FEFD" transform="translate(114.5,201.5625)"/>
<path d="M0 0 C4.03180257 2.90664837 6.98843144 6.3654553 8.30859375 11.22265625 C10.01408703 23.44242766 9.27751443 36.84914583 2.07421875 47.25390625 C-2.02926363 52.23588063 -6.69602308 55.51890375 -13.21484375 56.2734375 C-17.94026428 56.33425372 -21.45155805 56.32184909 -25.8125 54.375 C-31.5607837 48.77042339 -33.44647271 42.8273554 -33.5625 34.9375 C-33.47255365 24.91972517 -31.56792925 13.51311297 -24.453125 5.96484375 C-17.09023186 -0.77524828 -9.79008163 -3.14021486 0 0 Z " fill="#F9FDFD" transform="translate(262.3125,191.0625)"/>
<path d="M0 0 C5.49600799 2.41052982 7.48170918 5.77687829 10 11 C13.28470669 21.09340334 11.30012633 33.84368211 6.93359375 43.3125 C3.48925154 49.31452207 -0.98379085 53.79351634 -7.4375 56.375 C-14.76752809 57.66096984 -19.1394929 57.77974023 -25.3046875 53.48828125 C-30.20883818 49.18302454 -30.78623201 43.16541056 -31.203125 36.9921875 C-31.37584166 25.50652988 -29.91425488 14.81874115 -22 6 C-15.50757292 -0.33503491 -8.84247362 -1.34153623 0 0 Z " fill="#F9FEFD" transform="translate(570,170)"/>
<path d="M0 0 C4.82160647 2.43167599 6.68205628 5.64121977 8.8671875 10.34765625 C12.54407693 21.62509565 9.50228889 34.36595677 4.76953125 44.7578125 C1.67296512 50.37361887 -2.9318015 54.02902906 -9.07421875 55.95703125 C-14.48539135 56.98381922 -19.44087014 57.09963063 -24.5078125 54.84765625 C-29.8716971 49.73919472 -31.8985969 43.60166513 -32.30078125 36.296875 C-32.36678838 25.2736849 -31.00850234 14.69059777 -23.16796875 6.2265625 C-16.19070571 -0.02309024 -9.4477067 -2.88968319 0 0 Z " fill="#FAFEFD" transform="translate(217.1328125,193.65234375)"/>
<path d="M0 0 C3.68564876 3.33463459 6.0520134 6.65604019 7.625 11.375 C8.18190068 24.35208094 8.49099121 36.3915162 0.625 47.375 C-3.55754336 51.85424552 -7.81044623 54.92285896 -14.0234375 55.7109375 C-20.40236578 55.80232616 -24.26799571 55.31164914 -29.375 51.375 C-35.52262079 43.17817227 -34.12253926 31.09301042 -33.375 21.375 C-32.54256145 17.62686993 -31.35182078 14.64910942 -29.375 11.375 C-28.7975 10.3025 -28.22 9.23 -27.625 8.125 C-20.69354356 -0.34678009 -10.53048267 -5.0702324 0 0 Z " fill="#FAFEFD" transform="translate(158.375,198.625)"/>
<path d="M0 0 C4.97755971 4.63028811 7.91753889 9.04403771 8.31640625 15.9609375 C8.3203492 17.93241199 8.29772469 19.9040993 8.25 21.875 C8.26095703 22.85210937 8.27191406 23.82921875 8.28320312 24.8359375 C8.18964843 34.21635513 5.38067357 43.62395284 -1.3125 50.5 C-3.58606033 52.11412941 -5.79111842 53.26309583 -8.3125 54.5 C-9.3025 54.995 -9.3025 54.995 -10.3125 55.5 C-12.24609586 55.64851844 -14.18592097 55.72130833 -16.125 55.75 C-17.16269531 55.77578125 -18.20039063 55.8015625 -19.26953125 55.828125 C-23.8430515 55.33495979 -26.38758442 53.4777679 -29.5 50.1875 C-34.90628107 42.17129014 -34.28573246 31.78609945 -33.3125 22.5 C-31.65620565 14.38454376 -28.11156767 6.70509162 -21.125 2.0390625 C-14.10497369 -1.93163988 -7.52765307 -3.40874856 0 0 Z " fill="#F9FEFD" transform="translate(307.3125,188.5)"/>
<path d="M0 0 C4.9416829 3.25701828 8.12307941 7.36923823 10 13 C10.6620168 20.44296032 11.17091129 27.22967279 6.484375 33.390625 C2.25833117 37.97254621 -2.00574851 40.9662361 -8 43 C-9.98 43 -11.96 43 -14 43 C-14 37.39 -14 31.78 -14 26 C-12.02 25.34 -10.04 24.68 -8 24 C-7.32326553 20.59679066 -7.32326553 20.59679066 -7 17 C-8.94967279 14.60435072 -8.94967279 14.60435072 -12.5625 14.8125 C-15.82963695 14.60712194 -15.82963695 14.60712194 -17 16 C-17.16041193 19.10085221 -17.25963402 22.18187579 -17.31640625 25.28515625 C-17.33718735 26.21597519 -17.35796844 27.14679413 -17.37937927 28.1058197 C-17.44497931 31.09130182 -17.50380802 34.07687484 -17.5625 37.0625 C-17.6056753 39.08138976 -17.64928925 41.1002702 -17.69335938 43.11914062 C-17.80067129 48.07933297 -17.90190888 53.03961709 -18 58 C-23.61 58 -29.22 58 -35 58 C-35.0992969 51.88025582 -35.17167096 45.76098648 -35.21972656 39.640625 C-35.23977159 37.56111475 -35.26701513 35.48166037 -35.30175781 33.40234375 C-35.35058948 30.40350513 -35.37304028 27.40541537 -35.390625 24.40625 C-35.41127014 23.48509399 -35.43191528 22.56393799 -35.45318604 21.61486816 C-35.45564425 14.45227245 -33.79218785 9.18631377 -29.03515625 3.7578125 C-20.03486218 -3.69193586 -10.76899119 -5.61336677 0 0 Z " fill="#F82300" transform="translate(192,20)"/>
<path d="M0 0 C5.85795362 2.92897681 9.79697414 7.5348407 12.75 13.3125 C14.12741032 21.11782516 14.26472093 27.61425127 9.9453125 34.48828125 C6.53439426 38.69072836 2.44578366 41.78890545 -2.6875 43.5 C-5.3275 43.5 -7.9675 43.5 -10.6875 43.5 C-10.6875 38.22 -10.6875 32.94 -10.6875 27.5 C-8.7075 26.84 -6.7275 26.18 -4.6875 25.5 C-4.01076553 22.09679066 -4.01076553 22.09679066 -3.6875 18.5 C-5.63082332 16.12005632 -5.63082332 16.12005632 -9.1875 16.25 C-12.74417668 16.12005632 -12.74417668 16.12005632 -14.6875 18.5 C-14.93356015 21.50886724 -15.06130782 24.43217752 -15.1015625 27.4453125 C-15.12092865 28.3303244 -15.1402948 29.2153363 -15.1602478 30.12716675 C-15.22012723 32.95967916 -15.26646213 35.79223203 -15.3125 38.625 C-15.35067211 40.54298668 -15.38972338 42.46095607 -15.4296875 44.37890625 C-15.52583555 49.08579748 -15.60983542 53.79276896 -15.6875 58.5 C-20.9675 58.5 -26.2475 58.5 -31.6875 58.5 C-31.76190677 52.50434046 -31.81622362 46.50895242 -31.85229492 40.51293945 C-31.86733947 38.47513138 -31.88778012 36.43735546 -31.91381836 34.3996582 C-31.95039247 31.46297244 -31.96726999 28.52671649 -31.98046875 25.58984375 C-31.99595261 24.68540024 -32.01143646 23.78095673 -32.02738953 22.84910583 C-32.02920284 15.96401776 -30.99003934 11.17592409 -26.375 5.8125 C-18.33255735 -1.10774135 -10.24567048 -3.98930909 0 0 Z " fill="#FD2300" transform="translate(393.6875,18.5)"/>
<path d="M0 0 C0.0861953 4.99932751 -0.1627035 8.97622101 -1 14 C-8.59 14.33 -16.18 14.66 -24 15 C-23.67 16.98 -23.34 18.96 -23 21 C-22.34 20.67 -21.68 20.34 -21 20 C-15.8201089 18.27336963 -11.67815722 18.33506978 -6.6875 20.3125 C-1.4300213 23.61370756 -1.4300213 23.61370756 -0.44140625 26.80078125 C0.92874261 33.62727512 0.72745708 40.97102579 -3 47 C-8.34603433 53.24958943 -14.45294748 56.40417439 -22.58203125 57.27734375 C-27.78659649 57.47241741 -31.6004011 57.03781829 -36 54 C-39.18388462 50.73006444 -40.25143723 48.43208453 -41 44 C-39.23244474 43.15973604 -37.46082737 42.32801278 -35.6875 41.5 C-34.70136719 41.0359375 -33.71523438 40.571875 -32.69921875 40.09375 C-30 39 -30 39 -27 39 C-26.34 40.32 -25.68 41.64 -25 43 C-21.81863606 43.21691118 -19.56030453 43.25066255 -16.625 41.9375 C-14.21205273 39.06052441 -14.7265357 36.62340201 -15 33 C-18.26276567 32.13986273 -18.26276567 32.13986273 -22 32 C-22.7425 32.639375 -23.485 33.27875 -24.25 33.9375 C-28.49586029 37.12189522 -32.86574981 36.32370054 -38 36 C-38.43291385 24.59993525 -37.13702941 13.32795794 -36 2 C-24.22110693 -0.45982404 -11.98322655 -0.14172016 0 0 Z " fill="#F8FDFC" transform="translate(535,173)"/>
<path d="M0 0 C3.66683012 2.29176883 5.17874078 3.94108009 7 7.875 C8.45699566 15.71573951 5.67462534 22.91580982 1.31640625 29.3671875 C-1.58361278 33.17151354 -4.60505525 36.48005525 -8 39.875 C-3.38 39.875 1.24 39.875 6 39.875 C6.09765625 49.93359375 6.09765625 49.93359375 6 52.875 C4.22529304 54.64970696 1.61160292 54.23653297 -0.80078125 54.41015625 C-2.6096582 54.54067383 -2.6096582 54.54067383 -4.45507812 54.67382812 C-6.36450195 54.8043457 -6.36450195 54.8043457 -8.3125 54.9375 C-9.54291016 55.02837891 -10.77332031 55.11925781 -12.04101562 55.21289062 C-19.70827908 55.75158373 -27.31460397 55.99512602 -35 55.875 C-35.18798828 51.11962891 -35.18798828 51.11962891 -33.49609375 48.91796875 C-32.81675781 48.30566406 -32.13742188 47.69335938 -31.4375 47.0625 C-28.60947923 44.41371999 -25.95221795 41.76157832 -23.4375 38.8125 C-21.17376239 36.16630444 -18.83277694 33.71480653 -16.3125 31.3125 C-11.96812098 26.9974749 -9.15202024 23.26931871 -8.75 16.9375 C-8.8325 15.926875 -8.915 14.91625 -9 13.875 C-11.78938212 13.45609782 -11.78938212 13.45609782 -15 13.875 C-15.680625 14.720625 -16.36125 15.56625 -17.0625 16.4375 C-20.76375896 19.50875743 -22.12837028 19.07277474 -26.8125 18.6875 C-28.87819055 18.44218492 -30.94217222 18.17930543 -33 17.875 C-31.7908143 10.84512629 -28.14366897 6.71593934 -22.87890625 2.171875 C-16.39706578 -2.30207726 -7.34219209 -2.68578022 0 0 Z " fill="#F8FDFC" transform="translate(69,204.125)"/>
<path d="M0 0 C1.04015259 -0.01546875 1.04015259 -0.01546875 2.10131836 -0.03125 C6.52317532 0.04527294 9.42731556 0.63395589 12.875 3.4375 C16.92612764 8.74127895 16.70130406 14.02762679 15.875 20.4375 C13.3748542 28.63846134 7.69122474 34.36084728 1.875 40.4375 C8.805 40.9325 8.805 40.9325 15.875 41.4375 C15.545 45.7275 15.215 50.0175 14.875 54.4375 C-12.03989362 56.82047872 -12.03989362 56.82047872 -25.125 56.4375 C-25.42346301 53.40574418 -25.51342748 51.94296017 -23.62109375 49.48046875 C-22.94175781 48.86816406 -22.26242187 48.25585938 -21.5625 47.625 C-18.15331034 44.42514655 -15.04115229 41.13811376 -11.99609375 37.59375 C-9.04013248 34.18729777 -5.98674346 30.86917165 -2.9453125 27.5390625 C0.2527531 23.84687518 0.05041644 21.26145207 -0.125 16.4375 C-0.455 16.1075 -0.785 15.7775 -1.125 15.4375 C-4.61118881 15.53058537 -4.61118881 15.53058537 -8.125 16.4375 C-8.785 17.7575 -9.445 19.0775 -10.125 20.4375 C-14.415 20.1075 -18.705 19.7775 -23.125 19.4375 C-23.00089839 13.48062262 -21.18048237 10.50039763 -17.05078125 6.23828125 C-11.4350594 0.98706873 -7.61072883 0.09591557 0 0 Z " fill="#FAFEFD" transform="translate(474.125,175.5625)"/>
<path d="M0 0 C1.77697266 -0.02513672 1.77697266 -0.02513672 3.58984375 -0.05078125 C7.41328099 0.34919587 9.79754674 1.3153972 13.0625 3.3125 C15.278952 6.26776934 16.0625 7.59996836 16.0625 11.3125 C14.81789217 11.98917998 13.56653104 12.65344719 12.3125 13.3125 C11.61640625 13.68375 10.9203125 14.055 10.203125 14.4375 C8.0625 15.3125 8.0625 15.3125 4.0625 15.3125 C3.60875 14.8175 3.155 14.3225 2.6875 13.8125 C1.05970612 12.00971202 1.05970612 12.00971202 -1.9375 12 C-5.11691514 12.09590875 -5.11691514 12.09590875 -7.9375 14.3125 C-7.6075 15.9625 -7.2775 17.6125 -6.9375 19.3125 C-5.85210938 19.61542969 -4.76671875 19.91835937 -3.6484375 20.23046875 C-2.20289716 20.6528669 -0.75759711 21.07608798 0.6875 21.5 C1.40035156 21.69658203 2.11320313 21.89316406 2.84765625 22.09570312 C7.96573651 23.62173623 11.24980222 25.54086204 15.0625 29.3125 C16.90402373 34.83707118 16.8794855 40.22255661 14.4375 45.5625 C11.24551243 51.17638024 6.61778618 54.75767369 0.46484375 56.80078125 C-6.35518175 58.25350213 -13.46866383 58.69574758 -19.625 55.0625 C-22.35761363 53.16663958 -23.6997261 51.40391579 -24.9375 48.3125 C-25.0625 45.5625 -25.0625 45.5625 -24.9375 43.3125 C-23.5057384 42.61312798 -22.06682968 41.92837282 -20.625 41.25 C-19.82449219 40.86714844 -19.02398438 40.48429687 -18.19921875 40.08984375 C-15.9375 39.3125 -15.9375 39.3125 -12.9375 40.3125 C-12.56625 40.993125 -12.195 41.67375 -11.8125 42.375 C-9.49946443 44.76513676 -8.67877372 44.62980743 -5.4375 44.6875 C-1.91348575 44.62876643 -1.01106275 44.36154183 2.0625 42.3125 C2.31280977 39.72869823 2.31280977 39.72869823 2.0625 37.3125 C-0.69571398 35.80914914 -3.10148341 34.98143818 -6.1875 34.4375 C-12.10303553 33.16849073 -17.23050508 31.60627443 -20.9375 26.625 C-22.5810219 21.1808337 -22.6786312 16.5358936 -20.875 11.125 C-15.56114052 3.41133301 -9.37907179 0.03055072 0 0 Z " fill="#F8FDFC" transform="translate(650.9375,163.6875)"/>
<path d="M0 0 C4.46876455 3.07848225 8.07974831 6.73924494 9.8125 11.9375 C9.8971817 14.45118055 9.92851885 16.93619374 9.91015625 19.44921875 C9.9087413 20.17744339 9.90732635 20.90566803 9.90586853 21.65596008 C9.90027659 23.97901539 9.88772562 26.30197388 9.875 28.625 C9.86998396 30.20117048 9.86542123 31.77734248 9.86132812 33.35351562 C9.8503098 37.21488098 9.83305074 41.07617408 9.8125 44.9375 C5.5225 44.9375 1.2325 44.9375 -3.1875 44.9375 C-3.1875 41.6375 -3.1875 38.3375 -3.1875 34.9375 C-6.1575 34.9375 -9.1275 34.9375 -12.1875 34.9375 C-12.1875 37.9075 -12.1875 40.8775 -12.1875 43.9375 C-16.1475 43.9375 -20.1075 43.9375 -24.1875 43.9375 C-24.28693798 39.3660302 -24.35923349 34.79520025 -24.40722656 30.22290039 C-24.4272487 28.67005435 -24.45447517 27.11728281 -24.48925781 25.56469727 C-24.5381961 23.32289168 -24.56056168 21.08208907 -24.578125 18.83984375 C-24.59877014 18.15413803 -24.61941528 17.46843231 -24.64068604 16.76194763 C-24.6431813 11.30966288 -23.1426507 8.34588464 -20.1875 3.9375 C-14.31726732 -1.78189159 -7.5626186 -2.52087287 0 0 Z " fill="#FA2400" transform="translate(495.1875,18.0625)"/>
<path d="M0 0 C2.5 1.6875 2.5 1.6875 4.5 4.6875 C4.73046875 7.31640625 4.73046875 7.31640625 4.6875 10.25 C4.68105469 11.22066406 4.67460937 12.19132813 4.66796875 13.19140625 C4.5 15.6875 4.5 15.6875 3.5 17.6875 C4.49 17.6875 5.48 17.6875 6.5 17.6875 C6.5 19.6675 6.5 21.6475 6.5 23.6875 C5.22125 23.81125 3.9425 23.935 2.625 24.0625 C-0.84790936 24.37792399 -0.84790936 24.37792399 -3.5 26.6875 C-0.53 27.0175 2.44 27.3475 5.5 27.6875 C5.5 29.6675 5.5 31.6475 5.5 33.6875 C4.65236084 33.717229 4.65236084 33.717229 3.78759766 33.74755859 C1.23292003 33.84268236 -1.32092541 33.95241058 -3.875 34.0625 C-4.76445312 34.0934375 -5.65390625 34.124375 -6.5703125 34.15625 C-7.84648437 34.21425781 -7.84648437 34.21425781 -9.1484375 34.2734375 C-9.93395996 34.3048584 -10.71948242 34.3362793 -11.52880859 34.36865234 C-13.73002939 34.5274465 -13.73002939 34.5274465 -15.5 36.6875 C-15.5 38.0075 -15.5 39.3275 -15.5 40.6875 C-12.15747276 40.76177838 -9.6964086 40.75296953 -6.5 39.6875 C-6.5 39.0275 -6.5 38.3675 -6.5 37.6875 C-1.98521602 38.21865106 0.84666857 40.05370292 4.5 42.6875 C2.13562127 48.28925884 -2.78734925 51.15728676 -7.9375 54.0625 C-13.09319513 55.31998662 -17.75851321 55.2460901 -22.8125 53.625 C-26.34520751 51.07816435 -28.34281353 48.85736159 -29.5 44.6875 C-29.82094571 39.66107608 -29.7329557 34.71546043 -29.5 29.6875 C-28.0459375 29.2234375 -28.0459375 29.2234375 -26.5625 28.75 C-23.65934208 27.99226658 -23.65934208 27.99226658 -22.5 26.6875 C-24.48 26.3575 -26.46 26.0275 -28.5 25.6875 C-28.5 23.7075 -28.5 21.7275 -28.5 19.6875 C-27.39140625 19.67332031 -26.2828125 19.65914062 -25.140625 19.64453125 C-23.67704216 19.59762154 -22.21350177 19.54937419 -20.75 19.5 C-19.65558594 19.49129883 -19.65558594 19.49129883 -18.5390625 19.48242188 C-14.67582004 19.32438014 -12.87167304 19.04556081 -10.046875 16.32421875 C-8.39442371 13.71625995 -8.39442371 13.71625995 -7.5 10.6875 C-8.428125 10.996875 -9.35625 11.30625 -10.3125 11.625 C-16.875 13.8125 -16.875 13.8125 -21.1875 11.75 C-21.99574219 11.36972656 -22.80398438 10.98945313 -23.63671875 10.59765625 C-24.25160156 10.29730469 -24.86648438 9.99695313 -25.5 9.6875 C-19.9156048 -0.31787474 -10.94672734 -4.10502275 0 0 Z " fill="#F8FDFC" transform="translate(365.5,185.3125)"/>
<path d="M0 0 C-0.33 4.29 -0.66 8.58 -1 13 C-7.6 13 -14.2 13 -21 13 C-21.33 16.63 -21.66 20.26 -22 24 C-16.39 24 -10.78 24 -5 24 C-5 27.96 -5 31.92 -5 36 C-11.27 36.33 -17.54 36.66 -24 37 C-23.979375 39.206875 -23.95875 41.41375 -23.9375 43.6875 C-23.89633141 48.09253894 -24.12844004 51.64220019 -25 56 C-29.29 56 -33.58 56 -38 56 C-38.09477048 49.36310481 -37.74129022 42.88341732 -37.125 36.27734375 C-37.03621582 35.29125626 -36.94743164 34.30516876 -36.85595703 33.28919983 C-36.57439698 30.17161197 -36.28729148 27.05456438 -36 23.9375 C-35.80692344 21.81058027 -35.61421152 19.6836274 -35.421875 17.55664062 C-34.95213121 12.37070325 -34.4778461 7.18519674 -34 2 C-30.83914635 1.66332128 -27.67748522 1.33489191 -24.515625 1.0078125 C-23.63084473 0.91346924 -22.74606445 0.81912598 -21.83447266 0.72192383 C-14.5014701 -0.03026549 -7.37815158 -0.1603946 0 0 Z " fill="#F9FDFC" transform="translate(624,167)"/>
<path d="M0 0 C4.29 0 8.58 0 13 0 C13.33 10.23 13.66 20.46 14 31 C18.47702364 32.06537205 18.47702364 32.06537205 21 32 C21.33 21.44 21.66 10.88 22 0 C25.96 0 29.92 0 34 0 C34.09927153 4.73219762 34.17165633 9.46378213 34.21972656 14.19677734 C34.23977627 15.80495774 34.26702364 17.41306583 34.30175781 19.02099609 C34.35057264 21.3397002 34.37303428 23.65743625 34.390625 25.9765625 C34.41127014 26.68930328 34.43191528 27.40204407 34.45318604 28.13638306 C34.45545651 33.2485088 33.19135246 36.05778392 30 40 C24.61241699 44.74620408 21.23023682 45.46989695 14.12109375 45.41015625 C9.30111029 44.77674165 6.13070286 42.66631708 3 39 C0.19719301 34.34191116 -0.41243968 30.52593062 -0.29296875 25.1953125 C-0.28872391 24.4713327 -0.28447906 23.74735291 -0.28010559 23.00143433 C-0.26342972 20.70889713 -0.22580081 18.41726754 -0.1875 16.125 C-0.17243871 14.56251278 -0.15875284 13.00001165 -0.14648438 11.4375 C-0.11356293 7.62465495 -0.06186002 3.81248089 0 0 Z " fill="#FA2300" transform="translate(429,17)"/>
<path d="M0 0 C5.61 0 11.22 0 17 0 C17 13.2 17 26.4 17 40 C11.39 40 5.78 40 0 40 C0 26.8 0 13.6 0 0 Z " fill="#F52301" transform="translate(207,38)"/>
<path d="M0 0 C4.29 0 8.58 0 13 0 C13 2.97 13 5.94 13 9 C15.97 9 18.94 9 22 9 C22.08159574 13.16138263 21.98248524 16.9472484 21 21 C18.03 21.33 15.06 21.66 12 22 C11.855625 23.464375 11.71125 24.92875 11.5625 26.4375 C11.125 30.875 11.125 30.875 10 32 C7.98035801 32.07244053 5.95832876 32.08377188 3.9375 32.0625 C2.28041016 32.04896484 2.28041016 32.04896484 0.58984375 32.03515625 C-0.26480469 32.02355469 -1.11945313 32.01195312 -2 32 C-2 29.03 -2 26.06 -2 23 C-4.97 23 -7.94 23 -11 23 C-10.67 18.71 -10.34 14.42 -10 10 C-6.7 10 -3.4 10 0 10 C0 6.7 0 3.4 0 0 Z " fill="#F7FDFC" transform="translate(406,198)"/>
<path d="M0 0 C3.68623011 1.61272567 4.75355 2.630325 7 6 C7.82107258 11.59822216 7.20403613 16.2491878 4 21 C0.3738977 24.43525481 -3.05387275 26.95239651 -8.17578125 27.03515625 C-12.02768018 26.77668185 -14.36537256 26.47597058 -17.5 24.125 C-20.36010796 20.07318039 -20.62769025 15.80934503 -20 11 C-18.58822678 6.99863134 -16.46993116 4.43636464 -13.375 1.5625 C-8.81217269 -0.54992005 -4.94945624 -0.69408068 0 0 Z " fill="#FDF4F2" transform="translate(476,263)"/>
<path d="M0 0 C1.98 0 3.96 0 6 0 C6.15335859 8.34952325 5.94730142 16.69649368 5 25 C1.17657842 28.82342158 -12.32907948 27.05644441 -17.77783203 27.06811523 C-21.51879211 27.06002705 -25.25919832 27.03589255 -29 27 C-29.31274919 18.48627215 -28.37292913 10.3969326 -27 2 C-25.02 2 -23.04 2 -21 2 C-20.89650183 8.41688675 -21.25492456 14.62694402 -22 21 C-19.69 21 -17.38 21 -15 21 C-14.93941406 19.72382813 -14.87882812 18.44765625 -14.81640625 17.1328125 C-14.73200432 15.46352984 -14.64735614 13.79425963 -14.5625 12.125 C-14.52318359 11.28324219 -14.48386719 10.44148438 -14.44335938 9.57421875 C-14.40146484 8.76855469 -14.35957031 7.96289062 -14.31640625 7.1328125 C-14.26141968 6.01737061 -14.26141968 6.01737061 -14.20532227 4.87939453 C-14 3 -14 3 -13 1 C-11.02 1 -9.04 1 -7 1 C-7.52405563 7.69007182 -8.10463925 14.3487487 -9 21 C-5.535 20.505 -5.535 20.505 -2 20 C-1.34 13.4 -0.68 6.8 0 0 Z " fill="#FDF2F0" transform="translate(309,273)"/>
<path d="M0 0 C5.61 0 11.22 0 17 0 C16.67 6.6 16.34 13.2 16 20 C16.66 20 17.32 20 18 20 C17.67 23.63 17.34 27.26 17 31 C15.35 31 13.7 31 12 31 C12 29.02 12 27.04 12 25 C7.38 25.33 2.76 25.66 -2 26 C-2 27.98 -2 29.96 -2 32 C-3.98 32 -5.96 32 -8 32 C-8.14285714 24.57142857 -8.14285714 24.57142857 -7 21 C-5.68 21 -4.36 21 -3 21 C-2.85691406 19.99839844 -2.71382813 18.99679687 -2.56640625 17.96484375 C-1.7109375 11.9765625 -0.85546875 5.98828125 0 0 Z " fill="#FDF4F3" transform="translate(387,268)"/>
<path d="M0 0 C9.24 0 18.48 0 28 0 C28 5.61 28 11.22 28 17 C18.76 17 9.52 17 0 17 C0 11.39 0 5.78 0 0 Z " fill="#F02301" transform="translate(279,38)"/>
<path d="M0 0 C3.18500291 1.62145603 5.22111096 2.97328264 7.375 5.8125 C8.65125865 10.27940528 8.39873543 13.90872409 6.8125 18.25 C4.71251242 21.43618806 3.5544915 22.60911202 0 24 C-3.86859581 24.64357416 -7.37846198 24.91021885 -10.87890625 22.9453125 C-13.83720327 20.53590432 -15.82310283 18.63847378 -16.23828125 14.79296875 C-16.43954579 7.72752407 -16.43954579 7.72752407 -14.1875 4 C-9.51742294 -0.26978474 -6.11888369 -0.85622605 0 0 Z " fill="#25312D" transform="translate(414,95)"/>
<path d="M0 0 C1.32 0 2.64 0 4 0 C4.13542997 8.35151467 4.0422076 16.70093946 3 25 C2.67 25.33 2.34 25.66 2 26 C0.02 26 -1.96 26 -4 26 C-4 22.04 -4 18.08 -4 14 C-9.10086157 18.99045387 -9.10086157 18.99045387 -13.6875 24.4375 C-14.450625 25.283125 -15.21375 26.12875 -16 27 C-17.32 27 -18.64 27 -20 27 C-19.34 18.42 -18.68 9.84 -18 1 C-16.02 1 -14.04 1 -12 1 C-11.67 4.63 -11.34 8.26 -11 12 C-9.5385774 10.56564079 -8.08096951 9.12739414 -6.625 7.6875 C-5.40683594 6.48673828 -5.40683594 6.48673828 -4.1640625 5.26171875 C-1.87395158 2.99990063 -1.87395158 2.99990063 0 0 Z " fill="#FEEFEC" transform="translate(526,260)"/>
<path d="M0 0 C1.32 0 2.64 0 4 0 C3.85771699 2.83355099 3.71126584 5.66678787 3.5625 8.5 C3.52318359 9.29148437 3.48386719 10.08296875 3.44335938 10.8984375 C3.17294782 15.97385441 2.6872858 20.96375445 2 26 C0.02 26 -1.96 26 -4 26 C-4 22.04 -4 18.08 -4 14 C-5.44064765 15.41346562 -6.87739015 16.83091211 -8.3125 18.25 C-9.11300781 19.03890625 -9.91351563 19.8278125 -10.73828125 20.640625 C-13.01538056 22.88074402 -13.01538056 22.88074402 -14.54296875 25.296875 C-15.02378906 25.85890625 -15.50460937 26.4209375 -16 27 C-17.32 27 -18.64 27 -20 27 C-19.44944191 18.31992454 -18.84592214 9.65720313 -18 1 C-16.02 1 -14.04 1 -12 1 C-11.67 4.63 -11.34 8.26 -11 12 C-9.35113941 10.37807179 -7.7059976 8.75236228 -6.0625 7.125 C-5.14597656 6.22007812 -4.22945313 5.31515625 -3.28515625 4.3828125 C-0.98812373 2.22317745 -0.98812373 2.22317745 0 0 Z " fill="#FDF2F0" transform="translate(339,271)"/>
<path d="M0 0 C0.73605469 0.00451172 1.47210938 0.00902344 2.23046875 0.01367188 C4.02868158 0.02534858 5.82685197 0.04327989 7.625 0.0625 C7.48589513 3.64612776 7.33754587 7.22931498 7.1875 10.8125 C7.14818359 11.82828125 7.10886719 12.8440625 7.06835938 13.890625 C7.02646484 14.8703125 6.98457031 15.85 6.94140625 16.859375 C6.90474854 17.76010742 6.86809082 18.66083984 6.83032227 19.58886719 C6.64193593 21.85846339 6.25133499 23.87812887 5.625 26.0625 C3.645 26.0625 1.665 26.0625 -0.375 26.0625 C-0.045 19.4625 0.285 12.8625 0.625 6.0625 C-2.345 6.0625 -5.315 6.0625 -8.375 6.0625 C-8.354375 7.50625 -8.33375 8.95 -8.3125 10.4375 C-8.3125 15.66875731 -8.5290039 20.89252383 -9.375 26.0625 C-10.375 27.0625 -10.375 27.0625 -13.4375 27.125 C-14.406875 27.104375 -15.37625 27.08375 -16.375 27.0625 C-15.77202691 18.38995081 -15.12058682 9.72399795 -14.375 1.0625 C-9.51770355 0.08950844 -4.9249375 -0.05788805 0 0 Z " fill="#FCEEEC" transform="translate(225.375,277.9375)"/>
<path d="M0 0 C1.32 0 2.64 0 4 0 C3.34 8.58 2.68 17.16 2 26 C0.02 26 -1.96 26 -4 26 C-4 22.04 -4 18.08 -4 14 C-5.44064765 15.41346562 -6.87739015 16.83091211 -8.3125 18.25 C-9.11300781 19.03890625 -9.91351563 19.8278125 -10.73828125 20.640625 C-13.01538056 22.88074402 -13.01538056 22.88074402 -14.54296875 25.296875 C-15.02378906 25.85890625 -15.50460937 26.4209375 -16 27 C-17.32 27 -18.64 27 -20 27 C-20.30221599 18.53795229 -19.14920797 10.36254017 -18 2 C-16.02 2 -14.04 2 -12 2 C-12 5.96 -12 9.92 -12 14 C-10.948125 12.80375 -9.89625 11.6075 -8.8125 10.375 C-8.173125 9.65054687 -7.53375 8.92609375 -6.875 8.1796875 C-5.28249224 6.32839723 -3.79592603 4.43772526 -2.3125 2.5 C-1.549375 1.675 -0.78625 0.85 0 0 Z " fill="#FEF5F4" transform="translate(367,269)"/>
<path d="M0 0 C1.98 0 3.96 0 6 0 C5.8612119 3.60447434 5.71276065 7.20848712 5.5625 10.8125 C5.52318359 11.83666016 5.48386719 12.86082031 5.44335938 13.91601562 C5.40146484 14.89892578 5.35957031 15.88183594 5.31640625 16.89453125 C5.27974854 17.80050049 5.24309082 18.70646973 5.20532227 19.63989258 C5 22 5 22 4 25 C2.02 25 0.04 25 -2 25 C-2 22.03 -2 19.06 -2 16 C-5.3 16 -8.6 16 -12 16 C-12 19.3 -12 22.6 -12 26 C-13.98 26 -15.96 26 -18 26 C-18.40997831 5.81995662 -18.40997831 5.81995662 -16 1 C-14.02 1 -12.04 1 -10 1 C-9.875 7.75 -9.875 7.75 -11 10 C-7.7 9.67 -4.4 9.34 -1 9 C-0.67 6.03 -0.34 3.06 0 0 Z " fill="#FDF3F2" transform="translate(166,282)"/>
<path d="M0 0 C-0.66 8.25 -1.32 16.5 -2 25 C-3.98 25 -5.96 25 -8 25 C-8.10655578 18.55929529 -7.96205088 12.37358711 -7 6 C-9.97 6 -12.94 6 -16 6 C-16.66 12.6 -17.32 19.2 -18 26 C-19.98 26 -21.96 26 -24 26 C-24.36011137 17.49737031 -23.2527717 9.38909618 -22 1 C-14.63034668 -0.21709489 -7.47491524 -0.06614969 0 0 Z " fill="#FDF5F3" transform="translate(453,265)"/>
<path d="M0 0 C2.43816585 -0.0809723 4.87364384 -0.14046972 7.3125 -0.1875 C8.34793945 -0.22520508 8.34793945 -0.22520508 9.40429688 -0.26367188 C14.48115458 -0.33724952 14.48115458 -0.33724952 16.953125 1.26953125 C18.8022472 4.32610265 18.60445198 7.59912732 18 11 C15.90057475 14.44905576 13.8665419 16.7111527 10 18 C7.25 18.125 7.25 18.125 5 18 C5.020625 19.134375 5.04125 20.26875 5.0625 21.4375 C5 25 5 25 4 26 C2.00041636 26.04080783 -0.00045254 26.04254356 -2 26 C-1.49354466 17.31482976 -0.97704701 8.64790541 0 0 Z " fill="#FDF1EF" transform="translate(259,276)"/>
<path d="M0 0 C1.94458008 0.16894531 1.94458008 0.16894531 4 1 C5.08081055 2.87011719 5.08081055 2.87011719 5.88671875 5.296875 C6.18513672 6.1734375 6.48355469 7.05 6.79101562 7.953125 C7.08685547 8.87609375 7.38269531 9.7990625 7.6875 10.75 C7.99494141 11.6575 8.30238281 12.565 8.61914062 13.5 C10.00529155 17.64935332 11.20264004 21.69320392 12 26 C9.69 26 7.38 26 5 26 C4.67 25.01 4.34 24.02 4 23 C0.7 22.67 -2.6 22.34 -6 22 C-6.99 24.475 -6.99 24.475 -8 27 C-9.98 27 -11.96 27 -14 27 C-12.66645868 23.5302333 -11.15868093 20.24490813 -9.43359375 16.953125 C-8.94826172 16.02628906 -8.46292969 15.09945313 -7.96289062 14.14453125 C-7.45951172 13.18933594 -6.95613281 12.23414063 -6.4375 11.25 C-5.93025391 10.27933594 -5.42300781 9.30867188 -4.90039062 8.30859375 C-1.13078746 1.13078746 -1.13078746 1.13078746 0 0 Z " fill="#FEF1EF" transform="translate(187,280)"/>
<path d="M0 0 C4.95 0 9.9 0 15 0 C15 1.65 15 3.3 15 5 C12.03 5 9.06 5 6 5 C6 6.65 6 8.3 6 10 C8.64 10 11.28 10 14 10 C14 11.65 14 13.3 14 15 C11.03 15 8.06 15 5 15 C5 16.65 5 18.3 5 20 C7.97 20 10.94 20 14 20 C14 21.65 14 23.3 14 25 C8.72 25.33 3.44 25.66 -2 26 C-2.3189892 17.22779709 -1.11636806 8.68175521 0 0 Z " fill="#FDF4F3" transform="translate(239,277)"/>
<path d="M0 0 C0 1.98 0 3.96 0 6 C-2.97 6 -5.94 6 -9 6 C-9 7.32 -9 8.64 -9 10 C-6.69 10 -4.38 10 -2 10 C-2 11.98 -2 13.96 -2 16 C-4.97 16 -7.94 16 -11 16 C-11 17.65 -11 19.3 -11 21 C-8.03 21 -5.06 21 -2 21 C-2 22.65 -2 24.3 -2 26 C-6.95 26 -11.9 26 -17 26 C-17.20689239 17.41396569 -16.52612858 9.44821179 -15 1 C-13.25021843 0.83105557 -11.50016388 0.66493691 -9.75 0.5 C-8.77546875 0.4071875 -7.8009375 0.314375 -6.796875 0.21875 C-4.53697847 0.04199832 -2.26679807 0 0 0 Z " fill="#FDF2F0" transform="translate(426,266)"/>
<path d="M0 0 C2.51334594 3.77001892 2.34332961 6.81810392 2.3125 11.1875 C2.30839111 12.33726318 2.30839111 12.33726318 2.30419922 13.51025391 C2.17620857 20.41145092 0.89017124 25.16474314 -3 31 C-5.375 30.8125 -5.375 30.8125 -8 30 C-11.13705379 23.99355913 -10.83364348 16.85988352 -9.4296875 10.359375 C-6.17094371 0 -6.17094371 0 0 0 Z " fill="#0BD1A9" transform="translate(149,210)"/>
<path d="M0 0 C1.9375 0.875 1.9375 0.875 3.9375 3.875 C4.73610111 12.35426477 4.79824196 21.752166 -0.1875 28.9375 C-0.80625 29.576875 -1.425 30.21625 -2.0625 30.875 C-3.9375 30.5625 -3.9375 30.5625 -6.0625 29.875 C-8.49960501 26.21934249 -8.40735551 23.41931095 -8.375 19.1875 C-8.37153564 18.46796143 -8.36807129 17.74842285 -8.36450195 17.00708008 C-8.24080624 10.97332618 -7.65865807 5.87637851 -3.5859375 1.16796875 C-2.0625 -0.125 -2.0625 -0.125 0 0 Z " fill="#08D0A8" transform="translate(103.0625,213.125)"/>
<path d="M0 0 C1.9375 0.875 1.9375 0.875 3.9375 3.875 C4.67512187 11.86430698 4.8916355 20.65015983 0.9375 27.875 C-0.5390625 29.61328125 -0.5390625 29.61328125 -2.0625 30.875 C-4.125 30.8125 -4.125 30.8125 -6.0625 29.875 C-9.55375212 24.67526281 -8.49408034 17.83865566 -8.0625 11.875 C-5.58586604 -0.33853734 -5.58586604 -0.33853734 0 0 Z " fill="#08D0A8" transform="translate(208.0625,206.125)"/>
<path d="M0 0 C3.875 1.875 3.875 1.875 5 3 C5.15482163 5.88801882 5.23179909 8.73560486 5.25 11.625 C5.270625 12.42035156 5.29125 13.21570313 5.3125 14.03515625 C5.35343729 20.26785832 4.2700828 24.84162393 0.5625 30 C-1 31 -1 31 -3.0625 31 C-5.84378622 29.56449744 -6.04730829 27.92849148 -7 25 C-7.85822115 17.7441303 -6.96733924 10.69203285 -4 4 C-1.8125 1.375 -1.8125 1.375 0 0 Z " fill="#09D0A9" transform="translate(251,203)"/>
<path d="M0 0 C2.5 0.1875 2.5 0.1875 5 1 C8.39218858 6.08828286 7.43252562 12.05438657 7 18 C6.01996858 22.55872681 4.58437809 26.12343286 2 30 C-0.625 30.1875 -0.625 30.1875 -3 30 C-6.7177413 23.98644236 -5.71130367 15.60699798 -4.39453125 8.9296875 C-2.56748466 2.56748466 -2.56748466 2.56748466 0 0 Z " fill="#08D0A8" transform="translate(559,183)"/>
<path d="M0 0 C2.5 0.1875 2.5 0.1875 5 1 C8.72683709 6.59025563 7.32748889 13.95816882 6.25 20.375 C5.3612298 24.41954845 3.97744751 27.02255249 1 30 C-1.4375 29.625 -1.4375 29.625 -4 29 C-5.66617889 25.66764222 -5.22670485 21.97275012 -5.25 18.3125 C-5.270625 17.52166016 -5.29125 16.73082031 -5.3125 15.91601562 C-5.34825284 10.50393021 -4.53811288 6.79900469 -2 2 C-1.34 1.34 -0.68 0.68 0 0 Z " fill="#09D0A9" transform="translate(294,201)"/>
<path d="M0 0 C4.62322794 1.15580698 5.57282236 2.35325657 8.625 5.875 C9.40101563 6.75929688 10.17703125 7.64359375 10.9765625 8.5546875 C13 11 13 11 15 14 C15.33 9.38 15.66 4.76 16 0 C17.32 0 18.64 0 20 0 C20 7.92 20 15.84 20 24 C19.01 24 18.02 24 17 24 C14.80859375 21.6640625 14.80859375 21.6640625 12.4375 18.625 C9.36808795 14.67969922 9.36808795 14.67969922 6 11 C5.67 15.62 5.34 20.24 5 25 C3.35 25 1.7 25 0 25 C0 16.75 0 8.5 0 0 Z " fill="#23312C" transform="translate(362,95)"/>
<path d="M0 0 C0.886875 -0.01417969 1.77375 -0.02835937 2.6875 -0.04296875 C5 0.1875 5 0.1875 7 2.1875 C7.31537716 6.52393601 7.44897847 8.51403229 5 12.1875 C5.99 13.6725 5.99 13.6725 7 15.1875 C6.67425569 21.26806042 6.67425569 21.26806042 4.625 24.0625 C0.60040741 26.84875641 -4.29753032 26.84426951 -9 26.1875 C-11.0625 24.3125 -11.0625 24.3125 -12 22.1875 C-12 21.5275 -12 20.8675 -12 20.1875 C-10.02 19.5275 -8.04 18.8675 -6 18.1875 C-5.67 18.8475 -5.34 19.5075 -5 20.1875 C-3.35 19.8575 -1.7 19.5275 0 19.1875 C0 18.1975 0 17.2075 0 16.1875 C-1.65 15.8575 -3.3 15.5275 -5 15.1875 C-5 13.5375 -5 11.8875 -5 10.1875 C-3.35 9.8575 -1.7 9.5275 0 9.1875 C0.33 7.8675 0.66 6.5475 1 5.1875 C0.29875 5.538125 -0.4025 5.88875 -1.125 6.25 C-4.50268586 7.3514193 -6.58080593 6.98266141 -10 6.1875 C-7.10634546 1.05783968 -5.86378131 0.04261469 0 0 Z " fill="#FDF2F0" transform="translate(496,261.8125)"/>
<path d="M0 0 C0.99 0 1.98 0 3 0 C4.66960181 3.81122135 6.33518932 7.62418364 8 11.4375 C8.47695313 12.52611328 8.95390625 13.61472656 9.4453125 14.73632812 C9.89648438 15.77080078 10.34765625 16.80527344 10.8125 17.87109375 C11.23144531 18.82943115 11.65039062 19.78776855 12.08203125 20.77514648 C13 23 13 23 13 24 C11.35 24 9.7 24 8 24 C7.505 21.525 7.505 21.525 7 19 C3.37 19 -0.26 19 -4 19 C-4.33 20.65 -4.66 22.3 -5 24 C-6.65 24 -8.3 24 -10 24 C-7.49415892 15.59806226 -3.78974143 7.88058561 0 0 Z " fill="#1B2723" transform="translate(284,95)"/>
<path d="M0 0 C0 1.98 0 3.96 0 6 C-2.64 6 -5.28 6 -8 6 C-8.06058594 7.09699219 -8.12117187 8.19398438 -8.18359375 9.32421875 C-8.26804498 10.77865654 -8.35269066 12.23308305 -8.4375 13.6875 C-8.49647461 14.7693457 -8.49647461 14.7693457 -8.55664062 15.87304688 C-8.78185678 19.66707282 -9.12839305 23.28651492 -10 27 C-11.98 27 -13.96 27 -16 27 C-15.85879984 24.41633755 -15.71221667 21.83317115 -15.5625 19.25 C-15.50352539 18.15558594 -15.50352539 18.15558594 -15.44335938 17.0390625 C-15.23852902 13.5727027 -14.9147998 10.34666974 -14 7 C-16.31 7 -18.62 7 -21 7 C-21 5.02 -21 3.04 -21 1 C-13.98441385 0.4011085 -7.04321257 -0.13810221 0 0 Z " fill="#FCEFED" transform="translate(555,258)"/>
<path d="M0 0 C2.9375 1.3125 2.9375 1.3125 5 3 C5.33 3.99 5.66 4.98 6 6 C4.1875 6.625 4.1875 6.625 2 7 C1.01 6.34 0.02 5.68 -1 5 C-4.05603838 4.68166267 -6.13335219 4.53778783 -8.875 6 C-10.68723346 9.22174836 -10.5327028 12.39862897 -10 16 C-9.10242444 18.14780077 -9.10242444 18.14780077 -7 19 C-2.61544493 19.39859592 0.17957215 19.12245992 4 17 C4.66 17.33 5.32 17.66 6 18 C4.63016497 21.16115776 4.0109362 21.9927092 1 24 C-3.79689791 24.69920885 -7.77459282 24.71482085 -12 22.25 C-15.0103761 18.86332689 -15.89710076 17.13189161 -16.3125 12.5625 C-15.87231816 7.54442702 -14.21308414 5.28240323 -10.8125 1.6875 C-7.08978819 -0.54612709 -4.24071252 -0.71963606 0 0 Z " fill="#1A2924" transform="translate(256,95)"/>
<path d="M0 0 C2.875 1.5 2.875 1.5 5 4 C5.94237143 7.99893269 5.61136591 10.98105682 3.5 14.5 C-0.02640809 16.61584485 -2.98821239 16.80730018 -7 16 C-10.05608679 13.96260881 -10.8207454 12.52656037 -12 9.0625 C-12 5.08077829 -10.76634634 3.76634634 -8 1 C-5.14675563 -0.42662219 -3.16545451 -0.31033868 0 0 Z " fill="#F72300" transform="translate(219,17)"/>
<path d="M0 0 C0.99 0.66 1.98 1.32 3 2 C2.67 3.32 2.34 4.64 2 6 C-0.64 5.67 -3.28 5.34 -6 5 C-6 5.99 -6 6.98 -6 8 C-5.37351562 8.25394531 -4.74703125 8.50789063 -4.1015625 8.76953125 C-3.28429687 9.11371094 -2.46703125 9.45789063 -1.625 9.8125 C-0.40683594 10.31716797 -0.40683594 10.31716797 0.8359375 10.83203125 C3 12 3 12 5 15 C4.80919648 18.05285639 4.61347024 20.20023051 2.7265625 22.66015625 C-0.02238267 24.79338745 -2.4694664 24.46745544 -5.8359375 24.36328125 C-8 24 -8 24 -10.5625 22.125 C-12 20 -12 20 -12 18 C-10.68 17.67 -9.36 17.34 -8 17 C-7.67 17.99 -7.34 18.98 -7 20 C-4.69 20 -2.38 20 0 20 C0 18.35 0 16.7 0 15 C-1.258125 14.731875 -2.51625 14.46375 -3.8125 14.1875 C-6.15109221 13.58319122 -7.91617348 13.049772 -10 11.8125 C-11.64712284 8.82708986 -11.35601078 6.32276732 -11 3 C-8.86393461 -1.13862669 -4.11874756 -0.63940234 0 0 Z " fill="#1D2C26" transform="translate(321,95)"/>
<path d="M0 0 C2.9375 0.5625 2.9375 0.5625 5.3125 2.0625 C7.6059392 5.590868 7.60024022 8.46861106 6.9375 12.5625 C5.9375 15.0625 5.9375 15.0625 3.9375 16.5625 C-0.48459561 17.12403595 -2.78421101 17.36143062 -6.5625 15 C-8.67256839 11.57113886 -8.68741523 9.52029649 -8.0625 5.5625 C-5.58756641 2.14126827 -4.17986219 0.76772979 0 0 Z " fill="#01CAA2" transform="translate(410.0625,98.4375)"/>
<path d="M0 0 C3.3125 1 3.3125 1 5.3125 4 C5.79574239 7.70485832 5.57587747 9.52592056 3.75 12.8125 C0.56012034 15.67521252 -1.42948641 16.07603596 -5.6875 16 C-8.1875 14.5 -8.1875 14.5 -9.6875 12 C-9.76639133 7.66097668 -9.07348131 5.54491479 -6.5625 2 C-3.6875 0 -3.6875 0 0 0 Z " fill="#FE2F0D" transform="translate(471.6875,268)"/>
<path d="M0 0 C0 0.33 0 0.66 0 1 C-0.969375 1.268125 -1.93875 1.53625 -2.9375 1.8125 C-4.29248362 2.2055277 -5.64657376 2.60164237 -7 3 C-8.13501953 3.32677734 -8.13501953 3.32677734 -9.29296875 3.66015625 C-12.99864084 4.79606578 -15.5762423 5.63825562 -18.5625 8.1875 C-22.20931154 10.89923166 -24.51964266 10.5058468 -29 10 C-31 8.8125 -31 8.8125 -32 7 C-32.03984909 5.33380979 -32.04362934 3.66609551 -32 2 C-28.35475481 1.66002426 -24.70872831 1.32925063 -21.0625 1 C-19.53012695 0.85691406 -19.53012695 0.85691406 -17.96679688 0.7109375 C-11.94822031 0.17253448 -6.04236648 -0.10081112 0 0 Z " fill="#AA4325" transform="translate(386,258)"/>
<path d="M0 0 C1.65 0 3.3 0 5 0 C5 8.25 5 16.5 5 25 C3.35 25 1.7 25 0 25 C0 16.75 0 8.5 0 0 Z " fill="#1E3731" transform="translate(341,95)"/>
<path d="M0 0 C2 2 2 2 2.25 5.5 C2 9 2 9 0 11 C-6.09583333 11.55416667 -6.09583333 11.55416667 -8.9375 9.8125 C-10.38718434 7.33950907 -10.42317323 5.82115488 -10 3 C-7.65916893 -0.99318242 -4.22752593 -0.38432054 0 0 Z " fill="#F92400" transform="translate(422,51)"/>
<path d="M0 0 C3.5625 0.25 3.5625 0.25 7 1 C8.4783226 3.95664519 8.06032783 6.74229737 8 10 C4.7 10 1.4 10 -2 10 C-2.1953125 3.9453125 -2.1953125 3.9453125 -2 2 C-1.34 1.34 -0.68 0.68 0 0 Z " fill="#352925" transform="translate(485,30)"/>
<path d="M0 0 C1.32 0 2.64 0 4 0 C4.02715383 1.74991334 4.04646551 3.49994945 4.0625 5.25 C4.07410156 6.22453125 4.08570313 7.1990625 4.09765625 8.203125 C4.01195577 10.65758678 3.70706066 12.66168914 3 15 C1.02 15 -0.96 15 -3 15 C-2.69163768 12.87439563 -2.37818386 10.74952935 -2.0625 8.625 C-1.88847656 7.44164062 -1.71445312 6.25828125 -1.53515625 5.0390625 C-1 2 -1 2 0 0 Z " fill="#FF3615" transform="translate(393,274)"/>
<path d="M0 0 C1.32 0 2.64 0 4 0 C4.33 0.66 4.66 1.32 5 2 C5.556875 1.855625 6.11375 1.71125 6.6875 1.5625 C9.11384195 0.97230872 11.54906345 0.476571 14 0 C12.92598892 2.91517292 12.22189824 4.77810176 10 7 C8.125 7.265625 8.125 7.265625 6 7.25 C5.29875 7.25515625 4.5975 7.2603125 3.875 7.265625 C2 7 2 7 0 5 C-0.125 2.375 -0.125 2.375 0 0 Z " fill="#DFDAD9" transform="translate(355,261)"/>
<path d="M0 0 C1.65 0 3.3 0 5 0 C5.625 2.375 5.625 2.375 6 5 C5.34 5.66 4.68 6.32 4 7 C2.68 7 1.36 7 0 7 C0 4.69 0 2.38 0 0 Z " fill="#FE3210" transform="translate(265,281)"/>
<path d="M0 0 C2.5654594 2.5654594 2.54046087 4.47686668 3 8 C1.02 8 -0.96 8 -3 8 C-1.125 1.125 -1.125 1.125 0 0 Z " fill="#02BE98" transform="translate(285,102)"/>
<path d="M0 0 C3.63 0 7.26 0 11 0 C10.34 1.32 9.68 2.64 9 4 C7.68 3.67 6.36 3.34 5 3 C5 2.34 5 1.68 5 1 C3.68 1 2.36 1 1 1 C0.67 2.32 0.34 3.64 0 5 C0 3.35 0 1.7 0 0 Z " fill="#CB371C" transform="translate(354,260)"/>
<path d="M0 0 C2.31 0 4.62 0 7 0 C4.63707344 2.52588702 3.33537489 3.88820837 0 5 C0 3.35 0 1.7 0 0 Z " fill="#C92003" transform="translate(128,275)"/>
<path d="M0 0 C2 2 2 2 2 6 C0.35 6 -1.3 6 -3 6 C-2.01 4.02 -1.02 2.04 0 0 Z " fill="#FF3D1E" transform="translate(187,291)"/>
<path d="M0 0 C1.32 0 2.64 0 4 0 C3.34 1.65 2.68 3.3 2 5 C1.34 5 0.68 5 0 5 C0 4.34 0 3.68 0 3 C-0.66 2.67 -1.32 2.34 -2 2 C-1.34 1.34 -0.68 0.68 0 0 Z " fill="#D8D2D1" transform="translate(365,261)"/>
</svg>
