<svg width="102" height="24" viewBox="0 0 102 24" fill="none" xmlns="http://www.w3.org/2000/svg">
<g clip-path="url(#clip0_3215_20975)">
<path d="M99.4038 10.8632C98.6289 10.3306 97.1132 9.64097 94.7615 8.74651C93.5449 8.26856 93.0351 7.94082 92.8176 7.74964C92.4778 7.44922 92.4778 7.2239 92.4778 7.14879C92.4778 6.85519 92.4778 6.49331 93.3818 6.49331C94.0139 6.49331 95.1829 6.81422 97.1608 8.34367L97.6706 8.73969L101.681 3.55733L101.232 3.15448C98.8464 1.02418 96.0869 -0.0341394 93.0284 0.0409673C90.7786 0.0887624 88.8687 0.798862 87.3666 2.16444C85.8441 3.5505 85.0693 5.29844 85.0693 7.36728C85.0693 8.52802 85.2664 9.57952 85.6674 10.4876C86.0684 11.4094 86.6733 12.1946 87.455 12.8023C88.1822 13.369 88.9095 13.8469 89.6163 14.202C90.3096 14.557 91.1796 14.9121 92.1991 15.2467C93.5857 15.7041 94.0683 15.9977 94.2382 16.1275C94.4489 16.2913 94.5372 16.4825 94.5372 16.742C94.5372 16.9536 94.4625 17.1107 94.2858 17.2677C94.1022 17.4316 93.7624 17.5203 93.2934 17.5203C91.7505 17.5203 90.2145 16.7556 88.7396 15.2603L88.2366 14.7482L84.3556 19.5141L77.4432 0.341394H70.9115L63.4893 20.8592V9.75704H53.4572V15.8065H56.6653V16.7761C55.8157 17.1038 54.9321 17.2745 54.035 17.2745C52.5736 17.2745 51.459 16.7966 50.6297 15.8134C49.7733 14.796 49.3587 13.567 49.3587 12.0512C49.3587 10.4057 49.7801 9.15619 50.6501 8.22077C51.5133 7.30583 52.5328 6.85519 53.7835 6.85519C55.4827 6.85519 56.9304 7.46287 58.2218 8.72603L58.6364 9.1357L63.7476 4.83414L63.3398 4.3357C62.2047 2.95647 60.7502 1.87767 59.017 1.1266C57.2906 0.382361 55.5303 0 53.7835 0C50.154 0 47.2313 1.15391 45.1039 3.43442C42.9901 5.70128 41.9162 8.5963 41.9162 12.0444C41.9162 13.9494 42.2289 15.6495 42.8406 17.1448H33.7192V15.3354H38.7081V8.91721H33.7192V6.88933H42.6231V0.341394H26.7389V23.6927H43.2756V18.0939C43.8125 19.1112 44.5126 20.0125 45.369 20.8046C47.6459 22.9075 50.5618 23.9727 54.0282 23.9727C55.7342 23.9727 57.4402 23.7064 59.0918 23.1807C60.7502 22.6549 62.1368 21.9789 63.2243 21.1733L63.4282 21.023L62.463 23.6927H70.0075L71.1222 20.1218H77.2257L78.3404 23.6927H85.8577L84.6954 20.4768C87.0539 22.8119 89.8678 24.0068 93.0691 24.0068C94.109 24.0068 95.1286 23.8771 96.1005 23.6108C97.0793 23.3445 98.024 22.9212 98.9212 22.3545C99.8592 21.7536 100.62 20.907 101.171 19.8213C101.721 18.7494 102 17.4862 102 16.0592C102 13.7923 101.123 12.0444 99.4038 10.8632ZM75.8731 13.8879H72.3932L74.1332 8.28905L75.8731 13.8879Z" fill="url(#paint0_linear_3215_20975)"/>
<path d="M27.4524 0.348145L18.9836 23.679H11.6362L18.8001 0.348145H27.4524Z" fill="#FF2B39"/>
<path d="M11.5955 0.348145L18.5622 23.679H11.6227L9.27774 14.912L6.18519 9.81159L2.47412 0.348145H11.5955Z" fill="#FF2B39"/>
<path d="M23.2382 12.0171L14.6606 15.076L11.6156 23.6928L18.9834 23.6791L23.2382 12.0171Z" fill="url(#paint1_linear_3215_20975)"/>
<path d="M11.6159 0.348145L8.57767 8.96493L6.18519 9.81159L2.47412 0.348145H11.6159Z" fill="url(#paint2_linear_3215_20975)"/>
<path d="M-0.0185547 11.7924L8.55904 8.74032L11.5972 0.123535L14.6354 8.74032L23.213 11.7924L14.6354 14.8444L11.5972 23.4612L8.55904 14.8444L-0.0185547 11.7924Z" fill="#01C9FF"/>
<path d="M11.5972 23.4682V11.7925H23.2197L14.6421 14.8514L11.5972 23.4682Z" fill="url(#paint3_linear_3215_20975)"/>
<path d="M11.6177 0.123642L11.6177 11.7993L-0.00489998 11.7993L8.5727 8.74043L11.6177 0.123642Z" fill="url(#paint4_linear_3215_20975)"/>
</g>
<defs>
<linearGradient id="paint0_linear_3215_20975" x1="26.7389" y1="12.0034" x2="102" y2="12.0034" gradientUnits="userSpaceOnUse">
<stop offset="0.175" stop-color="#FF2B39"/>
<stop offset="0.8" stop-color="#00C9FF"/>
</linearGradient>
<linearGradient id="paint1_linear_3215_20975" x1="14.6878" y1="10.9929" x2="18.2637" y2="19.8647" gradientUnits="userSpaceOnUse">
<stop stop-opacity="0"/>
<stop offset="1" stop-color="#FF2B39"/>
</linearGradient>
<linearGradient id="paint2_linear_3215_20975" x1="16.8562" y1="7.38769" x2="2.03555" y2="3.12217" gradientUnits="userSpaceOnUse">
<stop offset="0.15" stop-opacity="0"/>
<stop offset="0.775" stop-color="#FF2B39"/>
</linearGradient>
<linearGradient id="paint3_linear_3215_20975" x1="9.97273" y1="9.96261" x2="17.5047" y2="17.6506" gradientUnits="userSpaceOnUse">
<stop offset="0.21" stop-color="#FFF501"/>
<stop offset="1" stop-color="#01C9FF"/>
</linearGradient>
<linearGradient id="paint4_linear_3215_20975" x1="13.2421" y1="13.6292" x2="4.8029" y2="5.3109" gradientUnits="userSpaceOnUse">
<stop offset="0.265" stop-color="#01C9FF"/>
<stop offset="0.832384" stop-color="#F3F30D"/>
</linearGradient>
<clipPath id="clip0_3215_20975">
<rect width="102" height="24" fill="white"/>
</clipPath>
</defs>
</svg>
